<?xml version="1.0" encoding="UTF-8" standalone="no"?>
<!DOCTYPE svg PUBLIC "-//W3C//DTD SVG 1.1//EN"
 "http://www.w3.org/Graphics/SVG/1.1/DTD/svg11.dtd">
<!-- Generated by graphviz version 12.2.1 (0)
 -->
<!-- Pages: 1 -->
<svg width="299pt" height="523pt"
 viewBox="0.00 0.00 298.50 522.89" xmlns="http://www.w3.org/2000/svg" xmlns:xlink="http://www.w3.org/1999/xlink">
<g id="graph0" class="graph" transform="scale(1 1) rotate(0) translate(4 518.89)">
<polygon fill="white" stroke="none" points="-4,4 -4,-518.89 294.5,-518.89 294.5,4 -4,4"/>
<text text-anchor="middle" x="145.25" y="-495.69" font-family="Helvetica,sans-Serif" font-weight="bold" font-size="16.00">db.users.include(&#39;posts&#39;).all()</text>
<!-- start -->
<g id="node1" class="node">
<title>start</title>
<ellipse fill="white" stroke="black" cx="210.12" cy="-466.78" rx="23.6" ry="23.6"/>
<text text-anchor="middle" x="210.12" y="-462.33" font-family="Helvetica,sans-Serif" font-size="11.00">Start</text>
</g>
<!-- cs_users_0 -->
<g id="node2" class="node">
<title>cs_users_0</title>
<polygon fill="#e5e5e5" stroke="#999999" points="218.5,-406.18 129.75,-406.18 129.75,-370.18 218.5,-370.18 218.5,-406.18"/>
<text text-anchor="middle" x="174.12" y="-389.73" font-family="Helvetica,sans-Serif" font-size="11.00" fill="#666666">CollectionState</text>
<text text-anchor="middle" x="174.12" y="-377.73" font-family="Helvetica,sans-Serif" font-size="11.00" fill="#666666">(users, 0)</text>
</g>
<!-- cs_users_0&#45;&gt;start -->
<g id="edge1" class="edge">
<title>cs_users_0&#45;&gt;start</title>
<path fill="none" stroke="#999999" d="M182.29,-406.56C186.18,-414.84 190.95,-424.99 195.44,-434.54"/>
<polygon fill="#999999" stroke="#999999" points="192.26,-436 199.68,-443.56 198.59,-433.02 192.26,-436"/>
</g>
<!-- cs_posts_0 -->
<g id="node3" class="node">
<title>cs_posts_0</title>
<polygon fill="#e5e5e5" stroke="#999999" points="290.5,-333.18 201.75,-333.18 201.75,-297.18 290.5,-297.18 290.5,-333.18"/>
<text text-anchor="middle" x="246.12" y="-316.73" font-family="Helvetica,sans-Serif" font-size="11.00" fill="#666666">CollectionState</text>
<text text-anchor="middle" x="246.12" y="-304.73" font-family="Helvetica,sans-Serif" font-size="11.00" fill="#666666">(posts, 0)</text>
</g>
<!-- cs_posts_0&#45;&gt;start -->
<g id="edge2" class="edge">
<title>cs_posts_0&#45;&gt;start</title>
<path fill="none" stroke="#999999" d="M242.84,-333.52C239.3,-351.7 233.35,-381.07 227.12,-406.18 224.97,-414.9 222.41,-424.26 219.94,-432.93"/>
<polygon fill="#999999" stroke="#999999" points="216.63,-431.77 217.21,-442.35 223.36,-433.72 216.63,-431.77"/>
</g>
<!-- read_users -->
<g id="node4" class="node">
<title>read_users</title>
<polygon fill="#dae8fc" stroke="#6c8ebf" points="66.25,-333.18 0,-333.18 0,-297.18 66.25,-297.18 66.25,-333.18"/>
<text text-anchor="middle" x="33.12" y="-316.73" font-family="Helvetica,sans-Serif" font-size="11.00">Read</text>
<text text-anchor="middle" x="33.12" y="-304.73" font-family="Helvetica,sans-Serif" font-size="11.00">(users, [*])</text>
</g>
<!-- read_users&#45;&gt;cs_users_0 -->
<g id="edge3" class="edge">
<title>read_users&#45;&gt;cs_users_0</title>
<path fill="none" stroke="#999999" d="M66.54,-333.01C85.35,-342.48 109.08,-354.43 129.47,-364.7"/>
<polygon fill="#999999" stroke="#999999" points="127.62,-367.68 138.13,-369.05 130.77,-361.43 127.62,-367.68"/>
</g>
<!-- read_posts -->
<g id="node5" class="node">
<title>read_posts</title>
<polygon fill="#dae8fc" stroke="#6c8ebf" points="110.88,-241.68 45.38,-241.68 45.38,-205.68 110.88,-205.68 110.88,-241.68"/>
<text text-anchor="middle" x="78.12" y="-225.23" font-family="Helvetica,sans-Serif" font-size="11.00">Read</text>
<text text-anchor="middle" x="78.12" y="-213.23" font-family="Helvetica,sans-Serif" font-size="11.00">(posts, [*])</text>
</g>
<!-- read_posts&#45;&gt;cs_posts_0 -->
<g id="edge5" class="edge">
<title>read_posts&#45;&gt;cs_posts_0</title>
<path fill="none" stroke="#999999" d="M110.92,-242.15C137.4,-256.26 174.85,-276.21 203.63,-291.54"/>
<polygon fill="#999999" stroke="#999999" points="201.61,-294.43 212.08,-296.04 204.9,-288.25 201.61,-294.43"/>
</g>
<!-- read_posts&#45;&gt;read_users -->
<g id="edge4" class="edge">
<title>read_posts&#45;&gt;read_users</title>
<path fill="none" stroke="#2196f3" d="M49.15,-242.09C43.33,-247.01 37.98,-252.91 34.62,-259.68 30.72,-267.55 29.45,-276.88 29.42,-285.57"/>
<polygon fill="#2196f3" stroke="#2196f3" points="25.91,-285.52 29.93,-295.33 32.9,-285.16 25.91,-285.52"/>
<text text-anchor="middle" x="84.88" y="-270.63" font-family="Helvetica,sans-Serif" font-size="9.00" fill="#2196f3">FilterData</text>
<text text-anchor="middle" x="84.88" y="-260.88" font-family="Helvetica,sans-Serif" font-size="9.00" fill="#2196f3">(users.id &#45;&gt; posts.userId)</text>
</g>
<!-- nest -->
<g id="node6" class="node">
<title>nest</title>
<polygon fill="#d5e8d4" stroke="#82b366" points="130,-159.93 26.25,-159.93 26.25,-103.93 130,-103.93 130,-159.93"/>
<text text-anchor="middle" x="78.12" y="-145.48" font-family="Helvetica,sans-Serif" font-size="11.00">Nest</text>
<text text-anchor="middle" x="78.12" y="-133.48" font-family="Helvetica,sans-Serif" font-size="11.00">leftKeys=[id]</text>
<text text-anchor="middle" x="78.12" y="-121.48" font-family="Helvetica,sans-Serif" font-size="11.00">rightKeys=[userId]</text>
<text text-anchor="middle" x="78.12" y="-109.48" font-family="Helvetica,sans-Serif" font-size="11.00">field=posts</text>
</g>
<!-- nest&#45;&gt;read_users -->
<g id="edge6" class="edge">
<title>nest&#45;&gt;read_users</title>
<path fill="none" stroke="#999999" d="M51.34,-160.21C40.68,-172.94 29.65,-188.95 24.12,-205.68 15.48,-231.85 19.6,-263.4 24.75,-285.72"/>
<polygon fill="#999999" stroke="#999999" points="21.33,-286.48 27.19,-295.31 28.11,-284.75 21.33,-286.48"/>
<text text-anchor="middle" x="30.12" y="-220.01" font-family="Helvetica,sans-Serif" font-size="9.00">left</text>
</g>
<!-- nest&#45;&gt;read_posts -->
<g id="edge7" class="edge">
<title>nest&#45;&gt;read_posts</title>
<path fill="none" stroke="#999999" d="M78.12,-160.35C78.12,-170.98 78.12,-183.17 78.12,-193.93"/>
<polygon fill="#999999" stroke="#999999" points="74.63,-193.8 78.13,-203.8 81.63,-193.8 74.63,-193.8"/>
<text text-anchor="middle" x="87.12" y="-179.13" font-family="Helvetica,sans-Serif" font-size="9.00">right</text>
</g>
<!-- ret -->
<g id="node7" class="node">
<title>ret</title>
<ellipse fill="black" stroke="black" cx="174.12" cy="-33.47" rx="29.47" ry="29.47"/>
<ellipse fill="none" stroke="black" cx="174.12" cy="-33.47" rx="33.47" ry="33.47"/>
<text text-anchor="middle" x="174.12" y="-29.02" font-family="Helvetica,sans-Serif" font-size="11.00" fill="white">Return</text>
</g>
<!-- ret&#45;&gt;cs_users_0 -->
<g id="edge9" class="edge">
<title>ret&#45;&gt;cs_users_0</title>
<path fill="none" stroke="#999999" stroke-dasharray="5,2" d="M174.12,-67.06C174.12,-85.75 174.12,-109.66 174.12,-130.93 174.12,-130.93 174.12,-130.93 174.12,-316.18 174.12,-330.1 174.12,-345.55 174.12,-358.48"/>
<polygon fill="#999999" stroke="#999999" points="170.63,-358.45 174.13,-368.45 177.63,-358.45 170.63,-358.45"/>
</g>
<!-- ret&#45;&gt;cs_posts_0 -->
<g id="edge10" class="edge">
<title>ret&#45;&gt;cs_posts_0</title>
<path fill="none" stroke="#999999" stroke-dasharray="5,2" d="M183.05,-66.2C184.76,-72.41 186.52,-78.87 188.12,-84.93 207.27,-157.11 228.49,-242.46 239.17,-285.82"/>
<polygon fill="#999999" stroke="#999999" points="235.74,-286.55 241.53,-295.42 242.54,-284.87 235.74,-286.55"/>
</g>
<!-- ret&#45;&gt;nest -->
<g id="edge8" class="edge">
<title>ret&#45;&gt;nest</title>
<path fill="none" stroke="#999999" d="M150.89,-57.82C139.6,-69.16 125.79,-83.03 113.25,-95.63"/>
<polygon fill="#999999" stroke="#999999" points="110.87,-93.06 106.3,-102.62 115.84,-98 110.87,-93.06"/>
</g>
</g>
</svg>
