<?xml version="1.0" encoding="UTF-8" standalone="no"?>
<!DOCTYPE svg PUBLIC "-//W3C//DTD SVG 1.1//EN"
 "http://www.w3.org/Graphics/SVG/1.1/DTD/svg11.dtd">
<!-- Generated by graphviz version 12.2.1 (0)
 -->
<!-- Pages: 1 -->
<svg width="359pt" height="531pt"
 viewBox="0.00 0.00 359.25 530.89" xmlns="http://www.w3.org/2000/svg" xmlns:xlink="http://www.w3.org/1999/xlink">
<g id="graph0" class="graph" transform="scale(1 1) rotate(0) translate(4 526.89)">
<polygon fill="white" stroke="none" points="-4,4 -4,-526.89 355.25,-526.89 355.25,4 -4,4"/>
<text text-anchor="middle" x="175.62" y="-503.69" font-family="Helvetica,sans-Serif" font-weight="bold" font-size="16.00">db.users.include(&#39;posts&#39;, p =&gt; p.count()).all()</text>
<!-- start -->
<g id="node1" class="node">
<title>start</title>
<ellipse fill="white" stroke="black" cx="240.5" cy="-474.78" rx="23.6" ry="23.6"/>
<text text-anchor="middle" x="240.5" y="-470.33" font-family="Helvetica,sans-Serif" font-size="11.00">Start</text>
</g>
<!-- cs_users_0 -->
<g id="node2" class="node">
<title>cs_users_0</title>
<polygon fill="#e5e5e5" stroke="#999999" points="248.88,-414.18 160.12,-414.18 160.12,-378.18 248.88,-378.18 248.88,-414.18"/>
<text text-anchor="middle" x="204.5" y="-397.73" font-family="Helvetica,sans-Serif" font-size="11.00" fill="#666666">CollectionState</text>
<text text-anchor="middle" x="204.5" y="-385.73" font-family="Helvetica,sans-Serif" font-size="11.00" fill="#666666">(users, 0)</text>
</g>
<!-- cs_users_0&#45;&gt;start -->
<g id="edge1" class="edge">
<title>cs_users_0&#45;&gt;start</title>
<path fill="none" stroke="#999999" d="M212.67,-414.56C216.56,-422.84 221.33,-432.99 225.82,-442.54"/>
<polygon fill="#999999" stroke="#999999" points="222.63,-444 230.06,-451.56 228.97,-441.02 222.63,-444"/>
</g>
<!-- cs_posts_0 -->
<g id="node3" class="node">
<title>cs_posts_0</title>
<polygon fill="#e5e5e5" stroke="#999999" points="320.88,-341.18 232.12,-341.18 232.12,-305.18 320.88,-305.18 320.88,-341.18"/>
<text text-anchor="middle" x="276.5" y="-324.73" font-family="Helvetica,sans-Serif" font-size="11.00" fill="#666666">CollectionState</text>
<text text-anchor="middle" x="276.5" y="-312.73" font-family="Helvetica,sans-Serif" font-size="11.00" fill="#666666">(posts, 0)</text>
</g>
<!-- cs_posts_0&#45;&gt;start -->
<g id="edge2" class="edge">
<title>cs_posts_0&#45;&gt;start</title>
<path fill="none" stroke="#999999" d="M273.21,-341.52C269.68,-359.7 263.72,-389.07 257.5,-414.18 255.34,-422.9 252.78,-432.26 250.32,-440.93"/>
<polygon fill="#999999" stroke="#999999" points="247.01,-439.77 247.59,-450.35 253.73,-441.72 247.01,-439.77"/>
</g>
<!-- read_users -->
<g id="node4" class="node">
<title>read_users</title>
<polygon fill="#dae8fc" stroke="#6c8ebf" points="96.62,-341.18 30.38,-341.18 30.38,-305.18 96.62,-305.18 96.62,-341.18"/>
<text text-anchor="middle" x="63.5" y="-324.73" font-family="Helvetica,sans-Serif" font-size="11.00">Read</text>
<text text-anchor="middle" x="63.5" y="-312.73" font-family="Helvetica,sans-Serif" font-size="11.00">(users, [*])</text>
</g>
<!-- read_users&#45;&gt;cs_users_0 -->
<g id="edge3" class="edge">
<title>read_users&#45;&gt;cs_users_0</title>
<path fill="none" stroke="#999999" d="M96.92,-341.01C115.73,-350.48 139.46,-362.43 159.85,-372.7"/>
<polygon fill="#999999" stroke="#999999" points="157.99,-375.68 168.5,-377.05 161.14,-369.43 157.99,-375.68"/>
</g>
<!-- agg_posts -->
<g id="node5" class="node">
<title>agg_posts</title>
<polygon fill="#e0f2f1" stroke="#4db6ac" points="170,-249.68 67,-249.68 67,-205.68 170,-205.68 170,-249.68"/>
<text text-anchor="middle" x="118.5" y="-235.23" font-family="Helvetica,sans-Serif" font-size="11.00">Aggregate</text>
<text text-anchor="middle" x="118.5" y="-223.23" font-family="Helvetica,sans-Serif" font-size="11.00">(posts, fn=count</text>
<text text-anchor="middle" x="118.5" y="-211.23" font-family="Helvetica,sans-Serif" font-size="11.00">groupBy=[userId])</text>
</g>
<!-- agg_posts&#45;&gt;cs_posts_0 -->
<g id="edge5" class="edge">
<title>agg_posts&#45;&gt;cs_posts_0</title>
<path fill="none" stroke="#999999" d="M154.75,-250.13C179.44,-264.74 212.11,-284.08 237.39,-299.03"/>
<polygon fill="#999999" stroke="#999999" points="235.34,-301.89 245.72,-303.97 238.9,-295.86 235.34,-301.89"/>
</g>
<!-- agg_posts&#45;&gt;read_users -->
<g id="edge4" class="edge">
<title>agg_posts&#45;&gt;read_users</title>
<path fill="none" stroke="#2196f3" d="M79.67,-250.15C73.8,-255.12 68.53,-260.97 65,-267.68 60.91,-275.46 59.59,-284.76 59.57,-293.46"/>
<polygon fill="#2196f3" stroke="#2196f3" points="56.06,-293.45 60.12,-303.23 63.05,-293.05 56.06,-293.45"/>
<text text-anchor="middle" x="115.25" y="-278.63" font-family="Helvetica,sans-Serif" font-size="9.00" fill="#2196f3">FilterData</text>
<text text-anchor="middle" x="115.25" y="-268.88" font-family="Helvetica,sans-Serif" font-size="9.00" fill="#2196f3">(users.id &#45;&gt; posts.userId)</text>
</g>
<!-- nest -->
<g id="node6" class="node">
<title>nest</title>
<polygon fill="#d5e8d4" stroke="#82b366" points="170.38,-159.93 66.62,-159.93 66.62,-103.93 170.38,-103.93 170.38,-159.93"/>
<text text-anchor="middle" x="118.5" y="-145.48" font-family="Helvetica,sans-Serif" font-size="11.00">Nest</text>
<text text-anchor="middle" x="118.5" y="-133.48" font-family="Helvetica,sans-Serif" font-size="11.00">leftKeys=[id]</text>
<text text-anchor="middle" x="118.5" y="-121.48" font-family="Helvetica,sans-Serif" font-size="11.00">rightKeys=[userId]</text>
<text text-anchor="middle" x="118.5" y="-109.48" font-family="Helvetica,sans-Serif" font-size="11.00">field=posts</text>
</g>
<!-- nest&#45;&gt;read_users -->
<g id="edge6" class="edge">
<title>nest&#45;&gt;read_users</title>
<path fill="none" stroke="#999999" d="M80.56,-160.21C66.8,-172.39 52.84,-188 45.5,-205.68 33.58,-234.4 42.15,-270.07 51.08,-294.32"/>
<polygon fill="#999999" stroke="#999999" points="47.78,-295.49 54.72,-303.5 54.29,-292.91 47.78,-295.49"/>
<text text-anchor="middle" x="51.5" y="-224.01" font-family="Helvetica,sans-Serif" font-size="9.00">left</text>
</g>
<!-- nest&#45;&gt;agg_posts -->
<g id="edge7" class="edge">
<title>nest&#45;&gt;agg_posts</title>
<path fill="none" stroke="#999999" d="M118.5,-160.3C118.5,-170.86 118.5,-183.02 118.5,-194.03"/>
<polygon fill="#999999" stroke="#999999" points="115,-193.88 118.5,-203.88 122,-193.88 115,-193.88"/>
<text text-anchor="middle" x="127.5" y="-179.13" font-family="Helvetica,sans-Serif" font-size="9.00">right</text>
</g>
<!-- ret -->
<g id="node7" class="node">
<title>ret</title>
<ellipse fill="black" stroke="black" cx="204.5" cy="-33.47" rx="29.47" ry="29.47"/>
<ellipse fill="none" stroke="black" cx="204.5" cy="-33.47" rx="33.47" ry="33.47"/>
<text text-anchor="middle" x="204.5" y="-29.02" font-family="Helvetica,sans-Serif" font-size="11.00" fill="white">Return</text>
</g>
<!-- ret&#45;&gt;cs_users_0 -->
<g id="edge9" class="edge">
<title>ret&#45;&gt;cs_users_0</title>
<path fill="none" stroke="#999999" stroke-dasharray="5,2" d="M204.5,-67.06C204.5,-85.75 204.5,-109.66 204.5,-130.93 204.5,-130.93 204.5,-130.93 204.5,-324.18 204.5,-338.1 204.5,-353.55 204.5,-366.48"/>
<polygon fill="#999999" stroke="#999999" points="201,-366.45 204.5,-376.45 208,-366.45 201,-366.45"/>
</g>
<!-- ret&#45;&gt;cs_posts_0 -->
<g id="edge10" class="edge">
<title>ret&#45;&gt;cs_posts_0</title>
<path fill="none" stroke="#999999" stroke-dasharray="5,2" d="M213.46,-66.19C215.17,-72.4 216.92,-78.86 218.5,-84.93 238.11,-160.1 259.36,-249.18 269.85,-293.77"/>
<polygon fill="#999999" stroke="#999999" points="266.42,-294.46 272.11,-303.4 273.24,-292.86 266.42,-294.46"/>
</g>
<!-- ret&#45;&gt;nest -->
<g id="edge8" class="edge">
<title>ret&#45;&gt;nest</title>
<path fill="none" stroke="#999999" d="M182.58,-59.06C172.81,-70.02 161.11,-83.14 150.39,-95.16"/>
<polygon fill="#999999" stroke="#999999" points="147.86,-92.74 143.82,-102.53 153.08,-97.4 147.86,-92.74"/>
</g>
</g>
</svg>
