<?xml version="1.0" encoding="UTF-8" standalone="no"?>
<!DOCTYPE svg PUBLIC "-//W3C//DTD SVG 1.1//EN"
 "http://www.w3.org/Graphics/SVG/1.1/DTD/svg11.dtd">
<!-- Generated by graphviz version 12.2.1 (0)
 -->
<!-- Pages: 1 -->
<svg width="486pt" height="625pt"
 viewBox="0.00 0.00 485.75 624.64" xmlns="http://www.w3.org/2000/svg" xmlns:xlink="http://www.w3.org/1999/xlink">
<g id="graph0" class="graph" transform="scale(1 1) rotate(0) translate(4 620.64)">
<polygon fill="white" stroke="none" points="-4,4 -4,-620.64 481.75,-620.64 481.75,4 -4,4"/>
<text text-anchor="middle" x="238.88" y="-597.44" font-family="Helvetica,sans-Serif" font-weight="bold" font-size="16.00">db.users.include(&#39;posts&#39;).include(&#39;profile&#39;).all()</text>
<!-- start -->
<g id="node1" class="node">
<title>start</title>
<ellipse fill="white" stroke="black" cx="186.38" cy="-568.53" rx="23.6" ry="23.6"/>
<text text-anchor="middle" x="186.38" y="-564.08" font-family="Helvetica,sans-Serif" font-size="11.00">Start</text>
</g>
<!-- cs_users_0 -->
<g id="node2" class="node">
<title>cs_users_0</title>
<polygon fill="#e5e5e5" stroke="#999999" points="230.75,-507.93 142,-507.93 142,-471.93 230.75,-471.93 230.75,-507.93"/>
<text text-anchor="middle" x="186.38" y="-491.48" font-family="Helvetica,sans-Serif" font-size="11.00" fill="#666666">CollectionState</text>
<text text-anchor="middle" x="186.38" y="-479.48" font-family="Helvetica,sans-Serif" font-size="11.00" fill="#666666">(users, 0)</text>
</g>
<!-- cs_users_0&#45;&gt;start -->
<g id="edge1" class="edge">
<title>cs_users_0&#45;&gt;start</title>
<path fill="none" stroke="#999999" d="M186.38,-508.31C186.38,-515.72 186.38,-524.63 186.38,-533.26"/>
<polygon fill="#999999" stroke="#999999" points="182.88,-533.18 186.38,-543.18 189.88,-533.18 182.88,-533.18"/>
</g>
<!-- cs_posts_0 -->
<g id="node3" class="node">
<title>cs_posts_0</title>
<polygon fill="#e5e5e5" stroke="#999999" points="477.75,-434.93 389,-434.93 389,-398.93 477.75,-398.93 477.75,-434.93"/>
<text text-anchor="middle" x="433.38" y="-418.48" font-family="Helvetica,sans-Serif" font-size="11.00" fill="#666666">CollectionState</text>
<text text-anchor="middle" x="433.38" y="-406.48" font-family="Helvetica,sans-Serif" font-size="11.00" fill="#666666">(posts, 0)</text>
</g>
<!-- cs_posts_0&#45;&gt;start -->
<g id="edge2" class="edge">
<title>cs_posts_0&#45;&gt;start</title>
<path fill="none" stroke="#999999" d="M404.56,-435.39C357.37,-463.96 264.1,-520.46 216.24,-549.44"/>
<polygon fill="#999999" stroke="#999999" points="214.51,-546.4 207.77,-554.58 218.14,-552.39 214.51,-546.4"/>
</g>
<!-- cs_profiles_0 -->
<g id="node4" class="node">
<title>cs_profiles_0</title>
<polygon fill="#e5e5e5" stroke="#999999" points="88.75,-343.43 0,-343.43 0,-307.43 88.75,-307.43 88.75,-343.43"/>
<text text-anchor="middle" x="44.38" y="-326.98" font-family="Helvetica,sans-Serif" font-size="11.00" fill="#666666">CollectionState</text>
<text text-anchor="middle" x="44.38" y="-314.98" font-family="Helvetica,sans-Serif" font-size="11.00" fill="#666666">(profiles, 0)</text>
</g>
<!-- cs_profiles_0&#45;&gt;start -->
<g id="edge3" class="edge">
<title>cs_profiles_0&#45;&gt;start</title>
<path fill="none" stroke="#999999" d="M50.6,-343.75C63.15,-377.33 93.7,-452.82 133.38,-507.93 142.1,-520.05 152.87,-532.53 162.43,-542.92"/>
<polygon fill="#999999" stroke="#999999" points="159.67,-545.09 169.06,-550 164.77,-540.31 159.67,-545.09"/>
</g>
<!-- read_users -->
<g id="node5" class="node">
<title>read_users</title>
<polygon fill="#dae8fc" stroke="#6c8ebf" points="293.5,-434.93 227.25,-434.93 227.25,-398.93 293.5,-398.93 293.5,-434.93"/>
<text text-anchor="middle" x="260.38" y="-418.48" font-family="Helvetica,sans-Serif" font-size="11.00">Read</text>
<text text-anchor="middle" x="260.38" y="-406.48" font-family="Helvetica,sans-Serif" font-size="11.00">(users, [*])</text>
</g>
<!-- read_users&#45;&gt;cs_users_0 -->
<g id="edge4" class="edge">
<title>read_users&#45;&gt;cs_users_0</title>
<path fill="none" stroke="#999999" d="M242.46,-435.12C233.53,-443.69 222.55,-454.22 212.69,-463.69"/>
<polygon fill="#999999" stroke="#999999" points="210.26,-461.16 205.47,-470.61 215.11,-466.21 210.26,-461.16"/>
</g>
<!-- read_posts -->
<g id="node6" class="node">
<title>read_posts</title>
<polygon fill="#dae8fc" stroke="#6c8ebf" points="405.12,-343.43 339.62,-343.43 339.62,-307.43 405.12,-307.43 405.12,-343.43"/>
<text text-anchor="middle" x="372.38" y="-326.98" font-family="Helvetica,sans-Serif" font-size="11.00">Read</text>
<text text-anchor="middle" x="372.38" y="-314.98" font-family="Helvetica,sans-Serif" font-size="11.00">(posts, [*])</text>
</g>
<!-- read_posts&#45;&gt;cs_posts_0 -->
<g id="edge6" class="edge">
<title>read_posts&#45;&gt;cs_posts_0</title>
<path fill="none" stroke="#999999" d="M402.04,-343.73C408.55,-348.72 414.84,-354.67 419.38,-361.43 424.52,-369.1 427.78,-378.54 429.84,-387.4"/>
<polygon fill="#999999" stroke="#999999" points="426.36,-387.83 431.63,-397.02 433.24,-386.54 426.36,-387.83"/>
</g>
<!-- read_posts&#45;&gt;read_users -->
<g id="edge5" class="edge">
<title>read_posts&#45;&gt;read_users</title>
<path fill="none" stroke="#2196f3" d="M340.74,-343.84C332.07,-349.09 322.87,-355.15 314.88,-361.43 314.77,-361.52 300.08,-376.2 285.98,-390.31"/>
<polygon fill="#2196f3" stroke="#2196f3" points="283.53,-387.81 278.93,-397.36 288.48,-392.76 283.53,-387.81"/>
<text text-anchor="middle" x="365.12" y="-372.38" font-family="Helvetica,sans-Serif" font-size="9.00" fill="#2196f3">FilterData</text>
<text text-anchor="middle" x="365.12" y="-362.63" font-family="Helvetica,sans-Serif" font-size="9.00" fill="#2196f3">(users.id &#45;&gt; posts.userId)</text>
</g>
<!-- read_profiles -->
<g id="node7" class="node">
<title>read_profiles</title>
<polygon fill="#dae8fc" stroke="#6c8ebf" points="217.62,-251.68 143.12,-251.68 143.12,-215.68 217.62,-215.68 217.62,-251.68"/>
<text text-anchor="middle" x="180.38" y="-235.23" font-family="Helvetica,sans-Serif" font-size="11.00">Read</text>
<text text-anchor="middle" x="180.38" y="-223.23" font-family="Helvetica,sans-Serif" font-size="11.00">(profiles, [*])</text>
</g>
<!-- read_profiles&#45;&gt;cs_profiles_0 -->
<g id="edge8" class="edge">
<title>read_profiles&#45;&gt;cs_profiles_0</title>
<path fill="none" stroke="#999999" d="M154.15,-251.99C133.08,-265.89 103.27,-285.57 80.03,-300.9"/>
<polygon fill="#999999" stroke="#999999" points="78.2,-297.92 71.78,-306.35 82.05,-303.76 78.2,-297.92"/>
</g>
<!-- read_profiles&#45;&gt;read_users -->
<g id="edge7" class="edge">
<title>read_profiles&#45;&gt;read_users</title>
<path fill="none" stroke="#2196f3" d="M172.83,-251.86C164.23,-274.15 153.13,-313.7 167.62,-343.43 178.07,-364.86 198.26,-381.82 217.14,-393.93"/>
<polygon fill="#2196f3" stroke="#2196f3" points="215.18,-396.83 225.54,-399.03 218.81,-390.85 215.18,-396.83"/>
<text text-anchor="middle" x="222" y="-326.63" font-family="Helvetica,sans-Serif" font-size="9.00" fill="#2196f3">FilterData</text>
<text text-anchor="middle" x="222" y="-316.88" font-family="Helvetica,sans-Serif" font-size="9.00" fill="#2196f3">(users.id &#45;&gt; profiles.userId)</text>
</g>
<!-- nest_posts -->
<g id="node8" class="node">
<title>nest_posts</title>
<polygon fill="#d5e8d4" stroke="#82b366" points="361.25,-261.68 257.5,-261.68 257.5,-205.68 361.25,-205.68 361.25,-261.68"/>
<text text-anchor="middle" x="309.38" y="-247.23" font-family="Helvetica,sans-Serif" font-size="11.00">Nest</text>
<text text-anchor="middle" x="309.38" y="-235.23" font-family="Helvetica,sans-Serif" font-size="11.00">leftKeys=[id]</text>
<text text-anchor="middle" x="309.38" y="-223.23" font-family="Helvetica,sans-Serif" font-size="11.00">rightKeys=[userId]</text>
<text text-anchor="middle" x="309.38" y="-211.23" font-family="Helvetica,sans-Serif" font-size="11.00">field=posts</text>
</g>
<!-- nest_posts&#45;&gt;read_users -->
<g id="edge9" class="edge">
<title>nest_posts&#45;&gt;read_users</title>
<path fill="none" stroke="#999999" d="M302.04,-261.82C292.88,-295.71 277.28,-353.41 267.99,-387.78"/>
<polygon fill="#999999" stroke="#999999" points="264.72,-386.44 265.49,-397 271.48,-388.26 264.72,-386.44"/>
<text text-anchor="middle" x="294.94" y="-321.76" font-family="Helvetica,sans-Serif" font-size="9.00">left</text>
</g>
<!-- nest_posts&#45;&gt;read_posts -->
<g id="edge10" class="edge">
<title>nest_posts&#45;&gt;read_posts</title>
<path fill="none" stroke="#999999" d="M328.62,-262.1C336.57,-273.42 345.75,-286.5 353.64,-297.75"/>
<polygon fill="#999999" stroke="#999999" points="350.71,-299.65 359.32,-305.83 356.44,-295.63 350.71,-299.65"/>
<text text-anchor="middle" x="355.52" y="-280.88" font-family="Helvetica,sans-Serif" font-size="9.00">right</text>
</g>
<!-- nest_profile -->
<g id="node9" class="node">
<title>nest_profile</title>
<polygon fill="#d5e8d4" stroke="#82b366" points="247.25,-159.93 143.5,-159.93 143.5,-103.93 247.25,-103.93 247.25,-159.93"/>
<text text-anchor="middle" x="195.38" y="-145.48" font-family="Helvetica,sans-Serif" font-size="11.00">Nest</text>
<text text-anchor="middle" x="195.38" y="-133.48" font-family="Helvetica,sans-Serif" font-size="11.00">leftKeys=[id]</text>
<text text-anchor="middle" x="195.38" y="-121.48" font-family="Helvetica,sans-Serif" font-size="11.00">rightKeys=[userId]</text>
<text text-anchor="middle" x="195.38" y="-109.48" font-family="Helvetica,sans-Serif" font-size="11.00">field=profile</text>
</g>
<!-- nest_profile&#45;&gt;read_profiles -->
<g id="edge12" class="edge">
<title>nest_profile&#45;&gt;read_profiles</title>
<path fill="none" stroke="#999999" d="M191.28,-160.19C189.24,-173.75 186.77,-190.15 184.7,-203.91"/>
<polygon fill="#999999" stroke="#999999" points="181.26,-203.29 183.23,-213.7 188.18,-204.33 181.26,-203.29"/>
<text text-anchor="middle" x="197.32" y="-179.13" font-family="Helvetica,sans-Serif" font-size="9.00">right</text>
</g>
<!-- nest_profile&#45;&gt;nest_posts -->
<g id="edge11" class="edge">
<title>nest_profile&#45;&gt;nest_posts</title>
<path fill="none" stroke="#999999" d="M226.53,-160.19C239.85,-171.84 255.56,-185.59 269.7,-197.96"/>
<polygon fill="#999999" stroke="#999999" points="267.29,-200.51 277.12,-204.46 271.9,-195.24 267.29,-200.51"/>
<text text-anchor="middle" x="261.79" y="-179.13" font-family="Helvetica,sans-Serif" font-size="9.00">left</text>
</g>
<!-- ret -->
<g id="node10" class="node">
<title>ret</title>
<ellipse fill="black" stroke="black" cx="155.38" cy="-33.47" rx="29.47" ry="29.47"/>
<ellipse fill="none" stroke="black" cx="155.38" cy="-33.47" rx="33.47" ry="33.47"/>
<text text-anchor="middle" x="155.38" y="-29.02" font-family="Helvetica,sans-Serif" font-size="11.00" fill="white">Return</text>
</g>
<!-- ret&#45;&gt;cs_users_0 -->
<g id="edge14" class="edge">
<title>ret&#45;&gt;cs_users_0</title>
<path fill="none" stroke="#999999" stroke-dasharray="5,2" d="M143.98,-65.14C140.12,-77.07 136.29,-90.97 134.38,-103.93 124.12,-173.29 126.51,-192.01 134.38,-261.68 142.6,-334.47 165.18,-417.92 177.71,-460.58"/>
<polygon fill="#999999" stroke="#999999" points="174.32,-461.45 180.53,-470.03 181.03,-459.45 174.32,-461.45"/>
</g>
<!-- ret&#45;&gt;cs_posts_0 -->
<g id="edge15" class="edge">
<title>ret&#45;&gt;cs_posts_0</title>
<path fill="none" stroke="#999999" stroke-dasharray="5,2" d="M188.96,-37.95C267.85,-47.07 458.38,-74.9 458.38,-130.93 458.38,-130.93 458.38,-130.93 458.38,-326.43 458.38,-347.61 451.8,-370.59 445.4,-387.97"/>
<polygon fill="#999999" stroke="#999999" points="442.21,-386.5 441.84,-397.09 448.73,-389.05 442.21,-386.5"/>
</g>
<!-- ret&#45;&gt;cs_profiles_0 -->
<g id="edge16" class="edge">
<title>ret&#45;&gt;cs_profiles_0</title>
<path fill="none" stroke="#999999" stroke-dasharray="5,2" d="M128.52,-54.03C118.64,-62.5 108.21,-73.17 101.38,-84.93 61.45,-153.62 49.45,-248.84 45.88,-295.84"/>
<polygon fill="#999999" stroke="#999999" points="42.39,-295.5 45.21,-305.72 49.37,-295.98 42.39,-295.5"/>
</g>
<!-- ret&#45;&gt;nest_profile -->
<g id="edge13" class="edge">
<title>ret&#45;&gt;nest_profile</title>
<path fill="none" stroke="#999999" d="M167.92,-64.72C171.68,-73.8 175.86,-83.86 179.79,-93.34"/>
<polygon fill="#999999" stroke="#999999" points="176.45,-94.43 183.51,-102.33 182.92,-91.75 176.45,-94.43"/>
</g>
</g>
</svg>
