<?xml version="1.0" encoding="UTF-8" standalone="no"?>
<!DOCTYPE svg PUBLIC "-//W3C//DTD SVG 1.1//EN"
 "http://www.w3.org/Graphics/SVG/1.1/DTD/svg11.dtd">
<!-- Generated by graphviz version 12.2.1 (0)
 -->
<!-- Pages: 1 -->
<svg width="460pt" height="716pt"
 viewBox="0.00 0.00 459.75 716.14" xmlns="http://www.w3.org/2000/svg" xmlns:xlink="http://www.w3.org/1999/xlink">
<g id="graph0" class="graph" transform="scale(1 1) rotate(0) translate(4 712.14)">
<polygon fill="white" stroke="none" points="-4,4 -4,-712.14 455.75,-712.14 455.75,4 -4,4"/>
<text text-anchor="middle" x="225.88" y="-688.94" font-family="Helvetica,sans-Serif" font-weight="bold" font-size="16.00">db.users.include(&#39;posts&#39;, p =&gt; p.include(&#39;comments&#39;)).all()</text>
<!-- start -->
<g id="node1" class="node">
<title>start</title>
<ellipse fill="white" stroke="black" cx="204.56" cy="-660.03" rx="23.6" ry="23.6"/>
<text text-anchor="middle" x="204.56" y="-655.58" font-family="Helvetica,sans-Serif" font-size="11.00">Start</text>
</g>
<!-- cs_users_0 -->
<g id="node2" class="node">
<title>cs_users_0</title>
<polygon fill="#e5e5e5" stroke="#999999" points="375.94,-599.43 287.19,-599.43 287.19,-563.43 375.94,-563.43 375.94,-599.43"/>
<text text-anchor="middle" x="331.56" y="-582.98" font-family="Helvetica,sans-Serif" font-size="11.00" fill="#666666">CollectionState</text>
<text text-anchor="middle" x="331.56" y="-570.98" font-family="Helvetica,sans-Serif" font-size="11.00" fill="#666666">(users, 0)</text>
</g>
<!-- cs_users_0&#45;&gt;start -->
<g id="edge1" class="edge">
<title>cs_users_0&#45;&gt;start</title>
<path fill="none" stroke="#999999" d="M302.74,-599.81C282.33,-612.12 255.03,-628.59 234.4,-641.04"/>
<polygon fill="#999999" stroke="#999999" points="232.63,-638.02 225.87,-646.18 236.24,-644.01 232.63,-638.02"/>
</g>
<!-- cs_posts_0 -->
<g id="node3" class="node">
<title>cs_posts_0</title>
<polygon fill="#e5e5e5" stroke="#999999" points="248.94,-526.43 160.19,-526.43 160.19,-490.43 248.94,-490.43 248.94,-526.43"/>
<text text-anchor="middle" x="204.56" y="-509.98" font-family="Helvetica,sans-Serif" font-size="11.00" fill="#666666">CollectionState</text>
<text text-anchor="middle" x="204.56" y="-497.98" font-family="Helvetica,sans-Serif" font-size="11.00" fill="#666666">(posts, 0)</text>
</g>
<!-- cs_posts_0&#45;&gt;start -->
<g id="edge2" class="edge">
<title>cs_posts_0&#45;&gt;start</title>
<path fill="none" stroke="#999999" d="M204.56,-526.89C204.56,-550.77 204.56,-594.15 204.56,-624.67"/>
<polygon fill="#999999" stroke="#999999" points="201.06,-624.56 204.56,-634.56 208.06,-624.56 201.06,-624.56"/>
</g>
<!-- cs_comments_0 -->
<g id="node4" class="node">
<title>cs_comments_0</title>
<polygon fill="#e5e5e5" stroke="#999999" points="131.94,-434.93 43.19,-434.93 43.19,-398.93 131.94,-398.93 131.94,-434.93"/>
<text text-anchor="middle" x="87.56" y="-418.48" font-family="Helvetica,sans-Serif" font-size="11.00" fill="#666666">CollectionState</text>
<text text-anchor="middle" x="87.56" y="-406.48" font-family="Helvetica,sans-Serif" font-size="11.00" fill="#666666">(comments, 0)</text>
</g>
<!-- cs_comments_0&#45;&gt;start -->
<g id="edge3" class="edge">
<title>cs_comments_0&#45;&gt;start</title>
<path fill="none" stroke="#999999" d="M95.98,-435.27C115.64,-475.79 164.82,-577.14 189.68,-628.37"/>
<polygon fill="#999999" stroke="#999999" points="186.42,-629.67 193.94,-637.14 192.72,-626.61 186.42,-629.67"/>
</g>
<!-- read_users -->
<g id="node5" class="node">
<title>read_users</title>
<polygon fill="#dae8fc" stroke="#6c8ebf" points="364.69,-526.43 298.44,-526.43 298.44,-490.43 364.69,-490.43 364.69,-526.43"/>
<text text-anchor="middle" x="331.56" y="-509.98" font-family="Helvetica,sans-Serif" font-size="11.00">Read</text>
<text text-anchor="middle" x="331.56" y="-497.98" font-family="Helvetica,sans-Serif" font-size="11.00">(users, [*])</text>
</g>
<!-- read_users&#45;&gt;cs_users_0 -->
<g id="edge4" class="edge">
<title>read_users&#45;&gt;cs_users_0</title>
<path fill="none" stroke="#999999" d="M331.56,-526.62C331.56,-534.21 331.56,-543.33 331.56,-551.89"/>
<polygon fill="#999999" stroke="#999999" points="328.06,-551.89 331.56,-561.89 335.06,-551.89 328.06,-551.89"/>
</g>
<!-- read_posts -->
<g id="node6" class="node">
<title>read_posts</title>
<polygon fill="#dae8fc" stroke="#6c8ebf" points="271.31,-434.93 205.81,-434.93 205.81,-398.93 271.31,-398.93 271.31,-434.93"/>
<text text-anchor="middle" x="238.56" y="-418.48" font-family="Helvetica,sans-Serif" font-size="11.00">Read</text>
<text text-anchor="middle" x="238.56" y="-406.48" font-family="Helvetica,sans-Serif" font-size="11.00">(posts, [*])</text>
</g>
<!-- read_posts&#45;&gt;cs_posts_0 -->
<g id="edge6" class="edge">
<title>read_posts&#45;&gt;cs_posts_0</title>
<path fill="none" stroke="#999999" d="M232.01,-435.19C227.21,-447.82 220.6,-465.22 215.07,-479.77"/>
<polygon fill="#999999" stroke="#999999" points="211.91,-478.22 211.64,-488.81 218.46,-480.71 211.91,-478.22"/>
</g>
<!-- read_posts&#45;&gt;read_users -->
<g id="edge5" class="edge">
<title>read_posts&#45;&gt;read_users</title>
<path fill="none" stroke="#2196f3" d="M239.72,-435.19C241.33,-446.9 245.13,-462.08 254.06,-472.43 262.86,-482.63 275.24,-490.01 287.52,-495.28"/>
<polygon fill="#2196f3" stroke="#2196f3" points="286.2,-498.52 296.79,-498.84 288.71,-491.98 286.2,-498.52"/>
<text text-anchor="middle" x="304.31" y="-463.88" font-family="Helvetica,sans-Serif" font-size="9.00" fill="#2196f3">FilterData</text>
<text text-anchor="middle" x="304.31" y="-454.13" font-family="Helvetica,sans-Serif" font-size="9.00" fill="#2196f3">(users.id &#45;&gt; posts.userId)</text>
</g>
<!-- read_comments -->
<g id="node7" class="node">
<title>read_comments</title>
<polygon fill="#dae8fc" stroke="#6c8ebf" points="269.31,-343.43 179.81,-343.43 179.81,-307.43 269.31,-307.43 269.31,-343.43"/>
<text text-anchor="middle" x="224.56" y="-326.98" font-family="Helvetica,sans-Serif" font-size="11.00">Read</text>
<text text-anchor="middle" x="224.56" y="-314.98" font-family="Helvetica,sans-Serif" font-size="11.00">(comments, [*])</text>
</g>
<!-- read_comments&#45;&gt;cs_comments_0 -->
<g id="edge8" class="edge">
<title>read_comments&#45;&gt;cs_comments_0</title>
<path fill="none" stroke="#999999" d="M197.82,-343.9C176.7,-357.7 147.01,-377.09 123.76,-392.28"/>
<polygon fill="#999999" stroke="#999999" points="121.96,-389.28 115.5,-397.68 125.79,-395.14 121.96,-389.28"/>
</g>
<!-- read_comments&#45;&gt;read_posts -->
<g id="edge7" class="edge">
<title>read_comments&#45;&gt;read_posts</title>
<path fill="none" stroke="#2196f3" d="M214.75,-343.84C209.94,-354.65 206.01,-368.76 210.31,-380.93 211.33,-383.8 212.69,-386.61 214.26,-389.3"/>
<polygon fill="#2196f3" stroke="#2196f3" points="211.23,-391.07 219.83,-397.26 216.97,-387.06 211.23,-391.07"/>
<text text-anchor="middle" x="269.94" y="-372.38" font-family="Helvetica,sans-Serif" font-size="9.00" fill="#2196f3">FilterData</text>
<text text-anchor="middle" x="269.94" y="-362.63" font-family="Helvetica,sans-Serif" font-size="9.00" fill="#2196f3">(posts.id &#45;&gt; comments.postId)</text>
</g>
<!-- nest_comments -->
<g id="node8" class="node">
<title>nest_comments</title>
<polygon fill="#d5e8d4" stroke="#82b366" points="331.06,-261.68 228.06,-261.68 228.06,-205.68 331.06,-205.68 331.06,-261.68"/>
<text text-anchor="middle" x="279.56" y="-247.23" font-family="Helvetica,sans-Serif" font-size="11.00">Nest</text>
<text text-anchor="middle" x="279.56" y="-235.23" font-family="Helvetica,sans-Serif" font-size="11.00">leftKeys=[id]</text>
<text text-anchor="middle" x="279.56" y="-223.23" font-family="Helvetica,sans-Serif" font-size="11.00">rightKeys=[postId]</text>
<text text-anchor="middle" x="279.56" y="-211.23" font-family="Helvetica,sans-Serif" font-size="11.00">field=comments</text>
</g>
<!-- nest_comments&#45;&gt;read_posts -->
<g id="edge9" class="edge">
<title>nest_comments&#45;&gt;read_posts</title>
<path fill="none" stroke="#999999" d="M294.59,-261.96C313.79,-298.58 343.04,-361.3 329.56,-380.93 318.9,-396.46 300.31,-405.1 282.71,-409.91"/>
<polygon fill="#999999" stroke="#999999" points="282.08,-406.46 273.14,-412.15 283.67,-413.28 282.08,-406.46"/>
<text text-anchor="middle" x="335.16" y="-321.76" font-family="Helvetica,sans-Serif" font-size="9.00">left</text>
</g>
<!-- nest_comments&#45;&gt;read_comments -->
<g id="edge10" class="edge">
<title>nest_comments&#45;&gt;read_comments</title>
<path fill="none" stroke="#999999" d="M262.76,-262.1C255.89,-273.31 247.97,-286.24 241.12,-297.41"/>
<polygon fill="#999999" stroke="#999999" points="238.24,-295.42 235.99,-305.78 244.2,-299.08 238.24,-295.42"/>
<text text-anchor="middle" x="259.41" y="-280.88" font-family="Helvetica,sans-Serif" font-size="9.00">right</text>
</g>
<!-- nest_posts -->
<g id="node9" class="node">
<title>nest_posts</title>
<polygon fill="#d5e8d4" stroke="#82b366" points="331.44,-159.93 227.69,-159.93 227.69,-103.93 331.44,-103.93 331.44,-159.93"/>
<text text-anchor="middle" x="279.56" y="-145.48" font-family="Helvetica,sans-Serif" font-size="11.00">Nest</text>
<text text-anchor="middle" x="279.56" y="-133.48" font-family="Helvetica,sans-Serif" font-size="11.00">leftKeys=[id]</text>
<text text-anchor="middle" x="279.56" y="-121.48" font-family="Helvetica,sans-Serif" font-size="11.00">rightKeys=[userId]</text>
<text text-anchor="middle" x="279.56" y="-109.48" font-family="Helvetica,sans-Serif" font-size="11.00">field=posts</text>
</g>
<!-- nest_posts&#45;&gt;read_users -->
<g id="edge11" class="edge">
<title>nest_posts&#45;&gt;read_users</title>
<path fill="none" stroke="#999999" d="M323.8,-160.32C346.14,-177.84 368.56,-202.86 368.56,-232.68 368.56,-232.68 368.56,-232.68 368.56,-417.93 368.56,-442.94 364.68,-449.56 354.56,-472.43 353.34,-475.2 351.9,-478 350.35,-480.74"/>
<polygon fill="#999999" stroke="#999999" points="347.54,-478.64 345.25,-488.99 353.49,-482.33 347.54,-478.64"/>
<text text-anchor="middle" x="374.56" y="-321.76" font-family="Helvetica,sans-Serif" font-size="9.00">left</text>
</g>
<!-- nest_posts&#45;&gt;nest_comments -->
<g id="edge12" class="edge">
<title>nest_posts&#45;&gt;nest_comments</title>
<path fill="none" stroke="#999999" d="M279.56,-160.19C279.56,-170.63 279.56,-182.76 279.56,-194.07"/>
<polygon fill="#999999" stroke="#999999" points="276.06,-193.94 279.56,-203.94 283.06,-193.94 276.06,-193.94"/>
<text text-anchor="middle" x="288.56" y="-179.13" font-family="Helvetica,sans-Serif" font-size="9.00">right</text>
</g>
<!-- ret -->
<g id="node10" class="node">
<title>ret</title>
<ellipse fill="black" stroke="black" cx="219.56" cy="-33.47" rx="29.47" ry="29.47"/>
<ellipse fill="none" stroke="black" cx="219.56" cy="-33.47" rx="33.47" ry="33.47"/>
<text text-anchor="middle" x="219.56" y="-29.02" font-family="Helvetica,sans-Serif" font-size="11.00" fill="white">Return</text>
</g>
<!-- ret&#45;&gt;cs_users_0 -->
<g id="edge14" class="edge">
<title>ret&#45;&gt;cs_users_0</title>
<path fill="none" stroke="#999999" stroke-dasharray="5,2" d="M253.35,-36.7C307.72,-42.32 408.56,-62.04 408.56,-130.93 408.56,-130.93 408.56,-130.93 408.56,-509.43 408.56,-529.19 394.69,-544.97 378.72,-556.59"/>
<polygon fill="#999999" stroke="#999999" points="376.81,-553.65 370.42,-562.1 380.69,-559.48 376.81,-553.65"/>
</g>
<!-- ret&#45;&gt;cs_posts_0 -->
<g id="edge15" class="edge">
<title>ret&#45;&gt;cs_posts_0</title>
<path fill="none" stroke="#999999" stroke-dasharray="5,2" d="M193.85,-54.93C174.6,-72.73 151.56,-100.4 151.56,-130.93 151.56,-130.93 151.56,-130.93 151.56,-326.43 151.56,-382.57 175.33,-444.69 191.04,-479.61"/>
<polygon fill="#999999" stroke="#999999" points="187.81,-480.96 195.18,-488.57 194.16,-478.03 187.81,-480.96"/>
</g>
<!-- ret&#45;&gt;cs_comments_0 -->
<g id="edge16" class="edge">
<title>ret&#45;&gt;cs_comments_0</title>
<path fill="none" stroke="#999999" stroke-dasharray="5,2" d="M188.07,-45.93C154.94,-60.25 107.56,-88.2 107.56,-130.93 107.56,-130.93 107.56,-130.93 107.56,-326.43 107.56,-347.46 102.24,-370.61 97.09,-388.1"/>
<polygon fill="#999999" stroke="#999999" points="93.87,-386.66 94.23,-397.25 100.55,-388.74 93.87,-386.66"/>
</g>
<!-- ret&#45;&gt;nest_posts -->
<g id="edge13" class="edge">
<title>ret&#45;&gt;nest_posts</title>
<path fill="none" stroke="#999999" d="M236.92,-62.37C243.05,-72.23 250.06,-83.49 256.59,-93.99"/>
<polygon fill="#999999" stroke="#999999" points="253.61,-95.83 261.86,-102.47 259.55,-92.13 253.61,-95.83"/>
</g>
</g>
</svg>
