<?xml version="1.0" encoding="UTF-8" standalone="no"?>
<!DOCTYPE svg PUBLIC "-//W3C//DTD SVG 1.1//EN"
 "http://www.w3.org/Graphics/SVG/1.1/DTD/svg11.dtd">
<!-- Generated by graphviz version 12.2.1 (0)
 -->
<!-- Pages: 1 -->
<svg width="375pt" height="684pt"
 viewBox="0.00 0.00 375.38 683.89" xmlns="http://www.w3.org/2000/svg" xmlns:xlink="http://www.w3.org/1999/xlink">
<g id="graph0" class="graph" transform="scale(1 1) rotate(0) translate(4 679.89)">
<polygon fill="white" stroke="none" points="-4,4 -4,-679.89 371.38,-679.89 371.38,4 -4,4"/>
<text text-anchor="middle" x="183.69" y="-656.69" font-family="Helvetica,sans-Serif" font-weight="bold" font-size="16.00">db.users.include(&#39;posts&#39;, p =&gt; p.combine({</text>
<text text-anchor="middle" x="183.69" y="-640.19" font-family="Helvetica,sans-Serif" font-weight="bold" font-size="16.00"> &#160;popular: p.where(p =&gt; p.views.gt(150)),</text>
<text text-anchor="middle" x="183.69" y="-623.69" font-family="Helvetica,sans-Serif" font-weight="bold" font-size="16.00"> &#160;totalCount: p.count()</text>
<text text-anchor="middle" x="183.69" y="-607.19" font-family="Helvetica,sans-Serif" font-weight="bold" font-size="16.00">})).all()</text>
<!-- start -->
<g id="node1" class="node">
<title>start</title>
<ellipse fill="white" stroke="black" cx="111.38" cy="-578.28" rx="23.6" ry="23.6"/>
<text text-anchor="middle" x="111.38" y="-573.83" font-family="Helvetica,sans-Serif" font-size="11.00">Start</text>
</g>
<!-- cs_users_0 -->
<g id="node2" class="node">
<title>cs_users_0</title>
<polygon fill="#e5e5e5" stroke="#999999" points="257.75,-517.68 169,-517.68 169,-481.68 257.75,-481.68 257.75,-517.68"/>
<text text-anchor="middle" x="213.38" y="-501.23" font-family="Helvetica,sans-Serif" font-size="11.00" fill="#666666">CollectionState</text>
<text text-anchor="middle" x="213.38" y="-489.23" font-family="Helvetica,sans-Serif" font-size="11.00" fill="#666666">(users, 0)</text>
</g>
<!-- cs_users_0&#45;&gt;start -->
<g id="edge1" class="edge">
<title>cs_users_0&#45;&gt;start</title>
<path fill="none" stroke="#999999" d="M190.23,-518.06C175,-529.5 154.98,-544.53 138.93,-556.59"/>
<polygon fill="#999999" stroke="#999999" points="137.11,-553.58 131.21,-562.38 141.31,-559.18 137.11,-553.58"/>
</g>
<!-- cs_posts_0 -->
<g id="node3" class="node">
<title>cs_posts_0</title>
<polygon fill="#e5e5e5" stroke="#999999" points="88.75,-444.68 0,-444.68 0,-408.68 88.75,-408.68 88.75,-444.68"/>
<text text-anchor="middle" x="44.38" y="-428.23" font-family="Helvetica,sans-Serif" font-size="11.00" fill="#666666">CollectionState</text>
<text text-anchor="middle" x="44.38" y="-416.23" font-family="Helvetica,sans-Serif" font-size="11.00" fill="#666666">(posts, 0)</text>
</g>
<!-- cs_posts_0&#45;&gt;start -->
<g id="edge2" class="edge">
<title>cs_posts_0&#45;&gt;start</title>
<path fill="none" stroke="#999999" d="M52.19,-445.14C63.28,-469.89 83.74,-515.58 97.46,-546.2"/>
<polygon fill="#999999" stroke="#999999" points="94.1,-547.27 101.38,-554.97 100.49,-544.41 94.1,-547.27"/>
</g>
<!-- read_users -->
<g id="node4" class="node">
<title>read_users</title>
<polygon fill="#dae8fc" stroke="#6c8ebf" points="246.5,-444.68 180.25,-444.68 180.25,-408.68 246.5,-408.68 246.5,-444.68"/>
<text text-anchor="middle" x="213.38" y="-428.23" font-family="Helvetica,sans-Serif" font-size="11.00">Read</text>
<text text-anchor="middle" x="213.38" y="-416.23" font-family="Helvetica,sans-Serif" font-size="11.00">(users, [*])</text>
</g>
<!-- read_users&#45;&gt;cs_users_0 -->
<g id="edge3" class="edge">
<title>read_users&#45;&gt;cs_users_0</title>
<path fill="none" stroke="#999999" d="M213.38,-444.87C213.38,-452.46 213.38,-461.58 213.38,-470.14"/>
<polygon fill="#999999" stroke="#999999" points="209.88,-470.14 213.38,-480.14 216.88,-470.14 209.88,-470.14"/>
</g>
<!-- read_popular -->
<g id="node5" class="node">
<title>read_popular</title>
<polygon fill="#dae8fc" stroke="#6c8ebf" points="276.5,-353.18 156.25,-353.18 156.25,-309.18 276.5,-309.18 276.5,-353.18"/>
<text text-anchor="middle" x="216.38" y="-338.73" font-family="Helvetica,sans-Serif" font-size="11.00">Read</text>
<text text-anchor="middle" x="216.38" y="-326.73" font-family="Helvetica,sans-Serif" font-size="11.00">(posts:popular, [*]</text>
<text text-anchor="middle" x="216.38" y="-314.73" font-family="Helvetica,sans-Serif" font-size="11.00">where=[views &gt; 150])</text>
</g>
<!-- read_popular&#45;&gt;cs_posts_0 -->
<g id="edge5" class="edge">
<title>read_popular&#45;&gt;cs_posts_0</title>
<path fill="none" stroke="#999999" d="M156.08,-350.55C126.42,-359.72 96.35,-369.26 93.38,-371.18 81.91,-378.57 71.46,-389.33 63.18,-399.34"/>
<polygon fill="#999999" stroke="#999999" points="60.58,-396.98 57.15,-407.01 66.08,-401.31 60.58,-396.98"/>
</g>
<!-- read_popular&#45;&gt;read_users -->
<g id="edge4" class="edge">
<title>read_popular&#45;&gt;read_users</title>
<path fill="none" stroke="#2196f3" d="M215.51,-353.64C215.29,-359.34 215.06,-365.49 214.88,-371.18 214.6,-379.57 214.33,-388.69 214.1,-397.02"/>
<polygon fill="#2196f3" stroke="#2196f3" points="210.61,-396.89 213.84,-406.98 217.6,-397.08 210.61,-396.89"/>
<text text-anchor="middle" x="265.12" y="-382.13" font-family="Helvetica,sans-Serif" font-size="9.00" fill="#2196f3">FilterData</text>
<text text-anchor="middle" x="265.12" y="-372.38" font-family="Helvetica,sans-Serif" font-size="9.00" fill="#2196f3">(users.id &#45;&gt; posts.userId)</text>
</g>
<!-- agg_count -->
<g id="node6" class="node">
<title>agg_count</title>
<polygon fill="#e0f2f1" stroke="#4db6ac" points="137.88,-353.18 34.88,-353.18 34.88,-309.18 137.88,-309.18 137.88,-353.18"/>
<text text-anchor="middle" x="86.38" y="-338.73" font-family="Helvetica,sans-Serif" font-size="11.00">Aggregate</text>
<text text-anchor="middle" x="86.38" y="-326.73" font-family="Helvetica,sans-Serif" font-size="11.00">(posts, fn=count</text>
<text text-anchor="middle" x="86.38" y="-314.73" font-family="Helvetica,sans-Serif" font-size="11.00">groupBy=[userId])</text>
</g>
<!-- agg_count&#45;&gt;cs_posts_0 -->
<g id="edge7" class="edge">
<title>agg_count&#45;&gt;cs_posts_0</title>
<path fill="none" stroke="#999999" d="M57.69,-353.63C52.71,-358.79 48.22,-364.71 45.38,-371.18 41.9,-379.07 40.78,-388.24 40.76,-396.79"/>
<polygon fill="#999999" stroke="#999999" points="37.27,-396.94 41.28,-406.74 44.26,-396.57 37.27,-396.94"/>
</g>
<!-- agg_count&#45;&gt;read_users -->
<g id="edge6" class="edge">
<title>agg_count&#45;&gt;read_users</title>
<path fill="none" stroke="#2196f3" d="M90.34,-353.64C93.64,-365.97 99.54,-380.91 109.88,-390.68 125.85,-405.79 148.57,-414.39 168.66,-419.28"/>
<polygon fill="#2196f3" stroke="#2196f3" points="167.81,-422.67 178.32,-421.37 169.29,-415.83 167.81,-422.67"/>
<text text-anchor="middle" x="160.12" y="-382.13" font-family="Helvetica,sans-Serif" font-size="9.00" fill="#2196f3">FilterData</text>
<text text-anchor="middle" x="160.12" y="-372.38" font-family="Helvetica,sans-Serif" font-size="9.00" fill="#2196f3">(users.id &#45;&gt; posts.userId)</text>
</g>
<!-- combine -->
<g id="node7" class="node">
<title>combine</title>
<polygon fill="#e1bee7" stroke="#9c27b0" points="268.25,-253.68 164.5,-253.68 164.5,-217.68 268.25,-217.68 268.25,-253.68"/>
<text text-anchor="middle" x="216.38" y="-237.23" font-family="Helvetica,sans-Serif" font-size="11.00">Combine</text>
<text text-anchor="middle" x="216.38" y="-225.23" font-family="Helvetica,sans-Serif" font-size="11.00">rightKeys=[userId]</text>
</g>
<!-- combine&#45;&gt;read_popular -->
<g id="edge8" class="edge">
<title>combine&#45;&gt;read_popular</title>
<path fill="none" stroke="#9c27b0" d="M216.38,-253.83C216.38,-266.06 216.38,-282.88 216.38,-297.62"/>
<polygon fill="#9c27b0" stroke="#9c27b0" points="212.88,-297.36 216.38,-307.36 219.88,-297.36 212.88,-297.36"/>
<text text-anchor="middle" x="247.12" y="-282.63" font-family="Helvetica,sans-Serif" font-size="9.00" fill="#9c27b0">BranchData</text>
<text text-anchor="middle" x="247.12" y="-272.88" font-family="Helvetica,sans-Serif" font-size="9.00" fill="#9c27b0">(popular, rows)</text>
</g>
<!-- combine&#45;&gt;agg_count -->
<g id="edge9" class="edge">
<title>combine&#45;&gt;agg_count</title>
<path fill="none" stroke="#9c27b0" d="M165.8,-254.09C155.15,-258.93 144.35,-264.79 135.12,-271.68 124.66,-279.49 115.02,-289.99 107.12,-299.93"/>
<polygon fill="#9c27b0" stroke="#9c27b0" points="104.55,-297.52 101.29,-307.6 110.12,-301.75 104.55,-297.52"/>
<text text-anchor="middle" x="173.75" y="-282.63" font-family="Helvetica,sans-Serif" font-size="9.00" fill="#9c27b0">BranchData</text>
<text text-anchor="middle" x="173.75" y="-272.88" font-family="Helvetica,sans-Serif" font-size="9.00" fill="#9c27b0">(totalCount, scalar)</text>
</g>
<!-- nest -->
<g id="node8" class="node">
<title>nest</title>
<polygon fill="#d5e8d4" stroke="#82b366" points="321.25,-171.93 217.5,-171.93 217.5,-103.93 321.25,-103.93 321.25,-171.93"/>
<text text-anchor="middle" x="269.38" y="-157.48" font-family="Helvetica,sans-Serif" font-size="11.00">Nest</text>
<text text-anchor="middle" x="269.38" y="-145.48" font-family="Helvetica,sans-Serif" font-size="11.00">leftKeys=[id]</text>
<text text-anchor="middle" x="269.38" y="-133.48" font-family="Helvetica,sans-Serif" font-size="11.00">rightKeys=[userId]</text>
<text text-anchor="middle" x="269.38" y="-121.48" font-family="Helvetica,sans-Serif" font-size="11.00">field=posts</text>
<text text-anchor="middle" x="269.38" y="-109.48" font-family="Helvetica,sans-Serif" font-size="11.00">arity=scalar</text>
</g>
<!-- nest&#45;&gt;read_users -->
<g id="edge10" class="edge">
<title>nest&#45;&gt;read_users</title>
<path fill="none" stroke="#999999" d="M289.75,-172.1C318.58,-223.75 362.75,-324.33 315.38,-390.68 302.34,-408.94 279.16,-417.77 258.19,-422"/>
<polygon fill="#999999" stroke="#999999" points="257.62,-418.55 248.34,-423.66 258.78,-425.45 257.62,-418.55"/>
<text text-anchor="middle" x="339.85" y="-277.76" font-family="Helvetica,sans-Serif" font-size="9.00">left</text>
</g>
<!-- nest&#45;&gt;combine -->
<g id="edge11" class="edge">
<title>nest&#45;&gt;combine</title>
<path fill="none" stroke="#999999" d="M250.84,-172.42C244.5,-183.86 237.5,-196.51 231.47,-207.41"/>
<polygon fill="#999999" stroke="#999999" points="228.56,-205.45 226.78,-215.89 234.68,-208.84 228.56,-205.45"/>
<text text-anchor="middle" x="248.7" y="-191.13" font-family="Helvetica,sans-Serif" font-size="9.00">right</text>
</g>
<!-- ret -->
<g id="node9" class="node">
<title>ret</title>
<ellipse fill="black" stroke="black" cx="269.38" cy="-33.47" rx="29.47" ry="29.47"/>
<ellipse fill="none" stroke="black" cx="269.38" cy="-33.47" rx="33.47" ry="33.47"/>
<text text-anchor="middle" x="269.38" y="-29.02" font-family="Helvetica,sans-Serif" font-size="11.00" fill="white">Return</text>
</g>
<!-- ret&#45;&gt;cs_users_0 -->
<g id="edge13" class="edge">
<title>ret&#45;&gt;cs_users_0</title>
<path fill="none" stroke="#999999" stroke-dasharray="5,2" d="M299.04,-49.48C327.89,-66.43 367.38,-96.93 367.38,-136.93 367.38,-136.93 367.38,-136.93 367.38,-427.68 367.38,-472.37 313.24,-489.02 269.16,-495.18"/>
<polygon fill="#999999" stroke="#999999" points="268.92,-491.68 259.42,-496.37 269.77,-498.63 268.92,-491.68"/>
</g>
<!-- ret&#45;&gt;cs_posts_0 -->
<g id="edge14" class="edge">
<title>ret&#45;&gt;cs_posts_0</title>
<path fill="none" stroke="#999999" stroke-dasharray="5,2" d="M236.33,-40.14C165.7,-53.21 6.38,-88.11 6.38,-136.93 6.38,-136.93 6.38,-136.93 6.38,-332.18 6.38,-355.76 16.88,-380.39 26.84,-398.45"/>
<polygon fill="#999999" stroke="#999999" points="23.74,-400.08 31.8,-406.96 29.79,-396.55 23.74,-400.08"/>
</g>
<!-- ret&#45;&gt;nest -->
<g id="edge12" class="edge">
<title>ret&#45;&gt;nest</title>
<path fill="none" stroke="#999999" d="M269.38,-67.17C269.38,-75.14 269.38,-83.81 269.38,-92.23"/>
<polygon fill="#999999" stroke="#999999" points="265.88,-91.97 269.38,-101.97 272.88,-91.97 265.88,-91.97"/>
</g>
</g>
</svg>
