<?xml version="1.0" encoding="UTF-8" standalone="no"?>
<!DOCTYPE svg PUBLIC "-//W3C//DTD SVG 1.1//EN"
 "http://www.w3.org/Graphics/SVG/1.1/DTD/svg11.dtd">
<!-- Generated by graphviz version 12.2.1 (0)
 -->
<!-- Pages: 1 -->
<svg width="607pt" height="769pt"
 viewBox="0.00 0.00 607.38 769.14" xmlns="http://www.w3.org/2000/svg" xmlns:xlink="http://www.w3.org/1999/xlink">
<g id="graph0" class="graph" transform="scale(1 1) rotate(0) translate(4 765.14)">
<polygon fill="white" stroke="none" points="-4,4 -4,-765.14 603.38,-765.14 603.38,4 -4,4"/>
<text text-anchor="middle" x="299.69" y="-741.94" font-family="Helvetica,sans-Serif" font-weight="bold" font-size="16.00">db.users.include(&#39;posts&#39;, p =&gt; p.combine({</text>
<text text-anchor="middle" x="299.69" y="-725.44" font-family="Helvetica,sans-Serif" font-weight="bold" font-size="16.00"> &#160;popular: ..., count: p.count()</text>
<text text-anchor="middle" x="299.69" y="-708.94" font-family="Helvetica,sans-Serif" font-weight="bold" font-size="16.00">})).include(&#39;profile&#39;).all()</text>
<!-- start -->
<g id="node1" class="node">
<title>start</title>
<ellipse fill="white" stroke="black" cx="437" cy="-680.03" rx="23.6" ry="23.6"/>
<text text-anchor="middle" x="437" y="-675.58" font-family="Helvetica,sans-Serif" font-size="11.00">Start</text>
</g>
<!-- cs_users_0 -->
<g id="node2" class="node">
<title>cs_users_0</title>
<polygon fill="#e5e5e5" stroke="#999999" points="481.38,-619.43 392.62,-619.43 392.62,-583.43 481.38,-583.43 481.38,-619.43"/>
<text text-anchor="middle" x="437" y="-602.98" font-family="Helvetica,sans-Serif" font-size="11.00" fill="#666666">CollectionState</text>
<text text-anchor="middle" x="437" y="-590.98" font-family="Helvetica,sans-Serif" font-size="11.00" fill="#666666">(users, 0)</text>
</g>
<!-- cs_users_0&#45;&gt;start -->
<g id="edge1" class="edge">
<title>cs_users_0&#45;&gt;start</title>
<path fill="none" stroke="#999999" d="M437,-619.81C437,-627.22 437,-636.13 437,-644.76"/>
<polygon fill="#999999" stroke="#999999" points="433.5,-644.68 437,-654.68 440.5,-644.68 433.5,-644.68"/>
</g>
<!-- cs_posts_0 -->
<g id="node3" class="node">
<title>cs_posts_0</title>
<polygon fill="#e5e5e5" stroke="#999999" points="155.38,-546.43 66.62,-546.43 66.62,-510.43 155.38,-510.43 155.38,-546.43"/>
<text text-anchor="middle" x="111" y="-529.98" font-family="Helvetica,sans-Serif" font-size="11.00" fill="#666666">CollectionState</text>
<text text-anchor="middle" x="111" y="-517.98" font-family="Helvetica,sans-Serif" font-size="11.00" fill="#666666">(posts, 0)</text>
</g>
<!-- cs_posts_0&#45;&gt;start -->
<g id="edge2" class="edge">
<title>cs_posts_0&#45;&gt;start</title>
<path fill="none" stroke="#999999" d="M149.03,-546.89C214.02,-576.71 345.24,-636.92 405.47,-664.57"/>
<polygon fill="#999999" stroke="#999999" points="403.94,-667.71 414.49,-668.7 406.86,-661.35 403.94,-667.71"/>
</g>
<!-- cs_profiles_0 -->
<g id="node4" class="node">
<title>cs_profiles_0</title>
<polygon fill="#e5e5e5" stroke="#999999" points="599.38,-355.43 510.62,-355.43 510.62,-319.43 599.38,-319.43 599.38,-355.43"/>
<text text-anchor="middle" x="555" y="-338.98" font-family="Helvetica,sans-Serif" font-size="11.00" fill="#666666">CollectionState</text>
<text text-anchor="middle" x="555" y="-326.98" font-family="Helvetica,sans-Serif" font-size="11.00" fill="#666666">(profiles, 0)</text>
</g>
<!-- cs_profiles_0&#45;&gt;start -->
<g id="edge3" class="edge">
<title>cs_profiles_0&#45;&gt;start</title>
<path fill="none" stroke="#999999" d="M549.9,-355.84C544.89,-374.49 538,-405.04 538,-431.93 538,-431.93 538,-431.93 538,-602.43 538,-636.97 500.04,-657.95 470.66,-669.02"/>
<polygon fill="#999999" stroke="#999999" points="469.63,-665.67 461.35,-672.28 471.94,-672.28 469.63,-665.67"/>
</g>
<!-- read_users -->
<g id="node5" class="node">
<title>read_users</title>
<polygon fill="#dae8fc" stroke="#6c8ebf" points="367.12,-546.43 300.88,-546.43 300.88,-510.43 367.12,-510.43 367.12,-546.43"/>
<text text-anchor="middle" x="334" y="-529.98" font-family="Helvetica,sans-Serif" font-size="11.00">Read</text>
<text text-anchor="middle" x="334" y="-517.98" font-family="Helvetica,sans-Serif" font-size="11.00">(users, [*])</text>
</g>
<!-- read_users&#45;&gt;cs_users_0 -->
<g id="edge4" class="edge">
<title>read_users&#45;&gt;cs_users_0</title>
<path fill="none" stroke="#999999" d="M359.2,-546.8C372.17,-555.74 388.18,-566.78 402.29,-576.51"/>
<polygon fill="#999999" stroke="#999999" points="400.24,-579.34 410.46,-582.14 404.21,-573.58 400.24,-579.34"/>
</g>
<!-- read_popular -->
<g id="node6" class="node">
<title>read_popular</title>
<polygon fill="#dae8fc" stroke="#6c8ebf" points="148.12,-454.93 27.88,-454.93 27.88,-410.93 148.12,-410.93 148.12,-454.93"/>
<text text-anchor="middle" x="88" y="-440.48" font-family="Helvetica,sans-Serif" font-size="11.00">Read</text>
<text text-anchor="middle" x="88" y="-428.48" font-family="Helvetica,sans-Serif" font-size="11.00">(posts:popular, [*]</text>
<text text-anchor="middle" x="88" y="-416.48" font-family="Helvetica,sans-Serif" font-size="11.00">where=[views &gt; 150])</text>
</g>
<!-- read_popular&#45;&gt;cs_posts_0 -->
<g id="edge6" class="edge">
<title>read_popular&#45;&gt;cs_posts_0</title>
<path fill="none" stroke="#999999" d="M61.05,-455.27C50.61,-466.21 42.72,-479.85 50,-492.43 52.24,-496.3 55.09,-499.78 58.33,-502.9"/>
<polygon fill="#999999" stroke="#999999" points="55.89,-505.44 65.87,-508.99 60.29,-499.99 55.89,-505.44"/>
</g>
<!-- read_popular&#45;&gt;read_users -->
<g id="edge5" class="edge">
<title>read_popular&#45;&gt;read_users</title>
<path fill="none" stroke="#2196f3" d="M90.08,-455.42C92.47,-468.08 97.58,-483.35 108.5,-492.43 122.16,-503.8 227.46,-516.42 289.22,-522.96"/>
<polygon fill="#2196f3" stroke="#2196f3" points="288.77,-526.43 299.08,-523.99 289.49,-519.47 288.77,-526.43"/>
<text text-anchor="middle" x="158.75" y="-483.88" font-family="Helvetica,sans-Serif" font-size="9.00" fill="#2196f3">FilterData</text>
<text text-anchor="middle" x="158.75" y="-474.13" font-family="Helvetica,sans-Serif" font-size="9.00" fill="#2196f3">(users.id &#45;&gt; posts.userId)</text>
</g>
<!-- agg_count -->
<g id="node7" class="node">
<title>agg_count</title>
<polygon fill="#e0f2f1" stroke="#4db6ac" points="269.5,-454.93 166.5,-454.93 166.5,-410.93 269.5,-410.93 269.5,-454.93"/>
<text text-anchor="middle" x="218" y="-440.48" font-family="Helvetica,sans-Serif" font-size="11.00">Aggregate</text>
<text text-anchor="middle" x="218" y="-428.48" font-family="Helvetica,sans-Serif" font-size="11.00">(posts, fn=count</text>
<text text-anchor="middle" x="218" y="-416.48" font-family="Helvetica,sans-Serif" font-size="11.00">groupBy=[userId])</text>
</g>
<!-- agg_count&#45;&gt;cs_posts_0 -->
<g id="edge8" class="edge">
<title>agg_count&#45;&gt;cs_posts_0</title>
<path fill="none" stroke="#999999" d="M203.77,-455.3C195.2,-467.15 183.54,-481.63 171,-492.43 166.14,-496.62 160.71,-500.57 155.16,-504.21"/>
<polygon fill="#999999" stroke="#999999" points="153.72,-500.99 147.06,-509.23 157.41,-506.94 153.72,-500.99"/>
</g>
<!-- agg_count&#45;&gt;read_users -->
<g id="edge7" class="edge">
<title>agg_count&#45;&gt;read_users</title>
<path fill="none" stroke="#2196f3" d="M212.85,-455.42C211.26,-467.45 211.63,-482.08 219.5,-492.43 235.68,-513.72 264.51,-522.45 289.19,-525.87"/>
<polygon fill="#2196f3" stroke="#2196f3" points="288.71,-529.34 299.03,-526.96 289.47,-522.38 288.71,-529.34"/>
<text text-anchor="middle" x="269.75" y="-483.88" font-family="Helvetica,sans-Serif" font-size="9.00" fill="#2196f3">FilterData</text>
<text text-anchor="middle" x="269.75" y="-474.13" font-family="Helvetica,sans-Serif" font-size="9.00" fill="#2196f3">(users.id &#45;&gt; posts.userId)</text>
</g>
<!-- combine -->
<g id="node8" class="node">
<title>combine</title>
<polygon fill="#e1bee7" stroke="#9c27b0" points="269.88,-355.43 166.12,-355.43 166.12,-319.43 269.88,-319.43 269.88,-355.43"/>
<text text-anchor="middle" x="218" y="-338.98" font-family="Helvetica,sans-Serif" font-size="11.00">Combine</text>
<text text-anchor="middle" x="218" y="-326.98" font-family="Helvetica,sans-Serif" font-size="11.00">rightKeys=[userId]</text>
</g>
<!-- combine&#45;&gt;read_popular -->
<g id="edge9" class="edge">
<title>combine&#45;&gt;read_popular</title>
<path fill="none" stroke="#9c27b0" d="M181.7,-355.79C171.93,-361 161.56,-367.05 152.5,-373.43 140.21,-382.09 127.74,-392.84 117.08,-402.76"/>
<polygon fill="#9c27b0" stroke="#9c27b0" points="114.89,-400.01 110.06,-409.44 119.72,-405.09 114.89,-400.01"/>
<text text-anchor="middle" x="183.25" y="-384.38" font-family="Helvetica,sans-Serif" font-size="9.00" fill="#9c27b0">BranchData</text>
<text text-anchor="middle" x="183.25" y="-374.63" font-family="Helvetica,sans-Serif" font-size="9.00" fill="#9c27b0">(popular, rows)</text>
</g>
<!-- combine&#45;&gt;agg_count -->
<g id="edge10" class="edge">
<title>combine&#45;&gt;agg_count</title>
<path fill="none" stroke="#9c27b0" d="M218,-355.58C218,-367.81 218,-384.63 218,-399.37"/>
<polygon fill="#9c27b0" stroke="#9c27b0" points="214.5,-399.11 218,-409.11 221.5,-399.11 214.5,-399.11"/>
<text text-anchor="middle" x="256.62" y="-384.38" font-family="Helvetica,sans-Serif" font-size="9.00" fill="#9c27b0">BranchData</text>
<text text-anchor="middle" x="256.62" y="-374.63" font-family="Helvetica,sans-Serif" font-size="9.00" fill="#9c27b0">(totalCount, scalar)</text>
</g>
<!-- nest_posts -->
<g id="node9" class="node">
<title>nest_posts</title>
<polygon fill="#d5e8d4" stroke="#82b366" points="358.88,-273.68 255.12,-273.68 255.12,-205.68 358.88,-205.68 358.88,-273.68"/>
<text text-anchor="middle" x="307" y="-259.23" font-family="Helvetica,sans-Serif" font-size="11.00">Nest</text>
<text text-anchor="middle" x="307" y="-247.23" font-family="Helvetica,sans-Serif" font-size="11.00">leftKeys=[id]</text>
<text text-anchor="middle" x="307" y="-235.23" font-family="Helvetica,sans-Serif" font-size="11.00">rightKeys=[userId]</text>
<text text-anchor="middle" x="307" y="-223.23" font-family="Helvetica,sans-Serif" font-size="11.00">field=posts</text>
<text text-anchor="middle" x="307" y="-211.23" font-family="Helvetica,sans-Serif" font-size="11.00">arity=scalar</text>
</g>
<!-- nest_posts&#45;&gt;read_users -->
<g id="edge11" class="edge">
<title>nest_posts&#45;&gt;read_users</title>
<path fill="none" stroke="#999999" d="M310.15,-274.14C315.51,-331.02 326.29,-445.58 331.31,-498.91"/>
<polygon fill="#999999" stroke="#999999" points="327.81,-499.07 332.24,-508.7 334.78,-498.41 327.81,-499.07"/>
<text text-anchor="middle" x="327.12" y="-379.51" font-family="Helvetica,sans-Serif" font-size="9.00">left</text>
</g>
<!-- nest_posts&#45;&gt;combine -->
<g id="edge12" class="edge">
<title>nest_posts&#45;&gt;combine</title>
<path fill="none" stroke="#999999" d="M275.87,-274.17C264.69,-286.2 252.26,-299.57 241.8,-310.83"/>
<polygon fill="#999999" stroke="#999999" points="239.51,-308.15 235.26,-317.86 244.64,-312.92 239.51,-308.15"/>
<text text-anchor="middle" x="266.17" y="-292.88" font-family="Helvetica,sans-Serif" font-size="9.00">right</text>
</g>
<!-- read_profiles -->
<g id="node10" class="node">
<title>read_profiles</title>
<polygon fill="#dae8fc" stroke="#6c8ebf" points="451.25,-257.68 376.75,-257.68 376.75,-221.68 451.25,-221.68 451.25,-257.68"/>
<text text-anchor="middle" x="414" y="-241.23" font-family="Helvetica,sans-Serif" font-size="11.00">Read</text>
<text text-anchor="middle" x="414" y="-229.23" font-family="Helvetica,sans-Serif" font-size="11.00">(profiles, [*])</text>
</g>
<!-- read_profiles&#45;&gt;cs_profiles_0 -->
<g id="edge14" class="edge">
<title>read_profiles&#45;&gt;cs_profiles_0</title>
<path fill="none" stroke="#999999" d="M439.53,-258.02C462.09,-273.34 495.2,-295.82 520.18,-312.79"/>
<polygon fill="#999999" stroke="#999999" points="518.16,-315.65 528.4,-318.37 522.1,-309.86 518.16,-315.65"/>
</g>
<!-- read_profiles&#45;&gt;read_users -->
<g id="edge13" class="edge">
<title>read_profiles&#45;&gt;read_users</title>
<path fill="none" stroke="#2196f3" d="M405.45,-257.81C393.42,-282.66 371.7,-330.42 360.25,-373.43 346.52,-425.01 354.97,-440.19 344,-492.43 343.54,-494.61 343.02,-496.85 342.46,-499.1"/>
<polygon fill="#2196f3" stroke="#2196f3" points="339.11,-498.08 339.87,-508.65 345.87,-499.91 339.11,-498.08"/>
<text text-anchor="middle" x="414.62" y="-384.38" font-family="Helvetica,sans-Serif" font-size="9.00" fill="#2196f3">FilterData</text>
<text text-anchor="middle" x="414.62" y="-374.63" font-family="Helvetica,sans-Serif" font-size="9.00" fill="#2196f3">(users.id &#45;&gt; profiles.userId)</text>
</g>
<!-- nest_profile -->
<g id="node11" class="node">
<title>nest_profile</title>
<polygon fill="#d5e8d4" stroke="#82b366" points="454.88,-159.93 351.12,-159.93 351.12,-103.93 454.88,-103.93 454.88,-159.93"/>
<text text-anchor="middle" x="403" y="-145.48" font-family="Helvetica,sans-Serif" font-size="11.00">Nest</text>
<text text-anchor="middle" x="403" y="-133.48" font-family="Helvetica,sans-Serif" font-size="11.00">leftKeys=[id]</text>
<text text-anchor="middle" x="403" y="-121.48" font-family="Helvetica,sans-Serif" font-size="11.00">rightKeys=[userId]</text>
<text text-anchor="middle" x="403" y="-109.48" font-family="Helvetica,sans-Serif" font-size="11.00">field=profile</text>
</g>
<!-- nest_profile&#45;&gt;nest_posts -->
<g id="edge15" class="edge">
<title>nest_profile&#45;&gt;nest_posts</title>
<path fill="none" stroke="#999999" d="M378.28,-160.16C368.08,-171.4 356.02,-184.68 344.76,-197.08"/>
<polygon fill="#999999" stroke="#999999" points="342.27,-194.62 338.14,-204.38 347.45,-199.33 342.27,-194.62"/>
<text text-anchor="middle" x="366.75" y="-179.13" font-family="Helvetica,sans-Serif" font-size="9.00">left</text>
</g>
<!-- nest_profile&#45;&gt;read_profiles -->
<g id="edge16" class="edge">
<title>nest_profile&#45;&gt;read_profiles</title>
<path fill="none" stroke="#999999" d="M405.83,-160.16C407.44,-175.57 409.44,-194.82 411.06,-210.4"/>
<polygon fill="#999999" stroke="#999999" points="407.54,-210.38 412.05,-219.97 414.5,-209.66 407.54,-210.38"/>
<text text-anchor="middle" x="417.5" y="-179.13" font-family="Helvetica,sans-Serif" font-size="9.00">right</text>
</g>
<!-- ret -->
<g id="node12" class="node">
<title>ret</title>
<ellipse fill="black" stroke="black" cx="463" cy="-33.47" rx="29.47" ry="29.47"/>
<ellipse fill="none" stroke="black" cx="463" cy="-33.47" rx="33.47" ry="33.47"/>
<text text-anchor="middle" x="463" y="-29.02" font-family="Helvetica,sans-Serif" font-size="11.00" fill="white">Return</text>
</g>
<!-- ret&#45;&gt;cs_users_0 -->
<g id="edge18" class="edge">
<title>ret&#45;&gt;cs_users_0</title>
<path fill="none" stroke="#999999" stroke-dasharray="5,2" d="M472.88,-65.84C477.92,-84.55 483,-108.87 483,-130.93 483,-130.93 483,-130.93 483,-529.43 483,-546.21 473.84,-562.16 463.69,-574.67"/>
<polygon fill="#999999" stroke="#999999" points="461.22,-572.18 457.24,-582 466.47,-576.8 461.22,-572.18"/>
</g>
<!-- ret&#45;&gt;cs_posts_0 -->
<g id="edge19" class="edge">
<title>ret&#45;&gt;cs_posts_0</title>
<path fill="none" stroke="#999999" stroke-dasharray="5,2" d="M429.33,-34.31C322.78,-34.71 0,-43.18 0,-130.93 0,-130.93 0,-130.93 0,-433.93 0,-466.36 28.05,-489.81 55.95,-505.12"/>
<polygon fill="#999999" stroke="#999999" points="54.34,-508.22 64.83,-509.7 57.54,-502 54.34,-508.22"/>
</g>
<!-- ret&#45;&gt;cs_profiles_0 -->
<g id="edge20" class="edge">
<title>ret&#45;&gt;cs_profiles_0</title>
<path fill="none" stroke="#999999" stroke-dasharray="5,2" d="M483.28,-60.65C488.36,-68.17 493.38,-76.6 497,-84.93 530.25,-161.49 545.82,-259.8 551.84,-307.67"/>
<polygon fill="#999999" stroke="#999999" points="548.35,-307.96 553.02,-317.47 555.3,-307.13 548.35,-307.96"/>
</g>
<!-- ret&#45;&gt;nest_profile -->
<g id="edge17" class="edge">
<title>ret&#45;&gt;nest_profile</title>
<path fill="none" stroke="#999999" d="M445.65,-62.37C439.51,-72.23 432.51,-83.49 425.98,-93.99"/>
<polygon fill="#999999" stroke="#999999" points="423.01,-92.13 420.7,-102.47 428.95,-95.83 423.01,-92.13"/>
</g>
</g>
</svg>
