<?xml version="1.0" encoding="UTF-8" standalone="no"?>
<!DOCTYPE svg PUBLIC "-//W3C//DTD SVG 1.1//EN"
 "http://www.w3.org/Graphics/SVG/1.1/DTD/svg11.dtd">
<!-- Generated by graphviz version 12.2.1 (0)
 -->
<!-- Pages: 1 -->
<svg width="535pt" height="496pt"
 viewBox="0.00 0.00 534.75 495.64" xmlns="http://www.w3.org/2000/svg" xmlns:xlink="http://www.w3.org/1999/xlink">
<g id="graph0" class="graph" transform="scale(1 1) rotate(0) translate(4 491.64)">
<polygon fill="white" stroke="none" points="-4,4 -4,-491.64 530.75,-491.64 530.75,4 -4,4"/>
<text text-anchor="middle" x="263.38" y="-468.44" font-family="Helvetica,sans-Serif" font-weight="bold" font-size="16.00">db.users.create({ id: 1, name: &#39;Alice&#39;, email: &#39;alice@example.com&#39; })</text>
<!-- start -->
<g id="node1" class="node">
<title>start</title>
<ellipse fill="white" stroke="black" cx="255.36" cy="-439.53" rx="23.6" ry="23.6"/>
<text text-anchor="middle" x="255.36" y="-435.08" font-family="Helvetica,sans-Serif" font-size="11.00">Start</text>
</g>
<!-- cs_users_0 -->
<g id="node2" class="node">
<title>cs_users_0</title>
<polygon fill="#e5e5e5" stroke="#999999" points="299.74,-378.93 210.99,-378.93 210.99,-342.93 299.74,-342.93 299.74,-378.93"/>
<text text-anchor="middle" x="255.36" y="-362.48" font-family="Helvetica,sans-Serif" font-size="11.00" fill="#666666">CollectionState</text>
<text text-anchor="middle" x="255.36" y="-350.48" font-family="Helvetica,sans-Serif" font-size="11.00" fill="#666666">(users, 0)</text>
</g>
<!-- cs_users_0&#45;&gt;start -->
<g id="edge1" class="edge">
<title>cs_users_0&#45;&gt;start</title>
<path fill="none" stroke="#999999" d="M255.36,-379.31C255.36,-386.72 255.36,-395.63 255.36,-404.26"/>
<polygon fill="#999999" stroke="#999999" points="251.86,-404.18 255.36,-414.18 258.86,-404.18 251.86,-404.18"/>
</g>
<!-- create_users -->
<g id="node3" class="node">
<title>create_users</title>
<polygon fill="#ffccbc" stroke="#e64a19" points="330.11,-305.93 180.61,-305.93 180.61,-249.93 330.11,-249.93 330.11,-305.93"/>
<text text-anchor="middle" x="255.36" y="-291.48" font-family="Helvetica,sans-Serif" font-size="11.00">Create</text>
<text text-anchor="middle" x="255.36" y="-279.48" font-family="Helvetica,sans-Serif" font-size="11.00">(users)</text>
<text text-anchor="middle" x="255.36" y="-267.48" font-family="Helvetica,sans-Serif" font-size="11.00">data={id:1, name:&#39;Alice&#39;,</text>
<text text-anchor="middle" x="255.36" y="-255.48" font-family="Helvetica,sans-Serif" font-size="11.00">email:&#39;alice@example.com&#39;}</text>
</g>
<!-- create_users&#45;&gt;cs_users_0 -->
<g id="edge2" class="edge">
<title>create_users&#45;&gt;cs_users_0</title>
<path fill="none" stroke="#999999" d="M255.36,-306.35C255.36,-314.28 255.36,-322.95 255.36,-330.97"/>
<polygon fill="#999999" stroke="#999999" points="251.86,-330.93 255.36,-340.93 258.86,-330.93 251.86,-330.93"/>
</g>
<!-- cs_users_1 -->
<g id="node4" class="node">
<title>cs_users_1</title>
<polygon fill="#e5e5e5" stroke="#999999" points="259.74,-212.93 170.99,-212.93 170.99,-176.93 259.74,-176.93 259.74,-212.93"/>
<text text-anchor="middle" x="215.36" y="-196.48" font-family="Helvetica,sans-Serif" font-size="11.00" fill="#666666">CollectionState</text>
<text text-anchor="middle" x="215.36" y="-184.48" font-family="Helvetica,sans-Serif" font-size="11.00" fill="#666666">(users, 1)</text>
</g>
<!-- cs_users_1&#45;&gt;create_users -->
<g id="edge3" class="edge">
<title>cs_users_1&#45;&gt;create_users</title>
<path fill="none" stroke="#999999" d="M223.84,-213.11C227.64,-220.8 232.28,-230.2 236.82,-239.39"/>
<polygon fill="#999999" stroke="#999999" points="233.62,-240.81 241.18,-248.22 239.89,-237.71 233.62,-240.81"/>
</g>
<!-- read_users -->
<g id="node5" class="node">
<title>read_users</title>
<polygon fill="#dae8fc" stroke="#6c8ebf" points="309.49,-139.93 243.24,-139.93 243.24,-103.93 309.49,-103.93 309.49,-139.93"/>
<text text-anchor="middle" x="276.36" y="-123.48" font-family="Helvetica,sans-Serif" font-size="11.00">Read</text>
<text text-anchor="middle" x="276.36" y="-111.48" font-family="Helvetica,sans-Serif" font-size="11.00">(users, [*])</text>
</g>
<!-- read_users&#45;&gt;create_users -->
<g id="edge4" class="edge">
<title>read_users&#45;&gt;create_users</title>
<path fill="none" stroke="#2196f3" d="M275.4,-140.25C274.25,-158.42 272.02,-187.78 268.36,-212.93 267.15,-221.26 265.55,-230.14 263.88,-238.56"/>
<polygon fill="#2196f3" stroke="#2196f3" points="260.49,-237.66 261.91,-248.16 267.35,-239.07 260.49,-237.66"/>
<text text-anchor="middle" x="314.14" y="-196.13" font-family="Helvetica,sans-Serif" font-size="9.00" fill="#2196f3">FilterData</text>
<text text-anchor="middle" x="314.14" y="-186.38" font-family="Helvetica,sans-Serif" font-size="9.00" fill="#2196f3">(users.id &#45;&gt; users.id)</text>
</g>
<!-- read_users&#45;&gt;cs_users_1 -->
<g id="edge5" class="edge">
<title>read_users&#45;&gt;cs_users_1</title>
<path fill="none" stroke="#999999" d="M261.6,-140.12C254.33,-148.58 245.42,-158.95 237.37,-168.32"/>
<polygon fill="#999999" stroke="#999999" points="234.84,-165.89 230.98,-175.75 240.15,-170.45 234.84,-165.89"/>
</g>
<!-- ret -->
<g id="node6" class="node">
<title>ret</title>
<ellipse fill="black" stroke="black" cx="227.36" cy="-33.47" rx="29.47" ry="29.47"/>
<ellipse fill="none" stroke="black" cx="227.36" cy="-33.47" rx="33.47" ry="33.47"/>
<text text-anchor="middle" x="227.36" y="-29.02" font-family="Helvetica,sans-Serif" font-size="11.00" fill="white">Return</text>
</g>
<!-- ret&#45;&gt;cs_users_1 -->
<g id="edge7" class="edge">
<title>ret&#45;&gt;cs_users_1</title>
<path fill="none" stroke="#999999" stroke-dasharray="5,2" d="M224.9,-67.12C222.73,-96.01 219.59,-137.75 217.51,-165.35"/>
<polygon fill="#999999" stroke="#999999" points="214.04,-164.84 216.78,-175.07 221.02,-165.36 214.04,-164.84"/>
</g>
<!-- ret&#45;&gt;read_users -->
<g id="edge6" class="edge">
<title>ret&#45;&gt;read_users</title>
<path fill="none" stroke="#999999" d="M243.41,-62.78C249.08,-72.79 255.45,-84.03 261.06,-93.93"/>
<polygon fill="#999999" stroke="#999999" points="257.85,-95.37 265.83,-102.35 263.94,-91.92 257.85,-95.37"/>
</g>
</g>
</svg>
