<?xml version="1.0" encoding="UTF-8" standalone="no"?>
<!DOCTYPE svg PUBLIC "-//W3C//DTD SVG 1.1//EN"
 "http://www.w3.org/Graphics/SVG/1.1/DTD/svg11.dtd">
<!-- Generated by graphviz version 12.2.1 (0)
 -->
<!-- Pages: 1 -->
<svg width="385pt" height="614pt"
 viewBox="0.00 0.00 384.75 613.64" xmlns="http://www.w3.org/2000/svg" xmlns:xlink="http://www.w3.org/1999/xlink">
<g id="graph0" class="graph" transform="scale(1 1) rotate(0) translate(4 609.64)">
<polygon fill="white" stroke="none" points="-4,4 -4,-609.64 380.75,-609.64 380.75,4 -4,4"/>
<text text-anchor="middle" x="188.38" y="-586.44" font-family="Helvetica,sans-Serif" font-weight="bold" font-size="16.00">db.users.where({ id: 1 }).update({ name: &#39;Bob&#39; })</text>
<!-- start -->
<g id="node1" class="node">
<title>start</title>
<ellipse fill="white" stroke="black" cx="107.21" cy="-557.53" rx="23.6" ry="23.6"/>
<text text-anchor="middle" x="107.21" y="-553.08" font-family="Helvetica,sans-Serif" font-size="11.00">Start</text>
</g>
<!-- cs_users_0 -->
<g id="node2" class="node">
<title>cs_users_0</title>
<polygon fill="#e5e5e5" stroke="#999999" points="151.58,-496.93 62.83,-496.93 62.83,-460.93 151.58,-460.93 151.58,-496.93"/>
<text text-anchor="middle" x="107.21" y="-480.48" font-family="Helvetica,sans-Serif" font-size="11.00" fill="#666666">CollectionState</text>
<text text-anchor="middle" x="107.21" y="-468.48" font-family="Helvetica,sans-Serif" font-size="11.00" fill="#666666">(users, 0)</text>
</g>
<!-- cs_users_0&#45;&gt;start -->
<g id="edge1" class="edge">
<title>cs_users_0&#45;&gt;start</title>
<path fill="none" stroke="#999999" d="M107.21,-497.31C107.21,-504.72 107.21,-513.63 107.21,-522.26"/>
<polygon fill="#999999" stroke="#999999" points="103.71,-522.18 107.21,-532.18 110.71,-522.18 103.71,-522.18"/>
</g>
<!-- read_a -->
<g id="node3" class="node">
<title>read_a</title>
<polygon fill="#dae8fc" stroke="#6c8ebf" points="212.96,-423.93 123.46,-423.93 123.46,-379.93 212.96,-379.93 212.96,-423.93"/>
<text text-anchor="middle" x="168.21" y="-409.48" font-family="Helvetica,sans-Serif" font-size="11.00">Read (A)</text>
<text text-anchor="middle" x="168.21" y="-397.48" font-family="Helvetica,sans-Serif" font-size="11.00">(users, [id]</text>
<text text-anchor="middle" x="168.21" y="-385.48" font-family="Helvetica,sans-Serif" font-size="11.00">where=[id = 1])</text>
</g>
<!-- read_a&#45;&gt;cs_users_0 -->
<g id="edge2" class="edge">
<title>read_a&#45;&gt;cs_users_0</title>
<path fill="none" stroke="#999999" d="M150.89,-424.22C143.81,-432.93 135.56,-443.07 128.14,-452.19"/>
<polygon fill="#999999" stroke="#999999" points="125.63,-449.73 122.04,-459.7 131.06,-454.15 125.63,-449.73"/>
</g>
<!-- update_users -->
<g id="node4" class="node">
<title>update_users</title>
<polygon fill="#ffccbc" stroke="#e64a19" points="180.83,-324.43 75.58,-324.43 75.58,-268.43 180.83,-268.43 180.83,-324.43"/>
<text text-anchor="middle" x="128.21" y="-309.98" font-family="Helvetica,sans-Serif" font-size="11.00">Update</text>
<text text-anchor="middle" x="128.21" y="-297.98" font-family="Helvetica,sans-Serif" font-size="11.00">(users)</text>
<text text-anchor="middle" x="128.21" y="-285.98" font-family="Helvetica,sans-Serif" font-size="11.00">data={name:&#39;Bob&#39;}</text>
<text text-anchor="middle" x="128.21" y="-273.98" font-family="Helvetica,sans-Serif" font-size="11.00">where=[id = 1]</text>
</g>
<!-- update_users&#45;&gt;cs_users_0 -->
<g id="edge4" class="edge">
<title>update_users&#45;&gt;cs_users_0</title>
<path fill="none" stroke="#999999" d="M123.31,-324.55C122.27,-330.44 121.19,-336.64 120.21,-342.43 117.4,-359.07 116.15,-363.16 114.21,-379.93 111.53,-403.11 109.72,-429.51 108.61,-449.06"/>
<polygon fill="#999999" stroke="#999999" points="105.11,-448.86 108.07,-459.03 112.1,-449.23 105.11,-448.86"/>
</g>
<!-- update_users&#45;&gt;read_a -->
<g id="edge3" class="edge">
<title>update_users&#45;&gt;read_a</title>
<path fill="none" stroke="#2196f3" d="M124.02,-324.73C123.32,-336.59 124.07,-350.38 128.96,-361.93 130.3,-365.1 132.04,-368.15 134.03,-371.05"/>
<polygon fill="#2196f3" stroke="#2196f3" points="131.12,-373.02 140.15,-378.58 136.56,-368.61 131.12,-373.02"/>
<text text-anchor="middle" x="170.58" y="-353.38" font-family="Helvetica,sans-Serif" font-size="9.00" fill="#2196f3">FilterData</text>
<text text-anchor="middle" x="170.58" y="-343.63" font-family="Helvetica,sans-Serif" font-size="9.00" fill="#2196f3">(users.id &#45;&gt; users.id)</text>
</g>
<!-- cs_users_1 -->
<g id="node5" class="node">
<title>cs_users_1</title>
<polygon fill="#e5e5e5" stroke="#999999" points="192.58,-212.93 103.83,-212.93 103.83,-176.93 192.58,-176.93 192.58,-212.93"/>
<text text-anchor="middle" x="148.21" y="-196.48" font-family="Helvetica,sans-Serif" font-size="11.00" fill="#666666">CollectionState</text>
<text text-anchor="middle" x="148.21" y="-184.48" font-family="Helvetica,sans-Serif" font-size="11.00" fill="#666666">(users, 1)</text>
</g>
<!-- cs_users_1&#45;&gt;update_users -->
<g id="edge5" class="edge">
<title>cs_users_1&#45;&gt;update_users</title>
<path fill="none" stroke="#999999" d="M144.73,-213.26C142.3,-225.33 138.97,-241.91 135.93,-257.01"/>
<polygon fill="#999999" stroke="#999999" points="132.53,-256.2 133.99,-266.69 139.39,-257.58 132.53,-256.2"/>
</g>
<!-- read_b -->
<g id="node6" class="node">
<title>read_b</title>
<polygon fill="#dae8fc" stroke="#6c8ebf" points="242.33,-139.93 176.08,-139.93 176.08,-103.93 242.33,-103.93 242.33,-139.93"/>
<text text-anchor="middle" x="209.21" y="-123.48" font-family="Helvetica,sans-Serif" font-size="11.00">Read (B)</text>
<text text-anchor="middle" x="209.21" y="-111.48" font-family="Helvetica,sans-Serif" font-size="11.00">(users, [*])</text>
</g>
<!-- read_b&#45;&gt;read_a -->
<g id="edge6" class="edge">
<title>read_b&#45;&gt;read_a</title>
<path fill="none" stroke="#2196f3" d="M214.14,-140.14C224.85,-180.88 246.6,-285.49 212.21,-361.93 210.7,-365.28 208.75,-368.46 206.5,-371.45"/>
<polygon fill="#2196f3" stroke="#2196f3" points="204.08,-368.91 200.06,-378.71 209.32,-373.56 204.08,-368.91"/>
<text text-anchor="middle" x="272.29" y="-241.88" font-family="Helvetica,sans-Serif" font-size="9.00" fill="#2196f3">FilterData</text>
<text text-anchor="middle" x="272.29" y="-232.13" font-family="Helvetica,sans-Serif" font-size="9.00" fill="#2196f3">(users.id &#45;&gt; users.id)</text>
</g>
<!-- read_b&#45;&gt;cs_users_1 -->
<g id="edge7" class="edge">
<title>read_b&#45;&gt;cs_users_1</title>
<path fill="none" stroke="#999999" d="M194.44,-140.12C187.17,-148.58 178.27,-158.95 170.21,-168.32"/>
<polygon fill="#999999" stroke="#999999" points="167.69,-165.89 163.83,-175.75 173,-170.45 167.69,-165.89"/>
</g>
<!-- ret -->
<g id="node7" class="node">
<title>ret</title>
<ellipse fill="black" stroke="black" cx="160.21" cy="-33.47" rx="29.47" ry="29.47"/>
<ellipse fill="none" stroke="black" cx="160.21" cy="-33.47" rx="33.47" ry="33.47"/>
<text text-anchor="middle" x="160.21" y="-29.02" font-family="Helvetica,sans-Serif" font-size="11.00" fill="white">Return</text>
</g>
<!-- ret&#45;&gt;cs_users_1 -->
<g id="edge9" class="edge">
<title>ret&#45;&gt;cs_users_1</title>
<path fill="none" stroke="#999999" stroke-dasharray="5,2" d="M157.75,-67.12C155.58,-96.01 152.44,-137.75 150.36,-165.35"/>
<polygon fill="#999999" stroke="#999999" points="146.89,-164.84 149.63,-175.07 153.87,-165.36 146.89,-164.84"/>
</g>
<!-- ret&#45;&gt;read_b -->
<g id="edge8" class="edge">
<title>ret&#45;&gt;read_b</title>
<path fill="none" stroke="#999999" d="M176.25,-62.78C181.93,-72.79 188.3,-84.03 193.91,-93.93"/>
<polygon fill="#999999" stroke="#999999" points="190.7,-95.37 198.68,-102.35 196.79,-91.92 190.7,-95.37"/>
</g>
</g>
</svg>
