<?xml version="1.0" encoding="UTF-8" standalone="no"?>
<!DOCTYPE svg PUBLIC "-//W3C//DTD SVG 1.1//EN"
 "http://www.w3.org/Graphics/SVG/1.1/DTD/svg11.dtd">
<!-- Generated by graphviz version 12.2.1 (0)
 -->
<!-- Pages: 1 -->
<svg width="268pt" height="510pt"
 viewBox="0.00 0.00 267.75 510.14" xmlns="http://www.w3.org/2000/svg" xmlns:xlink="http://www.w3.org/1999/xlink">
<g id="graph0" class="graph" transform="scale(1 1) rotate(0) translate(4 506.14)">
<polygon fill="white" stroke="none" points="-4,4 -4,-506.14 263.75,-506.14 263.75,4 -4,4"/>
<text text-anchor="middle" x="129.88" y="-482.94" font-family="Helvetica,sans-Serif" font-weight="bold" font-size="16.00">db.users.where({ id: 1 }).delete()</text>
<!-- start -->
<g id="node1" class="node">
<title>start</title>
<ellipse fill="white" stroke="black" cx="159.42" cy="-454.03" rx="23.6" ry="23.6"/>
<text text-anchor="middle" x="159.42" y="-449.58" font-family="Helvetica,sans-Serif" font-size="11.00">Start</text>
</g>
<!-- cs_users_0 -->
<g id="node2" class="node">
<title>cs_users_0</title>
<polygon fill="#e5e5e5" stroke="#999999" points="203.8,-393.43 115.05,-393.43 115.05,-357.43 203.8,-357.43 203.8,-393.43"/>
<text text-anchor="middle" x="159.42" y="-376.98" font-family="Helvetica,sans-Serif" font-size="11.00" fill="#666666">CollectionState</text>
<text text-anchor="middle" x="159.42" y="-364.98" font-family="Helvetica,sans-Serif" font-size="11.00" fill="#666666">(users, 0)</text>
</g>
<!-- cs_users_0&#45;&gt;start -->
<g id="edge1" class="edge">
<title>cs_users_0&#45;&gt;start</title>
<path fill="none" stroke="#999999" d="M159.42,-393.81C159.42,-401.22 159.42,-410.13 159.42,-418.76"/>
<polygon fill="#999999" stroke="#999999" points="155.92,-418.68 159.42,-428.68 162.92,-418.68 155.92,-418.68"/>
</g>
<!-- read_users -->
<g id="node3" class="node">
<title>read_users</title>
<polygon fill="#dae8fc" stroke="#6c8ebf" points="155.17,-320.43 65.67,-320.43 65.67,-276.43 155.17,-276.43 155.17,-320.43"/>
<text text-anchor="middle" x="110.42" y="-305.98" font-family="Helvetica,sans-Serif" font-size="11.00">Read</text>
<text text-anchor="middle" x="110.42" y="-293.98" font-family="Helvetica,sans-Serif" font-size="11.00">(users, [*]</text>
<text text-anchor="middle" x="110.42" y="-281.98" font-family="Helvetica,sans-Serif" font-size="11.00">where=[id = 1])</text>
</g>
<!-- read_users&#45;&gt;cs_users_0 -->
<g id="edge2" class="edge">
<title>read_users&#45;&gt;cs_users_0</title>
<path fill="none" stroke="#999999" d="M124.33,-320.72C129.84,-329.16 136.23,-338.94 142.04,-347.83"/>
<polygon fill="#999999" stroke="#999999" points="139.05,-349.65 147.45,-356.1 144.91,-345.82 139.05,-349.65"/>
</g>
<!-- delete_users -->
<g id="node4" class="node">
<title>delete_users</title>
<polygon fill="#ffccbc" stroke="#e64a19" points="192.3,-220.93 106.55,-220.93 106.55,-176.93 192.3,-176.93 192.3,-220.93"/>
<text text-anchor="middle" x="149.42" y="-206.48" font-family="Helvetica,sans-Serif" font-size="11.00">Delete</text>
<text text-anchor="middle" x="149.42" y="-194.48" font-family="Helvetica,sans-Serif" font-size="11.00">(users)</text>
<text text-anchor="middle" x="149.42" y="-182.48" font-family="Helvetica,sans-Serif" font-size="11.00">where=[id = 1]</text>
</g>
<!-- delete_users&#45;&gt;cs_users_0 -->
<g id="edge4" class="edge">
<title>delete_users&#45;&gt;cs_users_0</title>
<path fill="none" stroke="#999999" d="M181.41,-221.35C186.69,-226.45 191.41,-232.35 194.42,-238.93 210.71,-274.6 192.55,-319.15 176.9,-347.2"/>
<polygon fill="#999999" stroke="#999999" points="173.91,-345.39 171.87,-355.79 179.95,-348.93 173.91,-345.39"/>
</g>
<!-- delete_users&#45;&gt;read_users -->
<g id="edge3" class="edge">
<title>delete_users&#45;&gt;read_users</title>
<path fill="none" stroke="#2196f3" d="M123,-221.21C118.2,-226.46 113.87,-232.45 111.17,-238.93 107.84,-246.93 106.65,-256.08 106.54,-264.74"/>
<polygon fill="#2196f3" stroke="#2196f3" points="103.03,-264.71 106.9,-274.57 110.03,-264.45 103.03,-264.71"/>
<text text-anchor="middle" x="152.8" y="-249.88" font-family="Helvetica,sans-Serif" font-size="9.00" fill="#2196f3">FilterData</text>
<text text-anchor="middle" x="152.8" y="-240.13" font-family="Helvetica,sans-Serif" font-size="9.00" fill="#2196f3">(users.id &#45;&gt; users.id)</text>
</g>
<!-- cs_users_1 -->
<g id="node5" class="node">
<title>cs_users_1</title>
<polygon fill="#e5e5e5" stroke="#999999" points="193.8,-139.93 105.05,-139.93 105.05,-103.93 193.8,-103.93 193.8,-139.93"/>
<text text-anchor="middle" x="149.42" y="-123.48" font-family="Helvetica,sans-Serif" font-size="11.00" fill="#666666">CollectionState</text>
<text text-anchor="middle" x="149.42" y="-111.48" font-family="Helvetica,sans-Serif" font-size="11.00" fill="#666666">(users, 1)</text>
</g>
<!-- cs_users_1&#45;&gt;delete_users -->
<g id="edge5" class="edge">
<title>cs_users_1&#45;&gt;delete_users</title>
<path fill="none" stroke="#999999" d="M149.42,-140.33C149.42,-147.76 149.42,-156.7 149.42,-165.29"/>
<polygon fill="#999999" stroke="#999999" points="145.92,-165.1 149.42,-175.1 152.92,-165.1 145.92,-165.1"/>
</g>
<!-- ret -->
<g id="node6" class="node">
<title>ret</title>
<ellipse fill="black" stroke="black" cx="89.42" cy="-33.47" rx="29.47" ry="29.47"/>
<ellipse fill="none" stroke="black" cx="89.42" cy="-33.47" rx="33.47" ry="33.47"/>
<text text-anchor="middle" x="89.42" y="-29.02" font-family="Helvetica,sans-Serif" font-size="11.00" fill="white">Return</text>
</g>
<!-- ret&#45;&gt;read_users -->
<g id="edge6" class="edge">
<title>ret&#45;&gt;read_users</title>
<path fill="none" stroke="#999999" d="M89.09,-67.36C89.16,-111.24 91.06,-191.22 102.42,-258.43 102.77,-260.49 103.14,-262.6 103.54,-264.73"/>
<polygon fill="#999999" stroke="#999999" points="100.1,-265.4 105.46,-274.54 106.97,-264.05 100.1,-265.4"/>
</g>
<!-- ret&#45;&gt;cs_users_1 -->
<g id="edge7" class="edge">
<title>ret&#45;&gt;cs_users_1</title>
<path fill="none" stroke="#999999" stroke-dasharray="5,2" d="M108.08,-61.35C115.32,-71.79 123.61,-83.73 130.85,-94.16"/>
<polygon fill="#999999" stroke="#999999" points="127.96,-96.14 136.54,-102.36 133.71,-92.15 127.96,-96.14"/>
</g>
</g>
</svg>
