<?xml version="1.0" encoding="UTF-8" standalone="no"?>
<!DOCTYPE svg PUBLIC "-//W3C//DTD SVG 1.1//EN"
 "http://www.w3.org/Graphics/SVG/1.1/DTD/svg11.dtd">
<!-- Generated by graphviz version 12.2.1 (0)
 -->
<!-- Pages: 1 -->
<svg width="395pt" height="569pt"
 viewBox="0.00 0.00 394.50 569.14" xmlns="http://www.w3.org/2000/svg" xmlns:xlink="http://www.w3.org/1999/xlink">
<g id="graph0" class="graph" transform="scale(1 1) rotate(0) translate(4 565.14)">
<polygon fill="white" stroke="none" points="-4,4 -4,-565.14 390.5,-565.14 390.5,4 -4,4"/>
<text text-anchor="middle" x="193.25" y="-541.94" font-family="Helvetica,sans-Serif" font-weight="bold" font-size="16.00">db.users.upsert({</text>
<text text-anchor="middle" x="193.25" y="-525.44" font-family="Helvetica,sans-Serif" font-weight="bold" font-size="16.00"> &#160;create: { id: 1, name: &#39;Alice&#39;, email: &#39;a@b.com&#39; },</text>
<text text-anchor="middle" x="193.25" y="-508.94" font-family="Helvetica,sans-Serif" font-weight="bold" font-size="16.00"> &#160;update: { name: &#39;Alice&#39; }</text>
<text text-anchor="middle" x="193.25" y="-492.44" font-family="Helvetica,sans-Serif" font-weight="bold" font-size="16.00">})</text>
<!-- start -->
<g id="node1" class="node">
<title>start</title>
<ellipse fill="white" stroke="black" cx="185.37" cy="-463.53" rx="23.6" ry="23.6"/>
<text text-anchor="middle" x="185.37" y="-459.08" font-family="Helvetica,sans-Serif" font-size="11.00">Start</text>
</g>
<!-- cs_users_0 -->
<g id="node2" class="node">
<title>cs_users_0</title>
<polygon fill="#e5e5e5" stroke="#999999" points="229.75,-402.93 141,-402.93 141,-366.93 229.75,-366.93 229.75,-402.93"/>
<text text-anchor="middle" x="185.37" y="-386.48" font-family="Helvetica,sans-Serif" font-size="11.00" fill="#666666">CollectionState</text>
<text text-anchor="middle" x="185.37" y="-374.48" font-family="Helvetica,sans-Serif" font-size="11.00" fill="#666666">(users, 0)</text>
</g>
<!-- cs_users_0&#45;&gt;start -->
<g id="edge1" class="edge">
<title>cs_users_0&#45;&gt;start</title>
<path fill="none" stroke="#999999" d="M185.37,-403.31C185.37,-410.72 185.37,-419.63 185.37,-428.26"/>
<polygon fill="#999999" stroke="#999999" points="181.87,-428.18 185.37,-438.18 188.87,-428.18 181.87,-428.18"/>
</g>
<!-- create_users -->
<g id="node3" class="node">
<title>create_users</title>
<polygon fill="#ffccbc" stroke="#e64a19" points="252.62,-329.93 118.12,-329.93 118.12,-249.93 252.62,-249.93 252.62,-329.93"/>
<text text-anchor="middle" x="185.37" y="-315.48" font-family="Helvetica,sans-Serif" font-size="11.00">Create</text>
<text text-anchor="middle" x="185.37" y="-303.48" font-family="Helvetica,sans-Serif" font-size="11.00">(users)</text>
<text text-anchor="middle" x="185.37" y="-291.48" font-family="Helvetica,sans-Serif" font-size="11.00">data={id:1, name:&#39;Alice&#39;,</text>
<text text-anchor="middle" x="185.37" y="-279.48" font-family="Helvetica,sans-Serif" font-size="11.00">email:&#39;a@b.com&#39;}</text>
<text text-anchor="middle" x="185.37" y="-267.48" font-family="Helvetica,sans-Serif" font-size="11.00">onConflict={columns:[id],</text>
<text text-anchor="middle" x="185.37" y="-255.48" font-family="Helvetica,sans-Serif" font-size="11.00">update:{name:&#39;Alice&#39;}}</text>
</g>
<!-- create_users&#45;&gt;cs_users_0 -->
<g id="edge2" class="edge">
<title>create_users&#45;&gt;cs_users_0</title>
<path fill="none" stroke="#999999" d="M185.37,-330.37C185.37,-338.69 185.37,-347.31 185.37,-355.15"/>
<polygon fill="#999999" stroke="#999999" points="181.87,-355.14 185.37,-365.14 188.87,-355.14 181.87,-355.14"/>
</g>
<!-- cs_users_1 -->
<g id="node4" class="node">
<title>cs_users_1</title>
<polygon fill="#e5e5e5" stroke="#999999" points="189.75,-212.93 101,-212.93 101,-176.93 189.75,-176.93 189.75,-212.93"/>
<text text-anchor="middle" x="145.37" y="-196.48" font-family="Helvetica,sans-Serif" font-size="11.00" fill="#666666">CollectionState</text>
<text text-anchor="middle" x="145.37" y="-184.48" font-family="Helvetica,sans-Serif" font-size="11.00" fill="#666666">(users, 1)</text>
</g>
<!-- cs_users_1&#45;&gt;create_users -->
<g id="edge3" class="edge">
<title>cs_users_1&#45;&gt;create_users</title>
<path fill="none" stroke="#999999" d="M152.9,-213.42C156.09,-220.84 159.98,-229.9 163.95,-239.13"/>
<polygon fill="#999999" stroke="#999999" points="160.67,-240.35 167.83,-248.15 167.1,-237.58 160.67,-240.35"/>
</g>
<!-- read_users -->
<g id="node5" class="node">
<title>read_users</title>
<polygon fill="#dae8fc" stroke="#6c8ebf" points="239.5,-139.93 173.25,-139.93 173.25,-103.93 239.5,-103.93 239.5,-139.93"/>
<text text-anchor="middle" x="206.37" y="-123.48" font-family="Helvetica,sans-Serif" font-size="11.00">Read</text>
<text text-anchor="middle" x="206.37" y="-111.48" font-family="Helvetica,sans-Serif" font-size="11.00">(users, [*])</text>
</g>
<!-- read_users&#45;&gt;create_users -->
<g id="edge4" class="edge">
<title>read_users&#45;&gt;create_users</title>
<path fill="none" stroke="#2196f3" d="M205.25,-140.23C203.98,-158.38 201.64,-187.73 198.37,-212.93 197.31,-221.14 196,-229.83 194.62,-238.27"/>
<polygon fill="#2196f3" stroke="#2196f3" points="191.18,-237.64 192.98,-248.08 198.08,-238.8 191.18,-237.64"/>
<text text-anchor="middle" x="243.88" y="-196.13" font-family="Helvetica,sans-Serif" font-size="9.00" fill="#2196f3">FilterData</text>
<text text-anchor="middle" x="243.88" y="-186.38" font-family="Helvetica,sans-Serif" font-size="9.00" fill="#2196f3">(users.id &#45;&gt; users.id)</text>
</g>
<!-- read_users&#45;&gt;cs_users_1 -->
<g id="edge5" class="edge">
<title>read_users&#45;&gt;cs_users_1</title>
<path fill="none" stroke="#999999" d="M191.61,-140.12C184.34,-148.58 175.43,-158.95 167.38,-168.32"/>
<polygon fill="#999999" stroke="#999999" points="164.85,-165.89 160.99,-175.75 170.16,-170.45 164.85,-165.89"/>
</g>
<!-- ret -->
<g id="node6" class="node">
<title>ret</title>
<ellipse fill="black" stroke="black" cx="157.37" cy="-33.47" rx="29.47" ry="29.47"/>
<ellipse fill="none" stroke="black" cx="157.37" cy="-33.47" rx="33.47" ry="33.47"/>
<text text-anchor="middle" x="157.37" y="-29.02" font-family="Helvetica,sans-Serif" font-size="11.00" fill="white">Return</text>
</g>
<!-- ret&#45;&gt;cs_users_1 -->
<g id="edge7" class="edge">
<title>ret&#45;&gt;cs_users_1</title>
<path fill="none" stroke="#999999" stroke-dasharray="5,2" d="M154.91,-67.12C152.74,-96.01 149.6,-137.75 147.52,-165.35"/>
<polygon fill="#999999" stroke="#999999" points="144.05,-164.84 146.79,-175.07 151.03,-165.36 144.05,-164.84"/>
</g>
<!-- ret&#45;&gt;read_users -->
<g id="edge6" class="edge">
<title>ret&#45;&gt;read_users</title>
<path fill="none" stroke="#999999" d="M173.42,-62.78C179.09,-72.79 185.46,-84.03 191.07,-93.93"/>
<polygon fill="#999999" stroke="#999999" points="187.86,-95.37 195.84,-102.35 193.95,-91.92 187.86,-95.37"/>
</g>
</g>
</svg>
