<?xml version="1.0" encoding="UTF-8" standalone="no"?>
<!DOCTYPE svg PUBLIC "-//W3C//DTD SVG 1.1//EN"
 "http://www.w3.org/Graphics/SVG/1.1/DTD/svg11.dtd">
<!-- Generated by graphviz version 12.2.1 (0)
 -->
<!-- Pages: 1 -->
<svg width="464pt" height="933pt"
 viewBox="0.00 0.00 464.25 933.39" xmlns="http://www.w3.org/2000/svg" xmlns:xlink="http://www.w3.org/1999/xlink">
<g id="graph0" class="graph" transform="scale(1 1) rotate(0) translate(4 929.39)">
<polygon fill="white" stroke="none" points="-4,4 -4,-929.39 460.25,-929.39 460.25,4 -4,4"/>
<text text-anchor="middle" x="228.12" y="-908.09" font-family="Helvetica,sans-Serif" font-weight="bold" font-size="14.00">db.users.include(&#39;posts&#39;).create({</text>
<text text-anchor="middle" x="228.12" y="-893.09" font-family="Helvetica,sans-Serif" font-weight="bold" font-size="14.00"> &#160;id: 1, name: &#39;Alice&#39;, email: &#39;a@b.com&#39;,</text>
<text text-anchor="middle" x="228.12" y="-878.09" font-family="Helvetica,sans-Serif" font-weight="bold" font-size="14.00"> &#160;posts: p =&gt; p.create([{ id: 10, title: &#39;Post 1&#39; }, { id: 11, title: &#39;Post 2&#39; }])</text>
<text text-anchor="middle" x="228.12" y="-863.09" font-family="Helvetica,sans-Serif" font-weight="bold" font-size="14.00">})</text>
<!-- start -->
<g id="node1" class="node">
<title>start</title>
<ellipse fill="white" stroke="black" cx="289.94" cy="-833.78" rx="23.6" ry="23.6"/>
<text text-anchor="middle" x="289.94" y="-829.33" font-family="Helvetica,sans-Serif" font-size="11.00">Start</text>
</g>
<!-- cs_users_0 -->
<g id="node2" class="node">
<title>cs_users_0</title>
<polygon fill="#e5e5e5" stroke="#999999" points="296.31,-773.18 207.56,-773.18 207.56,-737.18 296.31,-737.18 296.31,-773.18"/>
<text text-anchor="middle" x="251.94" y="-756.73" font-family="Helvetica,sans-Serif" font-size="11.00" fill="#666666">CollectionState</text>
<text text-anchor="middle" x="251.94" y="-744.73" font-family="Helvetica,sans-Serif" font-size="11.00" fill="#666666">(users, 0)</text>
</g>
<!-- cs_users_0&#45;&gt;start -->
<g id="edge1" class="edge">
<title>cs_users_0&#45;&gt;start</title>
<path fill="none" stroke="#999999" d="M260.56,-773.56C264.74,-781.99 269.89,-792.37 274.7,-802.07"/>
<polygon fill="#999999" stroke="#999999" points="271.48,-803.45 279.06,-810.85 277.75,-800.34 271.48,-803.45"/>
</g>
<!-- cs_posts_0 -->
<g id="node3" class="node">
<title>cs_posts_0</title>
<polygon fill="#e5e5e5" stroke="#999999" points="367.31,-553.18 278.56,-553.18 278.56,-517.18 367.31,-517.18 367.31,-553.18"/>
<text text-anchor="middle" x="322.94" y="-536.73" font-family="Helvetica,sans-Serif" font-size="11.00" fill="#666666">CollectionState</text>
<text text-anchor="middle" x="322.94" y="-524.73" font-family="Helvetica,sans-Serif" font-size="11.00" fill="#666666">(posts, 0)</text>
</g>
<!-- cs_posts_0&#45;&gt;start -->
<g id="edge2" class="edge">
<title>cs_posts_0&#45;&gt;start</title>
<path fill="none" stroke="#999999" d="M324.8,-553.55C326.56,-571.47 328.94,-600.25 328.94,-625.18 328.94,-625.18 328.94,-625.18 328.94,-756.18 328.94,-773.95 320.5,-791.77 311.47,-805.74"/>
<polygon fill="#999999" stroke="#999999" points="308.61,-803.73 305.77,-813.94 314.35,-807.73 308.61,-803.73"/>
</g>
<!-- create_users -->
<g id="node4" class="node">
<title>create_users</title>
<polygon fill="#ffccbc" stroke="#e64a19" points="300.69,-700.18 169.19,-700.18 169.19,-644.18 300.69,-644.18 300.69,-700.18"/>
<text text-anchor="middle" x="234.94" y="-685.73" font-family="Helvetica,sans-Serif" font-size="11.00">Create</text>
<text text-anchor="middle" x="234.94" y="-673.73" font-family="Helvetica,sans-Serif" font-size="11.00">(users)</text>
<text text-anchor="middle" x="234.94" y="-661.73" font-family="Helvetica,sans-Serif" font-size="11.00">data={id:1, name:&#39;Alice&#39;,</text>
<text text-anchor="middle" x="234.94" y="-649.73" font-family="Helvetica,sans-Serif" font-size="11.00">email:&#39;a@b.com&#39;}</text>
</g>
<!-- create_users&#45;&gt;cs_users_0 -->
<g id="edge3" class="edge">
<title>create_users&#45;&gt;cs_users_0</title>
<path fill="none" stroke="#999999" d="M240.69,-700.6C242.38,-708.62 244.22,-717.4 245.92,-725.5"/>
<polygon fill="#999999" stroke="#999999" points="242.48,-726.14 247.96,-735.21 249.33,-724.71 242.48,-726.14"/>
</g>
<!-- cs_users_1 -->
<g id="node5" class="node">
<title>cs_users_1</title>
<polygon fill="#e5e5e5" stroke="#999999" points="301.31,-607.18 212.56,-607.18 212.56,-571.18 301.31,-571.18 301.31,-607.18"/>
<text text-anchor="middle" x="256.94" y="-590.73" font-family="Helvetica,sans-Serif" font-size="11.00" fill="#666666">CollectionState</text>
<text text-anchor="middle" x="256.94" y="-578.73" font-family="Helvetica,sans-Serif" font-size="11.00" fill="#666666">(users, 1)</text>
</g>
<!-- cs_users_1&#45;&gt;create_users -->
<g id="edge4" class="edge">
<title>cs_users_1&#45;&gt;create_users</title>
<path fill="none" stroke="#999999" d="M252.27,-607.36C250.25,-614.8 247.79,-623.84 245.38,-632.75"/>
<polygon fill="#999999" stroke="#999999" points="242.01,-631.8 242.76,-642.37 248.76,-633.64 242.01,-631.8"/>
</g>
<!-- read_users -->
<g id="node6" class="node">
<title>read_users</title>
<polygon fill="#dae8fc" stroke="#6c8ebf" points="202.06,-499.18 135.81,-499.18 135.81,-463.18 202.06,-463.18 202.06,-499.18"/>
<text text-anchor="middle" x="168.94" y="-482.73" font-family="Helvetica,sans-Serif" font-size="11.00">Read</text>
<text text-anchor="middle" x="168.94" y="-470.73" font-family="Helvetica,sans-Serif" font-size="11.00">(users, [*])</text>
</g>
<!-- read_users&#45;&gt;create_users -->
<g id="edge5" class="edge">
<title>read_users&#45;&gt;create_users</title>
<path fill="none" stroke="#2196f3" d="M152.75,-499.55C131.61,-524.46 99.63,-571.26 120.69,-607.18 129.68,-622.53 143.86,-634.48 159.2,-643.67"/>
<polygon fill="#2196f3" stroke="#2196f3" points="157.1,-646.51 167.55,-648.3 160.5,-640.39 157.1,-646.51"/>
<text text-anchor="middle" x="162.31" y="-590.38" font-family="Helvetica,sans-Serif" font-size="9.00" fill="#2196f3">FilterData</text>
<text text-anchor="middle" x="162.31" y="-580.63" font-family="Helvetica,sans-Serif" font-size="9.00" fill="#2196f3">(users.id &#45;&gt; users.id)</text>
</g>
<!-- read_users&#45;&gt;cs_users_1 -->
<g id="edge6" class="edge">
<title>read_users&#45;&gt;cs_users_1</title>
<path fill="none" stroke="#999999" d="M183.08,-499.21C197.17,-516.19 219,-542.48 235.28,-562.09"/>
<polygon fill="#999999" stroke="#999999" points="232.49,-564.22 241.57,-569.68 237.88,-559.75 232.49,-564.22"/>
</g>
<!-- create_posts -->
<g id="node7" class="node">
<title>create_posts</title>
<polygon fill="#ffccbc" stroke="#e64a19" points="328.56,-407.68 187.31,-407.68 187.31,-351.68 328.56,-351.68 328.56,-407.68"/>
<text text-anchor="middle" x="257.94" y="-393.23" font-family="Helvetica,sans-Serif" font-size="11.00">Create</text>
<text text-anchor="middle" x="257.94" y="-381.23" font-family="Helvetica,sans-Serif" font-size="11.00">(posts)</text>
<text text-anchor="middle" x="257.94" y="-369.23" font-family="Helvetica,sans-Serif" font-size="11.00">data=[{id:10, title:&#39;Post 1&#39;},</text>
<text text-anchor="middle" x="257.94" y="-357.23" font-family="Helvetica,sans-Serif" font-size="11.00">{id:11, title:&#39;Post 2&#39;}]</text>
</g>
<!-- create_posts&#45;&gt;cs_posts_0 -->
<g id="edge8" class="edge">
<title>create_posts&#45;&gt;cs_posts_0</title>
<path fill="none" stroke="#999999" d="M290.36,-408.09C295.19,-413.48 299.65,-419.42 302.94,-425.68 316.08,-450.69 320.72,-482.9 322.29,-505.71"/>
<polygon fill="#999999" stroke="#999999" points="318.78,-505.68 322.79,-515.49 325.77,-505.32 318.78,-505.68"/>
</g>
<!-- create_posts&#45;&gt;read_users -->
<g id="edge7" class="edge">
<title>create_posts&#45;&gt;read_users</title>
<path fill="none" stroke="#ff9800" d="M220.53,-408.08C214.14,-413.56 207.84,-419.53 202.44,-425.68 195.25,-433.87 188.65,-443.78 183.25,-452.9"/>
<polygon fill="#ff9800" stroke="#ff9800" points="180.32,-450.97 178.43,-461.4 186.41,-454.43 180.32,-450.97"/>
<text text-anchor="middle" x="252.69" y="-436.63" font-family="Helvetica,sans-Serif" font-size="9.00" fill="#ff9800">PayloadData</text>
<text text-anchor="middle" x="252.69" y="-426.88" font-family="Helvetica,sans-Serif" font-size="9.00" fill="#ff9800">(users.id &#45;&gt; posts.userId)</text>
</g>
<!-- cs_posts_1 -->
<g id="node8" class="node">
<title>cs_posts_1</title>
<polygon fill="#e5e5e5" stroke="#999999" points="370.31,-314.68 281.56,-314.68 281.56,-278.68 370.31,-278.68 370.31,-314.68"/>
<text text-anchor="middle" x="325.94" y="-298.23" font-family="Helvetica,sans-Serif" font-size="11.00" fill="#666666">CollectionState</text>
<text text-anchor="middle" x="325.94" y="-286.23" font-family="Helvetica,sans-Serif" font-size="11.00" fill="#666666">(posts, 1)</text>
</g>
<!-- cs_posts_1&#45;&gt;create_posts -->
<g id="edge9" class="edge">
<title>cs_posts_1&#45;&gt;create_posts</title>
<path fill="none" stroke="#999999" d="M311.52,-314.86C304.71,-322.97 296.32,-332.96 288.21,-342.62"/>
<polygon fill="#999999" stroke="#999999" points="285.62,-340.26 281.87,-350.17 290.98,-344.76 285.62,-340.26"/>
</g>
<!-- read_posts -->
<g id="node9" class="node">
<title>read_posts</title>
<polygon fill="#dae8fc" stroke="#6c8ebf" points="227.69,-241.68 162.19,-241.68 162.19,-205.68 227.69,-205.68 227.69,-241.68"/>
<text text-anchor="middle" x="194.94" y="-225.23" font-family="Helvetica,sans-Serif" font-size="11.00">Read</text>
<text text-anchor="middle" x="194.94" y="-213.23" font-family="Helvetica,sans-Serif" font-size="11.00">(posts, [*])</text>
</g>
<!-- read_posts&#45;&gt;create_posts -->
<g id="edge10" class="edge">
<title>read_posts&#45;&gt;create_posts</title>
<path fill="none" stroke="#2196f3" d="M189.93,-242.06C185.49,-260.79 181.12,-291.09 191.19,-314.68 195.68,-325.2 202.84,-334.83 210.83,-343.23"/>
<polygon fill="#2196f3" stroke="#2196f3" points="208.35,-345.7 217.96,-350.17 213.24,-340.69 208.35,-345.7"/>
<text text-anchor="middle" x="232.06" y="-297.88" font-family="Helvetica,sans-Serif" font-size="9.00" fill="#2196f3">FilterData</text>
<text text-anchor="middle" x="232.06" y="-288.13" font-family="Helvetica,sans-Serif" font-size="9.00" fill="#2196f3">(posts.id &#45;&gt; posts.id)</text>
</g>
<!-- read_posts&#45;&gt;cs_posts_1 -->
<g id="edge11" class="edge">
<title>read_posts&#45;&gt;cs_posts_1</title>
<path fill="none" stroke="#999999" d="M226.98,-242.05C244.11,-251.33 265.41,-262.88 283.86,-272.87"/>
<polygon fill="#999999" stroke="#999999" points="281.98,-275.84 292.44,-277.52 285.31,-269.68 281.98,-275.84"/>
</g>
<!-- nest -->
<g id="node10" class="node">
<title>nest</title>
<polygon fill="#d5e8d4" stroke="#82b366" points="221.81,-159.93 118.06,-159.93 118.06,-103.93 221.81,-103.93 221.81,-159.93"/>
<text text-anchor="middle" x="169.94" y="-145.48" font-family="Helvetica,sans-Serif" font-size="11.00">Nest</text>
<text text-anchor="middle" x="169.94" y="-133.48" font-family="Helvetica,sans-Serif" font-size="11.00">leftKeys=[id]</text>
<text text-anchor="middle" x="169.94" y="-121.48" font-family="Helvetica,sans-Serif" font-size="11.00">rightKeys=[userId]</text>
<text text-anchor="middle" x="169.94" y="-109.48" font-family="Helvetica,sans-Serif" font-size="11.00">field=posts</text>
</g>
<!-- nest&#45;&gt;read_users -->
<g id="edge12" class="edge">
<title>nest&#45;&gt;read_users</title>
<path fill="none" stroke="#999999" d="M152.78,-160.11C143.51,-177.35 133.94,-200.52 133.94,-222.68 133.94,-222.68 133.94,-222.68 133.94,-380.68 133.94,-406.06 144.19,-433.11 153.6,-452.6"/>
<polygon fill="#999999" stroke="#999999" points="150.48,-454.18 158.13,-461.51 156.72,-451.01 150.48,-454.18"/>
<text text-anchor="middle" x="139.94" y="-293.01" font-family="Helvetica,sans-Serif" font-size="9.00">left</text>
</g>
<!-- nest&#45;&gt;read_posts -->
<g id="edge13" class="edge">
<title>nest&#45;&gt;read_posts</title>
<path fill="none" stroke="#999999" d="M177.57,-160.35C180.57,-171.1 184.01,-183.43 187.03,-194.28"/>
<polygon fill="#999999" stroke="#999999" points="183.64,-195.16 189.69,-203.86 190.38,-193.29 183.64,-195.16"/>
<text text-anchor="middle" x="193.68" y="-179.13" font-family="Helvetica,sans-Serif" font-size="9.00">right</text>
</g>
<!-- ret -->
<g id="node11" class="node">
<title>ret</title>
<ellipse fill="black" stroke="black" cx="169.94" cy="-33.47" rx="29.47" ry="29.47"/>
<ellipse fill="none" stroke="black" cx="169.94" cy="-33.47" rx="33.47" ry="33.47"/>
<text text-anchor="middle" x="169.94" y="-29.02" font-family="Helvetica,sans-Serif" font-size="11.00" fill="white">Return</text>
</g>
<!-- ret&#45;&gt;cs_users_1 -->
<g id="edge15" class="edge">
<title>ret&#45;&gt;cs_users_1</title>
<path fill="none" stroke="#999999" stroke-dasharray="5,2" d="M141.5,-51.27C117.13,-68.04 85.94,-96.29 85.94,-130.93 85.94,-130.93 85.94,-130.93 85.94,-482.18 85.94,-510.06 152.44,-544.39 202.5,-566.28"/>
<polygon fill="#999999" stroke="#999999" points="200.94,-569.42 211.51,-570.16 203.71,-562.99 200.94,-569.42"/>
</g>
<!-- ret&#45;&gt;cs_posts_1 -->
<g id="edge16" class="edge">
<title>ret&#45;&gt;cs_posts_1</title>
<path fill="none" stroke="#999999" stroke-dasharray="5,2" d="M193.33,-57.95C205.44,-70.85 219.95,-87.53 230.94,-103.93 267.54,-158.57 298.95,-229.33 314.84,-267.79"/>
<polygon fill="#999999" stroke="#999999" points="311.5,-268.85 318.52,-276.79 317.98,-266.21 311.5,-268.85"/>
</g>
<!-- ret&#45;&gt;nest -->
<g id="edge14" class="edge">
<title>ret&#45;&gt;nest</title>
<path fill="none" stroke="#999999" d="M169.94,-67.39C169.94,-75.41 169.94,-84.05 169.94,-92.3"/>
<polygon fill="#999999" stroke="#999999" points="166.44,-92.08 169.94,-102.08 173.44,-92.08 166.44,-92.08"/>
</g>
</g>
</svg>
