<?xml version="1.0" encoding="UTF-8" standalone="no"?>
<!DOCTYPE svg PUBLIC "-//W3C//DTD SVG 1.1//EN"
 "http://www.w3.org/Graphics/SVG/1.1/DTD/svg11.dtd">
<!-- Generated by graphviz version 12.2.1 (0)
 -->
<!-- Pages: 1 -->
<svg width="428pt" height="820pt"
 viewBox="0.00 0.00 427.50 819.64" xmlns="http://www.w3.org/2000/svg" xmlns:xlink="http://www.w3.org/1999/xlink">
<g id="graph0" class="graph" transform="scale(1 1) rotate(0) translate(4 815.64)">
<polygon fill="white" stroke="none" points="-4,4 -4,-815.64 423.5,-815.64 423.5,4 -4,4"/>
<text text-anchor="middle" x="209.75" y="-794.34" font-family="Helvetica,sans-Serif" font-weight="bold" font-size="14.00">db.posts.create({</text>
<text text-anchor="middle" x="209.75" y="-779.34" font-family="Helvetica,sans-Serif" font-weight="bold" font-size="14.00"> &#160;id: 10, title: &#39;Post 1&#39;,</text>
<text text-anchor="middle" x="209.75" y="-764.34" font-family="Helvetica,sans-Serif" font-weight="bold" font-size="14.00"> &#160;author: a =&gt; a.create({ id: 1, name: &#39;Alice&#39;, email: &#39;a@b.com&#39; })</text>
<text text-anchor="middle" x="209.75" y="-749.34" font-family="Helvetica,sans-Serif" font-weight="bold" font-size="14.00">})</text>
<!-- start -->
<g id="node1" class="node">
<title>start</title>
<ellipse fill="white" stroke="black" cx="269.25" cy="-720.03" rx="23.6" ry="23.6"/>
<text text-anchor="middle" x="269.25" y="-715.58" font-family="Helvetica,sans-Serif" font-size="11.00">Start</text>
</g>
<!-- cs_users_0 -->
<g id="node2" class="node">
<title>cs_users_0</title>
<polygon fill="#e5e5e5" stroke="#999999" points="267.62,-659.43 178.88,-659.43 178.88,-623.43 267.62,-623.43 267.62,-659.43"/>
<text text-anchor="middle" x="223.25" y="-642.98" font-family="Helvetica,sans-Serif" font-size="11.00" fill="#666666">CollectionState</text>
<text text-anchor="middle" x="223.25" y="-630.98" font-family="Helvetica,sans-Serif" font-size="11.00" fill="#666666">(users, 0)</text>
</g>
<!-- cs_users_0&#45;&gt;start -->
<g id="edge1" class="edge">
<title>cs_users_0&#45;&gt;start</title>
<path fill="none" stroke="#999999" d="M233.69,-659.81C238.98,-668.62 245.54,-679.55 251.59,-689.62"/>
<polygon fill="#999999" stroke="#999999" points="248.47,-691.22 256.61,-697.99 254.47,-687.62 248.47,-691.22"/>
</g>
<!-- cs_posts_0 -->
<g id="node3" class="node">
<title>cs_posts_0</title>
<polygon fill="#e5e5e5" stroke="#999999" points="349.62,-439.43 260.88,-439.43 260.88,-403.43 349.62,-403.43 349.62,-439.43"/>
<text text-anchor="middle" x="305.25" y="-422.98" font-family="Helvetica,sans-Serif" font-size="11.00" fill="#666666">CollectionState</text>
<text text-anchor="middle" x="305.25" y="-410.98" font-family="Helvetica,sans-Serif" font-size="11.00" fill="#666666">(posts, 0)</text>
</g>
<!-- cs_posts_0&#45;&gt;start -->
<g id="edge2" class="edge">
<title>cs_posts_0&#45;&gt;start</title>
<path fill="none" stroke="#999999" d="M305.25,-439.83C305.25,-457.77 305.25,-486.55 305.25,-511.43 305.25,-511.43 305.25,-511.43 305.25,-642.43 305.25,-659.69 297.67,-677.25 289.46,-691.19"/>
<polygon fill="#999999" stroke="#999999" points="286.68,-689.04 284.29,-699.36 292.59,-692.78 286.68,-689.04"/>
</g>
<!-- create_users -->
<g id="node4" class="node">
<title>create_users</title>
<polygon fill="#ffccbc" stroke="#e64a19" points="260,-586.43 128.5,-586.43 128.5,-530.43 260,-530.43 260,-586.43"/>
<text text-anchor="middle" x="194.25" y="-571.98" font-family="Helvetica,sans-Serif" font-size="11.00">Create</text>
<text text-anchor="middle" x="194.25" y="-559.98" font-family="Helvetica,sans-Serif" font-size="11.00">(users)</text>
<text text-anchor="middle" x="194.25" y="-547.98" font-family="Helvetica,sans-Serif" font-size="11.00">data={id:1, name:&#39;Alice&#39;,</text>
<text text-anchor="middle" x="194.25" y="-535.98" font-family="Helvetica,sans-Serif" font-size="11.00">email:&#39;a@b.com&#39;}</text>
</g>
<!-- create_users&#45;&gt;cs_users_0 -->
<g id="edge3" class="edge">
<title>create_users&#45;&gt;cs_users_0</title>
<path fill="none" stroke="#999999" d="M204.07,-586.85C207.01,-595.06 210.23,-604.06 213.18,-612.31"/>
<polygon fill="#999999" stroke="#999999" points="209.81,-613.28 216.48,-621.52 216.4,-610.92 209.81,-613.28"/>
</g>
<!-- cs_users_1 -->
<g id="node5" class="node">
<title>cs_users_1</title>
<polygon fill="#e5e5e5" stroke="#999999" points="158.62,-493.43 69.88,-493.43 69.88,-457.43 158.62,-457.43 158.62,-493.43"/>
<text text-anchor="middle" x="114.25" y="-476.98" font-family="Helvetica,sans-Serif" font-size="11.00" fill="#666666">CollectionState</text>
<text text-anchor="middle" x="114.25" y="-464.98" font-family="Helvetica,sans-Serif" font-size="11.00" fill="#666666">(users, 1)</text>
</g>
<!-- cs_users_1&#45;&gt;create_users -->
<g id="edge4" class="edge">
<title>cs_users_1&#45;&gt;create_users</title>
<path fill="none" stroke="#999999" d="M131.22,-493.61C139.39,-501.88 149.5,-512.12 159.22,-521.96"/>
<polygon fill="#999999" stroke="#999999" points="156.65,-524.35 166.17,-529 161.63,-519.43 156.65,-524.35"/>
</g>
<!-- read_users -->
<g id="node6" class="node">
<title>read_users</title>
<polygon fill="#dae8fc" stroke="#6c8ebf" points="224.25,-385.43 154.25,-385.43 154.25,-349.43 224.25,-349.43 224.25,-385.43"/>
<text text-anchor="middle" x="189.25" y="-368.98" font-family="Helvetica,sans-Serif" font-size="11.00">Read</text>
<text text-anchor="middle" x="189.25" y="-356.98" font-family="Helvetica,sans-Serif" font-size="11.00">(users, [id])</text>
</g>
<!-- read_users&#45;&gt;create_users -->
<g id="edge5" class="edge">
<title>read_users&#45;&gt;create_users</title>
<path fill="none" stroke="#2196f3" d="M189.71,-385.87C190.51,-415.9 192.15,-478.04 193.23,-518.71"/>
<polygon fill="#2196f3" stroke="#2196f3" points="189.72,-518.66 193.49,-528.56 196.72,-518.47 189.72,-518.66"/>
<text text-anchor="middle" x="234.17" y="-476.63" font-family="Helvetica,sans-Serif" font-size="9.00" fill="#2196f3">FilterData</text>
<text text-anchor="middle" x="234.17" y="-466.88" font-family="Helvetica,sans-Serif" font-size="9.00" fill="#2196f3">(users.id &#45;&gt; users.id)</text>
</g>
<!-- read_users&#45;&gt;cs_users_1 -->
<g id="edge6" class="edge">
<title>read_users&#45;&gt;cs_users_1</title>
<path fill="none" stroke="#999999" d="M177.2,-385.46C165.3,-402.28 146.92,-428.26 133.09,-447.81"/>
<polygon fill="#999999" stroke="#999999" points="130.31,-445.67 127.39,-455.85 136.03,-449.71 130.31,-445.67"/>
</g>
<!-- create_posts -->
<g id="node7" class="node">
<title>create_posts</title>
<polygon fill="#ffccbc" stroke="#e64a19" points="307.88,-293.93 172.62,-293.93 172.62,-249.93 307.88,-249.93 307.88,-293.93"/>
<text text-anchor="middle" x="240.25" y="-279.48" font-family="Helvetica,sans-Serif" font-size="11.00">Create</text>
<text text-anchor="middle" x="240.25" y="-267.48" font-family="Helvetica,sans-Serif" font-size="11.00">(posts)</text>
<text text-anchor="middle" x="240.25" y="-255.48" font-family="Helvetica,sans-Serif" font-size="11.00">data={id:10, title:&#39;Post 1&#39;}</text>
</g>
<!-- create_posts&#45;&gt;cs_posts_0 -->
<g id="edge8" class="edge">
<title>create_posts&#45;&gt;cs_posts_0</title>
<path fill="none" stroke="#999999" d="M275.98,-294.29C281.93,-299.36 287.41,-305.27 291.25,-311.93 305.25,-336.2 307.76,-368.52 307.38,-391.56"/>
<polygon fill="#999999" stroke="#999999" points="303.89,-391.34 307,-401.47 310.88,-391.61 303.89,-391.34"/>
</g>
<!-- create_posts&#45;&gt;read_users -->
<g id="edge7" class="edge">
<title>create_posts&#45;&gt;read_users</title>
<path fill="none" stroke="#ff9800" d="M204.78,-294.38C199.15,-299.42 194.09,-305.28 190.75,-311.93 186.81,-319.78 185.53,-329.1 185.49,-337.8"/>
<polygon fill="#ff9800" stroke="#ff9800" points="181.99,-337.76 186.01,-347.56 188.98,-337.38 181.99,-337.76"/>
<text text-anchor="middle" x="241" y="-322.88" font-family="Helvetica,sans-Serif" font-size="9.00" fill="#ff9800">PayloadData</text>
<text text-anchor="middle" x="241" y="-313.13" font-family="Helvetica,sans-Serif" font-size="9.00" fill="#ff9800">(users.id &#45;&gt; posts.userId)</text>
</g>
<!-- cs_posts_1 -->
<g id="node8" class="node">
<title>cs_posts_1</title>
<polygon fill="#e5e5e5" stroke="#999999" points="230.62,-212.93 141.88,-212.93 141.88,-176.93 230.62,-176.93 230.62,-212.93"/>
<text text-anchor="middle" x="186.25" y="-196.48" font-family="Helvetica,sans-Serif" font-size="11.00" fill="#666666">CollectionState</text>
<text text-anchor="middle" x="186.25" y="-184.48" font-family="Helvetica,sans-Serif" font-size="11.00" fill="#666666">(posts, 1)</text>
</g>
<!-- cs_posts_1&#45;&gt;create_posts -->
<g id="edge9" class="edge">
<title>cs_posts_1&#45;&gt;create_posts</title>
<path fill="none" stroke="#999999" d="M198.77,-213.33C204.56,-221.36 211.59,-231.13 218.22,-240.33"/>
<polygon fill="#999999" stroke="#999999" points="215.33,-242.32 224.02,-248.39 221.02,-238.23 215.33,-242.32"/>
</g>
<!-- read_posts -->
<g id="node9" class="node">
<title>read_posts</title>
<polygon fill="#dae8fc" stroke="#6c8ebf" points="250,-139.93 184.5,-139.93 184.5,-103.93 250,-103.93 250,-139.93"/>
<text text-anchor="middle" x="217.25" y="-123.48" font-family="Helvetica,sans-Serif" font-size="11.00">Read</text>
<text text-anchor="middle" x="217.25" y="-111.48" font-family="Helvetica,sans-Serif" font-size="11.00">(posts, [*])</text>
</g>
<!-- read_posts&#45;&gt;create_posts -->
<g id="edge10" class="edge">
<title>read_posts&#45;&gt;create_posts</title>
<path fill="none" stroke="#2196f3" d="M226.33,-140.4C231.19,-150.73 236.69,-164.23 239.25,-176.93 243.3,-197.05 243.61,-220.08 242.88,-238.31"/>
<polygon fill="#2196f3" stroke="#2196f3" points="239.39,-238.1 242.35,-248.28 246.38,-238.48 239.39,-238.1"/>
<text text-anchor="middle" x="283.9" y="-196.13" font-family="Helvetica,sans-Serif" font-size="9.00" fill="#2196f3">FilterData</text>
<text text-anchor="middle" x="283.9" y="-186.38" font-family="Helvetica,sans-Serif" font-size="9.00" fill="#2196f3">(posts.id &#45;&gt; posts.id)</text>
</g>
<!-- read_posts&#45;&gt;cs_posts_1 -->
<g id="edge11" class="edge">
<title>read_posts&#45;&gt;cs_posts_1</title>
<path fill="none" stroke="#999999" d="M209.75,-140.12C206.28,-148.05 202.08,-157.67 198.2,-166.57"/>
<polygon fill="#999999" stroke="#999999" points="195.08,-164.95 194.29,-175.52 201.5,-167.75 195.08,-164.95"/>
</g>
<!-- ret -->
<g id="node10" class="node">
<title>ret</title>
<ellipse fill="black" stroke="black" cx="156.25" cy="-33.47" rx="29.47" ry="29.47"/>
<ellipse fill="none" stroke="black" cx="156.25" cy="-33.47" rx="33.47" ry="33.47"/>
<text text-anchor="middle" x="156.25" y="-29.02" font-family="Helvetica,sans-Serif" font-size="11.00" fill="white">Return</text>
</g>
<!-- ret&#45;&gt;cs_users_1 -->
<g id="edge13" class="edge">
<title>ret&#45;&gt;cs_users_1</title>
<path fill="none" stroke="#999999" stroke-dasharray="5,2" d="M135.99,-60.54C125.25,-76.94 114.25,-99.07 114.25,-120.93 114.25,-120.93 114.25,-120.93 114.25,-368.43 114.25,-394.58 114.25,-424.36 114.25,-445.69"/>
<polygon fill="#999999" stroke="#999999" points="110.75,-445.66 114.25,-455.66 117.75,-445.66 110.75,-445.66"/>
</g>
<!-- ret&#45;&gt;cs_posts_1 -->
<g id="edge14" class="edge">
<title>ret&#45;&gt;cs_posts_1</title>
<path fill="none" stroke="#999999" stroke-dasharray="5,2" d="M161.88,-66.81C165.57,-87.7 170.55,-115.45 175.25,-139.93 176.82,-148.14 178.61,-157.03 180.27,-165.19"/>
<polygon fill="#999999" stroke="#999999" points="176.84,-165.87 182.28,-174.96 183.69,-164.46 176.84,-165.87"/>
</g>
<!-- ret&#45;&gt;read_posts -->
<g id="edge12" class="edge">
<title>ret&#45;&gt;read_posts</title>
<path fill="none" stroke="#999999" d="M175.22,-61.35C182.66,-71.9 191.18,-83.98 198.59,-94.49"/>
<polygon fill="#999999" stroke="#999999" points="195.53,-96.22 204.16,-102.37 201.25,-92.18 195.53,-96.22"/>
</g>
</g>
</svg>
