<?xml version="1.0" encoding="UTF-8" standalone="no"?>
<!DOCTYPE svg PUBLIC "-//W3C//DTD SVG 1.1//EN"
 "http://www.w3.org/Graphics/SVG/1.1/DTD/svg11.dtd">
<!-- Generated by graphviz version 12.2.1 (0)
 -->
<!-- Pages: 1 -->
<svg width="231pt" height="662pt"
 viewBox="0.00 0.00 231.00 661.64" xmlns="http://www.w3.org/2000/svg" xmlns:xlink="http://www.w3.org/1999/xlink">
<g id="graph0" class="graph" transform="scale(1 1) rotate(0) translate(4 657.64)">
<polygon fill="white" stroke="none" points="-4,4 -4,-657.64 227,-657.64 227,4 -4,4"/>
<text text-anchor="middle" x="111.5" y="-636.34" font-family="Helvetica,sans-Serif" font-weight="bold" font-size="14.00">db.posts.create({</text>
<text text-anchor="middle" x="111.5" y="-621.34" font-family="Helvetica,sans-Serif" font-weight="bold" font-size="14.00"> &#160;id: 10, title: &#39;Post 1&#39;,</text>
<text text-anchor="middle" x="111.5" y="-606.34" font-family="Helvetica,sans-Serif" font-weight="bold" font-size="14.00"> &#160;author: a =&gt; a.connect({ id: 1 })</text>
<text text-anchor="middle" x="111.5" y="-591.34" font-family="Helvetica,sans-Serif" font-weight="bold" font-size="14.00">})</text>
<!-- start -->
<g id="node1" class="node">
<title>start</title>
<ellipse fill="white" stroke="black" cx="117.93" cy="-562.03" rx="23.6" ry="23.6"/>
<text text-anchor="middle" x="117.93" y="-557.58" font-family="Helvetica,sans-Serif" font-size="11.00">Start</text>
</g>
<!-- cs_users_0 -->
<g id="node2" class="node">
<title>cs_users_0</title>
<polygon fill="#e5e5e5" stroke="#999999" points="120.3,-501.43 31.55,-501.43 31.55,-465.43 120.3,-465.43 120.3,-501.43"/>
<text text-anchor="middle" x="75.93" y="-484.98" font-family="Helvetica,sans-Serif" font-size="11.00" fill="#666666">CollectionState</text>
<text text-anchor="middle" x="75.93" y="-472.98" font-family="Helvetica,sans-Serif" font-size="11.00" fill="#666666">(users, 0)</text>
</g>
<!-- cs_users_0&#45;&gt;start -->
<g id="edge1" class="edge">
<title>cs_users_0&#45;&gt;start</title>
<path fill="none" stroke="#999999" d="M85.46,-501.81C90.16,-510.4 95.98,-521 101.38,-530.86"/>
<polygon fill="#999999" stroke="#999999" points="98.19,-532.32 106.07,-539.41 104.33,-528.96 98.19,-532.32"/>
</g>
<!-- cs_posts_0 -->
<g id="node3" class="node">
<title>cs_posts_0</title>
<polygon fill="#e5e5e5" stroke="#999999" points="210.3,-447.43 121.55,-447.43 121.55,-411.43 210.3,-411.43 210.3,-447.43"/>
<text text-anchor="middle" x="165.93" y="-430.98" font-family="Helvetica,sans-Serif" font-size="11.00" fill="#666666">CollectionState</text>
<text text-anchor="middle" x="165.93" y="-418.98" font-family="Helvetica,sans-Serif" font-size="11.00" fill="#666666">(posts, 0)</text>
</g>
<!-- cs_posts_0&#45;&gt;start -->
<g id="edge2" class="edge">
<title>cs_posts_0&#45;&gt;start</title>
<path fill="none" stroke="#999999" d="M159.55,-447.77C151.96,-468.45 139.11,-503.41 129.69,-529.03"/>
<polygon fill="#999999" stroke="#999999" points="126.45,-527.7 126.29,-538.29 133.02,-530.12 126.45,-527.7"/>
</g>
<!-- read_users -->
<g id="node4" class="node">
<title>read_users</title>
<polygon fill="#dae8fc" stroke="#6c8ebf" points="120.68,-393.43 31.18,-393.43 31.18,-349.43 120.68,-349.43 120.68,-393.43"/>
<text text-anchor="middle" x="75.93" y="-378.98" font-family="Helvetica,sans-Serif" font-size="11.00">Read</text>
<text text-anchor="middle" x="75.93" y="-366.98" font-family="Helvetica,sans-Serif" font-size="11.00">(users, [id]</text>
<text text-anchor="middle" x="75.93" y="-354.98" font-family="Helvetica,sans-Serif" font-size="11.00">where=[id = 1])</text>
</g>
<!-- read_users&#45;&gt;cs_users_0 -->
<g id="edge3" class="edge">
<title>read_users&#45;&gt;cs_users_0</title>
<path fill="none" stroke="#999999" d="M75.93,-393.9C75.93,-410.93 75.93,-434.89 75.93,-453.59"/>
<polygon fill="#999999" stroke="#999999" points="72.43,-453.48 75.93,-463.48 79.43,-453.48 72.43,-453.48"/>
</g>
<!-- create_posts -->
<g id="node5" class="node">
<title>create_posts</title>
<polygon fill="#ffccbc" stroke="#e64a19" points="219.55,-293.93 84.3,-293.93 84.3,-249.93 219.55,-249.93 219.55,-293.93"/>
<text text-anchor="middle" x="151.93" y="-279.48" font-family="Helvetica,sans-Serif" font-size="11.00">Create</text>
<text text-anchor="middle" x="151.93" y="-267.48" font-family="Helvetica,sans-Serif" font-size="11.00">(posts)</text>
<text text-anchor="middle" x="151.93" y="-255.48" font-family="Helvetica,sans-Serif" font-size="11.00">data={id:10, title:&#39;Post 1&#39;}</text>
</g>
<!-- create_posts&#45;&gt;cs_posts_0 -->
<g id="edge5" class="edge">
<title>create_posts&#45;&gt;cs_posts_0</title>
<path fill="none" stroke="#999999" d="M154.19,-294.38C154.78,-300.08 155.39,-306.24 155.93,-311.93 158.75,-341.88 161.65,-376.19 163.6,-399.78"/>
<polygon fill="#999999" stroke="#999999" points="160.1,-399.87 164.4,-409.55 167.07,-399.29 160.1,-399.87"/>
</g>
<!-- create_posts&#45;&gt;read_users -->
<g id="edge4" class="edge">
<title>create_posts&#45;&gt;read_users</title>
<path fill="none" stroke="#ff9800" d="M83.84,-288.41C72.62,-294 62.4,-301.59 55.43,-311.93 49.92,-320.1 50.97,-329.91 54.6,-339.14"/>
<polygon fill="#ff9800" stroke="#ff9800" points="51.33,-340.42 58.9,-347.84 57.6,-337.32 51.33,-340.42"/>
<text text-anchor="middle" x="105.68" y="-322.88" font-family="Helvetica,sans-Serif" font-size="9.00" fill="#ff9800">PayloadData</text>
<text text-anchor="middle" x="105.68" y="-313.13" font-family="Helvetica,sans-Serif" font-size="9.00" fill="#ff9800">(users.id &#45;&gt; posts.userId)</text>
</g>
<!-- cs_posts_1 -->
<g id="node6" class="node">
<title>cs_posts_1</title>
<polygon fill="#e5e5e5" stroke="#999999" points="119.3,-212.93 30.55,-212.93 30.55,-176.93 119.3,-176.93 119.3,-212.93"/>
<text text-anchor="middle" x="74.93" y="-196.48" font-family="Helvetica,sans-Serif" font-size="11.00" fill="#666666">CollectionState</text>
<text text-anchor="middle" x="74.93" y="-184.48" font-family="Helvetica,sans-Serif" font-size="11.00" fill="#666666">(posts, 1)</text>
</g>
<!-- cs_posts_1&#45;&gt;create_posts -->
<g id="edge6" class="edge">
<title>cs_posts_1&#45;&gt;create_posts</title>
<path fill="none" stroke="#999999" d="M92.79,-213.33C101.46,-221.78 112.13,-232.16 122,-241.78"/>
<polygon fill="#999999" stroke="#999999" points="119.35,-244.09 128.96,-248.56 124.24,-239.07 119.35,-244.09"/>
</g>
<!-- read_posts -->
<g id="node7" class="node">
<title>read_posts</title>
<polygon fill="#dae8fc" stroke="#6c8ebf" points="138.68,-139.93 73.18,-139.93 73.18,-103.93 138.68,-103.93 138.68,-139.93"/>
<text text-anchor="middle" x="105.93" y="-123.48" font-family="Helvetica,sans-Serif" font-size="11.00">Read</text>
<text text-anchor="middle" x="105.93" y="-111.48" font-family="Helvetica,sans-Serif" font-size="11.00">(posts, [*])</text>
</g>
<!-- read_posts&#45;&gt;create_posts -->
<g id="edge7" class="edge">
<title>read_posts&#45;&gt;create_posts</title>
<path fill="none" stroke="#2196f3" d="M113.68,-140.22C118.2,-150.7 123.81,-164.43 127.93,-176.93 134.62,-197.24 140.58,-220.51 144.88,-238.83"/>
<polygon fill="#2196f3" stroke="#2196f3" points="141.41,-239.35 147.06,-248.31 148.23,-237.78 141.41,-239.35"/>
<text text-anchor="middle" x="179.2" y="-196.13" font-family="Helvetica,sans-Serif" font-size="9.00" fill="#2196f3">FilterData</text>
<text text-anchor="middle" x="179.2" y="-186.38" font-family="Helvetica,sans-Serif" font-size="9.00" fill="#2196f3">(posts.id &#45;&gt; posts.id)</text>
</g>
<!-- read_posts&#45;&gt;cs_posts_1 -->
<g id="edge8" class="edge">
<title>read_posts&#45;&gt;cs_posts_1</title>
<path fill="none" stroke="#999999" d="M98.42,-140.12C94.96,-148.05 90.76,-157.67 86.87,-166.57"/>
<polygon fill="#999999" stroke="#999999" points="83.76,-164.95 82.97,-175.52 90.18,-167.75 83.76,-164.95"/>
</g>
<!-- ret -->
<g id="node8" class="node">
<title>ret</title>
<ellipse fill="black" stroke="black" cx="44.93" cy="-33.47" rx="29.47" ry="29.47"/>
<ellipse fill="none" stroke="black" cx="44.93" cy="-33.47" rx="33.47" ry="33.47"/>
<text text-anchor="middle" x="44.93" y="-29.02" font-family="Helvetica,sans-Serif" font-size="11.00" fill="white">Return</text>
</g>
<!-- ret&#45;&gt;cs_users_0 -->
<g id="edge10" class="edge">
<title>ret&#45;&gt;cs_users_0</title>
<path fill="none" stroke="#999999" stroke-dasharray="5,2" d="M24.67,-60.54C13.93,-76.94 2.93,-99.07 2.93,-120.93 2.93,-120.93 2.93,-120.93 2.93,-372.43 2.93,-405.67 26.35,-436.55 46.66,-457.08"/>
<polygon fill="#999999" stroke="#999999" points="44.1,-459.47 53.72,-463.9 48.97,-454.43 44.1,-459.47"/>
</g>
<!-- ret&#45;&gt;cs_posts_1 -->
<g id="edge11" class="edge">
<title>ret&#45;&gt;cs_posts_1</title>
<path fill="none" stroke="#999999" stroke-dasharray="5,2" d="M50.56,-66.81C54.24,-87.7 59.23,-115.45 63.93,-139.93 65.5,-148.14 67.28,-157.03 68.95,-165.19"/>
<polygon fill="#999999" stroke="#999999" points="65.51,-165.87 70.96,-174.96 72.37,-164.46 65.51,-165.87"/>
</g>
<!-- ret&#45;&gt;read_posts -->
<g id="edge9" class="edge">
<title>ret&#45;&gt;read_posts</title>
<path fill="none" stroke="#999999" d="M63.89,-61.35C71.34,-71.9 79.86,-83.98 87.27,-94.49"/>
<polygon fill="#999999" stroke="#999999" points="84.21,-96.22 92.83,-102.37 89.93,-92.18 84.21,-96.22"/>
</g>
</g>
</svg>
