<?xml version="1.0" encoding="UTF-8" standalone="no"?>
<!DOCTYPE svg PUBLIC "-//W3C//DTD SVG 1.1//EN"
 "http://www.w3.org/Graphics/SVG/1.1/DTD/svg11.dtd">
<!-- Generated by graphviz version 12.2.1 (0)
 -->
<!-- Pages: 1 -->
<svg width="286pt" height="759pt"
 viewBox="0.00 0.00 285.75 758.64" xmlns="http://www.w3.org/2000/svg" xmlns:xlink="http://www.w3.org/1999/xlink">
<g id="graph0" class="graph" transform="scale(1 1) rotate(0) translate(4 754.64)">
<polygon fill="white" stroke="none" points="-4,4 -4,-754.64 281.75,-754.64 281.75,4 -4,4"/>
<text text-anchor="middle" x="138.88" y="-733.34" font-family="Helvetica,sans-Serif" font-weight="bold" font-size="14.00">db.users.create({</text>
<text text-anchor="middle" x="138.88" y="-718.34" font-family="Helvetica,sans-Serif" font-weight="bold" font-size="14.00"> &#160;id: 1, name: &#39;Alice&#39;, email: &#39;a@b.com&#39;,</text>
<text text-anchor="middle" x="138.88" y="-703.34" font-family="Helvetica,sans-Serif" font-weight="bold" font-size="14.00"> &#160;posts: p =&gt; p.connect([{ id: 10 }])</text>
<text text-anchor="middle" x="138.88" y="-688.34" font-family="Helvetica,sans-Serif" font-weight="bold" font-size="14.00">})</text>
<!-- start -->
<g id="node1" class="node">
<title>start</title>
<ellipse fill="white" stroke="black" cx="199.38" cy="-659.03" rx="23.6" ry="23.6"/>
<text text-anchor="middle" x="199.38" y="-654.58" font-family="Helvetica,sans-Serif" font-size="11.00">Start</text>
</g>
<!-- cs_users_0 -->
<g id="node2" class="node">
<title>cs_users_0</title>
<polygon fill="#e5e5e5" stroke="#999999" points="197.75,-598.43 109,-598.43 109,-562.43 197.75,-562.43 197.75,-598.43"/>
<text text-anchor="middle" x="153.38" y="-581.98" font-family="Helvetica,sans-Serif" font-size="11.00" fill="#666666">CollectionState</text>
<text text-anchor="middle" x="153.38" y="-569.98" font-family="Helvetica,sans-Serif" font-size="11.00" fill="#666666">(users, 0)</text>
</g>
<!-- cs_users_0&#45;&gt;start -->
<g id="edge1" class="edge">
<title>cs_users_0&#45;&gt;start</title>
<path fill="none" stroke="#999999" d="M163.81,-598.81C169.1,-607.62 175.67,-618.55 181.71,-628.62"/>
<polygon fill="#999999" stroke="#999999" points="178.59,-630.22 186.74,-636.99 184.59,-626.62 178.59,-630.22"/>
</g>
<!-- cs_posts_0 -->
<g id="node3" class="node">
<title>cs_posts_0</title>
<polygon fill="#e5e5e5" stroke="#999999" points="277.75,-378.43 189,-378.43 189,-342.43 277.75,-342.43 277.75,-378.43"/>
<text text-anchor="middle" x="233.38" y="-361.98" font-family="Helvetica,sans-Serif" font-size="11.00" fill="#666666">CollectionState</text>
<text text-anchor="middle" x="233.38" y="-349.98" font-family="Helvetica,sans-Serif" font-size="11.00" fill="#666666">(posts, 0)</text>
</g>
<!-- cs_posts_0&#45;&gt;start -->
<g id="edge2" class="edge">
<title>cs_posts_0&#45;&gt;start</title>
<path fill="none" stroke="#999999" d="M234,-378.82C234.58,-396.76 235.38,-425.55 235.38,-450.43 235.38,-450.43 235.38,-450.43 235.38,-581.43 235.38,-598.69 227.79,-616.25 219.59,-630.19"/>
<polygon fill="#999999" stroke="#999999" points="216.8,-628.04 214.41,-638.36 222.72,-631.78 216.8,-628.04"/>
</g>
<!-- create_users -->
<g id="node4" class="node">
<title>create_users</title>
<polygon fill="#ffccbc" stroke="#e64a19" points="190.12,-525.43 58.62,-525.43 58.62,-469.43 190.12,-469.43 190.12,-525.43"/>
<text text-anchor="middle" x="124.38" y="-510.98" font-family="Helvetica,sans-Serif" font-size="11.00">Create</text>
<text text-anchor="middle" x="124.38" y="-498.98" font-family="Helvetica,sans-Serif" font-size="11.00">(users)</text>
<text text-anchor="middle" x="124.38" y="-486.98" font-family="Helvetica,sans-Serif" font-size="11.00">data={id:1, name:&#39;Alice&#39;,</text>
<text text-anchor="middle" x="124.38" y="-474.98" font-family="Helvetica,sans-Serif" font-size="11.00">email:&#39;a@b.com&#39;}</text>
</g>
<!-- create_users&#45;&gt;cs_users_0 -->
<g id="edge3" class="edge">
<title>create_users&#45;&gt;cs_users_0</title>
<path fill="none" stroke="#999999" d="M134.19,-525.85C137.13,-534.06 140.35,-543.06 143.31,-551.31"/>
<polygon fill="#999999" stroke="#999999" points="139.94,-552.28 146.6,-560.52 146.53,-549.92 139.94,-552.28"/>
</g>
<!-- cs_users_1 -->
<g id="node5" class="node">
<title>cs_users_1</title>
<polygon fill="#e5e5e5" stroke="#999999" points="88.75,-432.43 0,-432.43 0,-396.43 88.75,-396.43 88.75,-432.43"/>
<text text-anchor="middle" x="44.38" y="-415.98" font-family="Helvetica,sans-Serif" font-size="11.00" fill="#666666">CollectionState</text>
<text text-anchor="middle" x="44.38" y="-403.98" font-family="Helvetica,sans-Serif" font-size="11.00" fill="#666666">(users, 1)</text>
</g>
<!-- cs_users_1&#45;&gt;create_users -->
<g id="edge4" class="edge">
<title>cs_users_1&#45;&gt;create_users</title>
<path fill="none" stroke="#999999" d="M61.34,-432.61C69.51,-440.88 79.63,-451.12 89.34,-460.96"/>
<polygon fill="#999999" stroke="#999999" points="86.78,-463.35 96.3,-468 91.76,-458.43 86.78,-463.35"/>
</g>
<!-- read_users -->
<g id="node6" class="node">
<title>read_users</title>
<polygon fill="#dae8fc" stroke="#6c8ebf" points="145.5,-324.43 79.25,-324.43 79.25,-288.43 145.5,-288.43 145.5,-324.43"/>
<text text-anchor="middle" x="112.38" y="-307.98" font-family="Helvetica,sans-Serif" font-size="11.00">Read</text>
<text text-anchor="middle" x="112.38" y="-295.98" font-family="Helvetica,sans-Serif" font-size="11.00">(users, [*])</text>
</g>
<!-- read_users&#45;&gt;create_users -->
<g id="edge5" class="edge">
<title>read_users&#45;&gt;create_users</title>
<path fill="none" stroke="#2196f3" d="M113.48,-324.87C115.39,-354.9 119.33,-417.04 121.92,-457.71"/>
<polygon fill="#2196f3" stroke="#2196f3" points="118.42,-457.81 122.54,-467.56 125.4,-457.36 118.42,-457.81"/>
<text text-anchor="middle" x="161.92" y="-415.63" font-family="Helvetica,sans-Serif" font-size="9.00" fill="#2196f3">FilterData</text>
<text text-anchor="middle" x="161.92" y="-405.88" font-family="Helvetica,sans-Serif" font-size="9.00" fill="#2196f3">(users.id &#45;&gt; users.id)</text>
</g>
<!-- read_users&#45;&gt;cs_users_1 -->
<g id="edge6" class="edge">
<title>read_users&#45;&gt;cs_users_1</title>
<path fill="none" stroke="#999999" d="M101.45,-324.46C90.71,-341.21 74.15,-367.02 61.63,-386.54"/>
<polygon fill="#999999" stroke="#999999" points="58.77,-384.51 56.32,-394.82 64.66,-388.29 58.77,-384.51"/>
</g>
<!-- update_posts -->
<g id="node7" class="node">
<title>update_posts</title>
<polygon fill="#ffccbc" stroke="#e64a19" points="204.25,-232.93 112.5,-232.93 112.5,-176.93 204.25,-176.93 204.25,-232.93"/>
<text text-anchor="middle" x="158.38" y="-218.48" font-family="Helvetica,sans-Serif" font-size="11.00">Update</text>
<text text-anchor="middle" x="158.38" y="-206.48" font-family="Helvetica,sans-Serif" font-size="11.00">(posts)</text>
<text text-anchor="middle" x="158.38" y="-194.48" font-family="Helvetica,sans-Serif" font-size="11.00">data={}</text>
<text text-anchor="middle" x="158.38" y="-182.48" font-family="Helvetica,sans-Serif" font-size="11.00">where=[id = 10]</text>
</g>
<!-- update_posts&#45;&gt;cs_posts_0 -->
<g id="edge8" class="edge">
<title>update_posts&#45;&gt;cs_posts_0</title>
<path fill="none" stroke="#999999" d="M204.45,-233.24C210.26,-238.44 215.5,-244.35 219.38,-250.93 233.58,-275.08 236.06,-307.41 235.62,-330.49"/>
<polygon fill="#999999" stroke="#999999" points="232.12,-330.29 235.21,-340.42 239.12,-330.57 232.12,-330.29"/>
</g>
<!-- update_posts&#45;&gt;read_users -->
<g id="edge7" class="edge">
<title>update_posts&#45;&gt;read_users</title>
<path fill="none" stroke="#ff9800" d="M130.02,-233.15C125.65,-238.64 121.67,-244.67 118.88,-250.93 115.34,-258.86 113.5,-268.04 112.59,-276.59"/>
<polygon fill="#ff9800" stroke="#ff9800" points="109.1,-276.33 111.95,-286.53 116.09,-276.78 109.1,-276.33"/>
<text text-anchor="middle" x="169.12" y="-261.88" font-family="Helvetica,sans-Serif" font-size="9.00" fill="#ff9800">PayloadData</text>
<text text-anchor="middle" x="169.12" y="-252.13" font-family="Helvetica,sans-Serif" font-size="9.00" fill="#ff9800">(users.id &#45;&gt; posts.userId)</text>
</g>
<!-- cs_posts_1 -->
<g id="node8" class="node">
<title>cs_posts_1</title>
<polygon fill="#e5e5e5" stroke="#999999" points="201.75,-139.93 113,-139.93 113,-103.93 201.75,-103.93 201.75,-139.93"/>
<text text-anchor="middle" x="157.38" y="-123.48" font-family="Helvetica,sans-Serif" font-size="11.00" fill="#666666">CollectionState</text>
<text text-anchor="middle" x="157.38" y="-111.48" font-family="Helvetica,sans-Serif" font-size="11.00" fill="#666666">(posts, 1)</text>
</g>
<!-- cs_posts_1&#45;&gt;update_posts -->
<g id="edge9" class="edge">
<title>cs_posts_1&#45;&gt;update_posts</title>
<path fill="none" stroke="#999999" d="M157.59,-140.11C157.68,-147.47 157.79,-156.39 157.9,-165.2"/>
<polygon fill="#999999" stroke="#999999" points="154.4,-165.11 158.02,-175.07 161.39,-165.02 154.4,-165.11"/>
</g>
<!-- ret -->
<g id="node9" class="node">
<title>ret</title>
<ellipse fill="black" stroke="black" cx="84.38" cy="-33.47" rx="29.47" ry="29.47"/>
<ellipse fill="none" stroke="black" cx="84.38" cy="-33.47" rx="33.47" ry="33.47"/>
<text text-anchor="middle" x="84.38" y="-29.02" font-family="Helvetica,sans-Serif" font-size="11.00" fill="white">Return</text>
</g>
<!-- ret&#45;&gt;cs_users_1 -->
<g id="edge11" class="edge">
<title>ret&#45;&gt;cs_users_1</title>
<path fill="none" stroke="#999999" stroke-dasharray="5,2" d="M65.33,-61.13C55.43,-77.56 45.38,-99.52 45.38,-120.93 45.38,-120.93 45.38,-120.93 45.38,-307.43 45.38,-333.58 45.07,-363.37 44.79,-384.69"/>
<polygon fill="#999999" stroke="#999999" points="41.29,-384.61 44.66,-394.66 48.29,-384.71 41.29,-384.61"/>
</g>
<!-- ret&#45;&gt;read_users -->
<g id="edge10" class="edge">
<title>ret&#45;&gt;read_users</title>
<path fill="none" stroke="#999999" d="M87.22,-67.15C90.71,-106.52 96.96,-174.61 103.38,-232.93 104.97,-247.41 106.94,-263.49 108.64,-276.82"/>
<polygon fill="#999999" stroke="#999999" points="105.15,-277.19 109.9,-286.66 112.1,-276.3 105.15,-277.19"/>
</g>
<!-- ret&#45;&gt;cs_posts_1 -->
<g id="edge12" class="edge">
<title>ret&#45;&gt;cs_posts_1</title>
<path fill="none" stroke="#999999" stroke-dasharray="5,2" d="M105.49,-59.47C114.93,-70.65 126.04,-83.82 135.56,-95.09"/>
<polygon fill="#999999" stroke="#999999" points="132.68,-97.11 141.81,-102.49 138.03,-92.6 132.68,-97.11"/>
</g>
</g>
</svg>
