<?xml version="1.0" encoding="UTF-8" standalone="no"?>
<!DOCTYPE svg PUBLIC "-//W3C//DTD SVG 1.1//EN"
 "http://www.w3.org/Graphics/SVG/1.1/DTD/svg11.dtd">
<!-- Generated by graphviz version 12.2.1 (0)
 -->
<!-- Pages: 1 -->
<svg width="291pt" height="862pt"
 viewBox="0.00 0.00 291.25 861.64" xmlns="http://www.w3.org/2000/svg" xmlns:xlink="http://www.w3.org/1999/xlink">
<g id="graph0" class="graph" transform="scale(1 1) rotate(0) translate(4 857.64)">
<polygon fill="white" stroke="none" points="-4,4 -4,-857.64 287.25,-857.64 287.25,4 -4,4"/>
<text text-anchor="middle" x="141.62" y="-836.34" font-family="Helvetica,sans-Serif" font-weight="bold" font-size="14.00">db.users.where({ id: 1 }).update({</text>
<text text-anchor="middle" x="141.62" y="-821.34" font-family="Helvetica,sans-Serif" font-weight="bold" font-size="14.00"> &#160;posts: p =&gt; p.disconnect([{ id: 11 }])</text>
<text text-anchor="middle" x="141.62" y="-806.34" font-family="Helvetica,sans-Serif" font-weight="bold" font-size="14.00">})</text>
<!-- start -->
<g id="node1" class="node">
<title>start</title>
<ellipse fill="white" stroke="black" cx="174.88" cy="-777.03" rx="23.6" ry="23.6"/>
<text text-anchor="middle" x="174.88" y="-772.58" font-family="Helvetica,sans-Serif" font-size="11.00">Start</text>
</g>
<!-- cs_users_0 -->
<g id="node2" class="node">
<title>cs_users_0</title>
<polygon fill="#e5e5e5" stroke="#999999" points="156.25,-716.43 67.5,-716.43 67.5,-680.43 156.25,-680.43 156.25,-716.43"/>
<text text-anchor="middle" x="111.88" y="-699.98" font-family="Helvetica,sans-Serif" font-size="11.00" fill="#666666">CollectionState</text>
<text text-anchor="middle" x="111.88" y="-687.98" font-family="Helvetica,sans-Serif" font-size="11.00" fill="#666666">(users, 0)</text>
</g>
<!-- cs_users_0&#45;&gt;start -->
<g id="edge1" class="edge">
<title>cs_users_0&#45;&gt;start</title>
<path fill="none" stroke="#999999" d="M126.17,-716.81C134.11,-726.47 144.16,-738.68 153.06,-749.51"/>
<polygon fill="#999999" stroke="#999999" points="150.18,-751.52 159.24,-757.02 155.59,-747.07 150.18,-751.52"/>
</g>
<!-- cs_posts_0 -->
<g id="node3" class="node">
<title>cs_posts_0</title>
<polygon fill="#e5e5e5" stroke="#999999" points="283.25,-378.43 194.5,-378.43 194.5,-342.43 283.25,-342.43 283.25,-378.43"/>
<text text-anchor="middle" x="238.88" y="-361.98" font-family="Helvetica,sans-Serif" font-size="11.00" fill="#666666">CollectionState</text>
<text text-anchor="middle" x="238.88" y="-349.98" font-family="Helvetica,sans-Serif" font-size="11.00" fill="#666666">(posts, 0)</text>
</g>
<!-- cs_posts_0&#45;&gt;start -->
<g id="edge2" class="edge">
<title>cs_posts_0&#45;&gt;start</title>
<path fill="none" stroke="#999999" d="M238.88,-378.74C238.88,-398.27 238.88,-431.01 238.88,-459.18 238.88,-459.18 238.88,-459.18 238.88,-699.43 238.88,-722.97 220.85,-743.1 203.94,-756.81"/>
<polygon fill="#999999" stroke="#999999" points="201.84,-754 195.98,-762.83 206.07,-759.58 201.84,-754"/>
</g>
<!-- read_a -->
<g id="node4" class="node">
<title>read_a</title>
<polygon fill="#dae8fc" stroke="#6c8ebf" points="156.62,-643.43 67.12,-643.43 67.12,-599.43 156.62,-599.43 156.62,-643.43"/>
<text text-anchor="middle" x="111.88" y="-628.98" font-family="Helvetica,sans-Serif" font-size="11.00">Read (A)</text>
<text text-anchor="middle" x="111.88" y="-616.98" font-family="Helvetica,sans-Serif" font-size="11.00">(users, [id]</text>
<text text-anchor="middle" x="111.88" y="-604.98" font-family="Helvetica,sans-Serif" font-size="11.00">where=[id = 1])</text>
</g>
<!-- read_a&#45;&gt;cs_users_0 -->
<g id="edge3" class="edge">
<title>read_a&#45;&gt;cs_users_0</title>
<path fill="none" stroke="#999999" d="M111.88,-643.72C111.88,-651.61 111.88,-660.68 111.88,-669.1"/>
<polygon fill="#999999" stroke="#999999" points="108.38,-668.86 111.88,-678.86 115.38,-668.86 108.38,-668.86"/>
</g>
<!-- update_users -->
<g id="node5" class="node">
<title>update_users</title>
<polygon fill="#ffccbc" stroke="#e64a19" points="85.75,-543.93 0,-543.93 0,-487.93 85.75,-487.93 85.75,-543.93"/>
<text text-anchor="middle" x="42.88" y="-529.48" font-family="Helvetica,sans-Serif" font-size="11.00">Update</text>
<text text-anchor="middle" x="42.88" y="-517.48" font-family="Helvetica,sans-Serif" font-size="11.00">(users)</text>
<text text-anchor="middle" x="42.88" y="-505.48" font-family="Helvetica,sans-Serif" font-size="11.00">data={}</text>
<text text-anchor="middle" x="42.88" y="-493.48" font-family="Helvetica,sans-Serif" font-size="11.00">where=[id = 1]</text>
</g>
<!-- update_users&#45;&gt;cs_users_0 -->
<g id="edge5" class="edge">
<title>update_users&#45;&gt;cs_users_0</title>
<path fill="none" stroke="#999999" d="M35.14,-544.33C32.91,-555.83 31.61,-569.32 33.88,-581.43 39.3,-610.48 41.75,-618.67 57.88,-643.43 64.68,-653.87 73.76,-663.92 82.53,-672.46"/>
<polygon fill="#999999" stroke="#999999" points="79.96,-674.85 89.66,-679.12 84.74,-669.74 79.96,-674.85"/>
</g>
<!-- update_users&#45;&gt;read_a -->
<g id="edge4" class="edge">
<title>update_users&#45;&gt;read_a</title>
<path fill="none" stroke="#2196f3" d="M37.34,-544.29C36.3,-556.43 37.15,-570.43 43.62,-581.43 47.21,-587.53 52.14,-592.76 57.73,-597.22"/>
<polygon fill="#2196f3" stroke="#2196f3" points="55.49,-599.92 65.71,-602.75 59.48,-594.17 55.49,-599.92"/>
<text text-anchor="middle" x="85.25" y="-572.88" font-family="Helvetica,sans-Serif" font-size="9.00" fill="#2196f3">FilterData</text>
<text text-anchor="middle" x="85.25" y="-563.13" font-family="Helvetica,sans-Serif" font-size="9.00" fill="#2196f3">(users.id &#45;&gt; users.id)</text>
</g>
<!-- cs_users_1 -->
<g id="node6" class="node">
<title>cs_users_1</title>
<polygon fill="#e5e5e5" stroke="#999999" points="96.25,-432.43 7.5,-432.43 7.5,-396.43 96.25,-396.43 96.25,-432.43"/>
<text text-anchor="middle" x="51.88" y="-415.98" font-family="Helvetica,sans-Serif" font-size="11.00" fill="#666666">CollectionState</text>
<text text-anchor="middle" x="51.88" y="-403.98" font-family="Helvetica,sans-Serif" font-size="11.00" fill="#666666">(users, 1)</text>
</g>
<!-- cs_users_1&#45;&gt;update_users -->
<g id="edge6" class="edge">
<title>cs_users_1&#45;&gt;update_users</title>
<path fill="none" stroke="#999999" d="M50.31,-432.76C49.22,-444.83 47.72,-461.41 46.35,-476.51"/>
<polygon fill="#999999" stroke="#999999" points="42.89,-475.89 45.48,-486.17 49.86,-476.53 42.89,-475.89"/>
</g>
<!-- read_b -->
<g id="node7" class="node">
<title>read_b</title>
<polygon fill="#dae8fc" stroke="#6c8ebf" points="151,-324.43 84.75,-324.43 84.75,-288.43 151,-288.43 151,-324.43"/>
<text text-anchor="middle" x="117.88" y="-307.98" font-family="Helvetica,sans-Serif" font-size="11.00">Read (B)</text>
<text text-anchor="middle" x="117.88" y="-295.98" font-family="Helvetica,sans-Serif" font-size="11.00">(users, [*])</text>
</g>
<!-- read_b&#45;&gt;read_a -->
<g id="edge7" class="edge">
<title>read_b&#45;&gt;read_a</title>
<path fill="none" stroke="#2196f3" d="M118.7,-324.71C120.61,-365.8 125.3,-472.64 126.88,-561.93 127.03,-570.6 128.46,-572.91 126.88,-581.43 126.47,-583.62 125.94,-585.85 125.33,-588.08"/>
<polygon fill="#2196f3" stroke="#2196f3" points="122.02,-586.95 122.21,-597.54 128.67,-589.14 122.02,-586.95"/>
<text text-anchor="middle" x="166.03" y="-461.38" font-family="Helvetica,sans-Serif" font-size="9.00" fill="#2196f3">FilterData</text>
<text text-anchor="middle" x="166.03" y="-451.63" font-family="Helvetica,sans-Serif" font-size="9.00" fill="#2196f3">(users.id &#45;&gt; users.id)</text>
</g>
<!-- read_b&#45;&gt;cs_users_1 -->
<g id="edge8" class="edge">
<title>read_b&#45;&gt;cs_users_1</title>
<path fill="none" stroke="#999999" d="M107.27,-324.46C96.84,-341.21 80.77,-367.02 68.62,-386.54"/>
<polygon fill="#999999" stroke="#999999" points="65.79,-384.47 63.47,-394.81 71.73,-388.17 65.79,-384.47"/>
</g>
<!-- update_posts -->
<g id="node8" class="node">
<title>update_posts</title>
<polygon fill="#ffccbc" stroke="#e64a19" points="221.75,-232.93 118,-232.93 118,-176.93 221.75,-176.93 221.75,-232.93"/>
<text text-anchor="middle" x="169.88" y="-218.48" font-family="Helvetica,sans-Serif" font-size="11.00">Update</text>
<text text-anchor="middle" x="169.88" y="-206.48" font-family="Helvetica,sans-Serif" font-size="11.00">(posts)</text>
<text text-anchor="middle" x="169.88" y="-194.48" font-family="Helvetica,sans-Serif" font-size="11.00">data={userId: null}</text>
<text text-anchor="middle" x="169.88" y="-182.48" font-family="Helvetica,sans-Serif" font-size="11.00">where=[id = 11]</text>
</g>
<!-- update_posts&#45;&gt;cs_posts_0 -->
<g id="edge10" class="edge">
<title>update_posts&#45;&gt;cs_posts_0</title>
<path fill="none" stroke="#999999" d="M210.91,-233.29C216.35,-238.55 221.28,-244.46 224.88,-250.93 238.47,-275.42 241.05,-307.71 240.79,-330.68"/>
<polygon fill="#999999" stroke="#999999" points="237.29,-330.44 240.47,-340.55 244.29,-330.67 237.29,-330.44"/>
</g>
<!-- update_posts&#45;&gt;read_b -->
<g id="edge9" class="edge">
<title>update_posts&#45;&gt;read_b</title>
<path fill="none" stroke="#2196f3" d="M136.53,-233.38C131.77,-238.72 127.45,-244.64 124.38,-250.93 120.46,-258.93 118.54,-268.36 117.68,-277.11"/>
<polygon fill="#2196f3" stroke="#2196f3" points="114.19,-276.72 117.15,-286.9 121.18,-277.1 114.19,-276.72"/>
<text text-anchor="middle" x="174.62" y="-261.88" font-family="Helvetica,sans-Serif" font-size="9.00" fill="#2196f3">FilterData</text>
<text text-anchor="middle" x="174.62" y="-252.13" font-family="Helvetica,sans-Serif" font-size="9.00" fill="#2196f3">(users.id &#45;&gt; posts.userId)</text>
</g>
<!-- cs_posts_1 -->
<g id="node9" class="node">
<title>cs_posts_1</title>
<polygon fill="#e5e5e5" stroke="#999999" points="210.25,-139.93 121.5,-139.93 121.5,-103.93 210.25,-103.93 210.25,-139.93"/>
<text text-anchor="middle" x="165.88" y="-123.48" font-family="Helvetica,sans-Serif" font-size="11.00" fill="#666666">CollectionState</text>
<text text-anchor="middle" x="165.88" y="-111.48" font-family="Helvetica,sans-Serif" font-size="11.00" fill="#666666">(posts, 1)</text>
</g>
<!-- cs_posts_1&#45;&gt;update_posts -->
<g id="edge11" class="edge">
<title>cs_posts_1&#45;&gt;update_posts</title>
<path fill="none" stroke="#999999" d="M166.72,-140.11C167.09,-147.47 167.53,-156.39 167.96,-165.2"/>
<polygon fill="#999999" stroke="#999999" points="164.46,-165.25 168.45,-175.07 171.45,-164.91 164.46,-165.25"/>
</g>
<!-- ret -->
<g id="node10" class="node">
<title>ret</title>
<ellipse fill="black" stroke="black" cx="89.88" cy="-33.47" rx="29.47" ry="29.47"/>
<ellipse fill="none" stroke="black" cx="89.88" cy="-33.47" rx="33.47" ry="33.47"/>
<text text-anchor="middle" x="89.88" y="-29.02" font-family="Helvetica,sans-Serif" font-size="11.00" fill="white">Return</text>
</g>
<!-- ret&#45;&gt;cs_users_1 -->
<g id="edge13" class="edge">
<title>ret&#45;&gt;cs_users_1</title>
<path fill="none" stroke="#999999" stroke-dasharray="5,2" d="M71.1,-61.57C61.52,-77.99 51.88,-99.78 51.88,-120.93 51.88,-120.93 51.88,-120.93 51.88,-307.43 51.88,-333.58 51.88,-363.36 51.88,-384.69"/>
<polygon fill="#999999" stroke="#999999" points="48.38,-384.66 51.88,-394.66 55.38,-384.66 48.38,-384.66"/>
</g>
<!-- ret&#45;&gt;read_b -->
<g id="edge12" class="edge">
<title>ret&#45;&gt;read_b</title>
<path fill="none" stroke="#999999" d="M92.72,-67.15C96.21,-106.52 102.46,-174.61 108.88,-232.93 110.47,-247.41 112.44,-263.49 114.14,-276.82"/>
<polygon fill="#999999" stroke="#999999" points="110.65,-277.19 115.4,-286.66 117.6,-276.3 110.65,-277.19"/>
</g>
<!-- ret&#45;&gt;cs_posts_1 -->
<g id="edge14" class="edge">
<title>ret&#45;&gt;cs_posts_1</title>
<path fill="none" stroke="#999999" stroke-dasharray="5,2" d="M111.45,-59.01C121.28,-70.2 132.94,-83.46 142.93,-94.83"/>
<polygon fill="#999999" stroke="#999999" points="140.29,-97.13 149.52,-102.33 145.55,-92.51 140.29,-97.13"/>
</g>
</g>
</svg>
