<?xml version="1.0" encoding="UTF-8" standalone="no"?>
<!DOCTYPE svg PUBLIC "-//W3C//DTD SVG 1.1//EN"
 "http://www.w3.org/Graphics/SVG/1.1/DTD/svg11.dtd">
<!-- Generated by graphviz version 12.2.1 (0)
 -->
<!-- Pages: 1 -->
<svg width="460pt" height="805pt"
 viewBox="0.00 0.00 459.75 805.39" xmlns="http://www.w3.org/2000/svg" xmlns:xlink="http://www.w3.org/1999/xlink">
<g id="graph0" class="graph" transform="scale(1 1) rotate(0) translate(4 801.39)">
<polygon fill="white" stroke="none" points="-4,4 -4,-801.39 455.75,-801.39 455.75,4 -4,4"/>
<text text-anchor="middle" x="225.88" y="-780.09" font-family="Helvetica,sans-Serif" font-weight="bold" font-size="14.00">db.users.where({ id: 1 }).include(&#39;posts&#39;).update({ name: &#39;Updated&#39; })</text>
<!-- start -->
<g id="node1" class="node">
<title>start</title>
<ellipse fill="white" stroke="black" cx="289.25" cy="-750.78" rx="23.6" ry="23.6"/>
<text text-anchor="middle" x="289.25" y="-746.33" font-family="Helvetica,sans-Serif" font-size="11.00">Start</text>
</g>
<!-- cs_users_0 -->
<g id="node2" class="node">
<title>cs_users_0</title>
<polygon fill="#e5e5e5" stroke="#999999" points="295.62,-690.18 206.88,-690.18 206.88,-654.18 295.62,-654.18 295.62,-690.18"/>
<text text-anchor="middle" x="251.25" y="-673.73" font-family="Helvetica,sans-Serif" font-size="11.00" fill="#666666">CollectionState</text>
<text text-anchor="middle" x="251.25" y="-661.73" font-family="Helvetica,sans-Serif" font-size="11.00" fill="#666666">(users, 0)</text>
</g>
<!-- cs_users_0&#45;&gt;start -->
<g id="edge1" class="edge">
<title>cs_users_0&#45;&gt;start</title>
<path fill="none" stroke="#999999" d="M259.87,-690.56C264.05,-698.99 269.2,-709.37 274.01,-719.07"/>
<polygon fill="#999999" stroke="#999999" points="270.79,-720.45 278.37,-727.85 277.06,-717.34 270.79,-720.45"/>
</g>
<!-- cs_posts_0 -->
<g id="node3" class="node">
<title>cs_posts_0</title>
<polygon fill="#e5e5e5" stroke="#999999" points="370.62,-333.18 281.88,-333.18 281.88,-297.18 370.62,-297.18 370.62,-333.18"/>
<text text-anchor="middle" x="326.25" y="-316.73" font-family="Helvetica,sans-Serif" font-size="11.00" fill="#666666">CollectionState</text>
<text text-anchor="middle" x="326.25" y="-304.73" font-family="Helvetica,sans-Serif" font-size="11.00" fill="#666666">(posts, 0)</text>
</g>
<!-- cs_posts_0&#45;&gt;start -->
<g id="edge2" class="edge">
<title>cs_posts_0&#45;&gt;start</title>
<path fill="none" stroke="#999999" d="M325.87,-333.4C325.59,-347.77 325.25,-368.81 325.25,-387.18 325.25,-387.18 325.25,-387.18 325.25,-673.18 325.25,-690.44 317.67,-708 309.46,-721.94"/>
<polygon fill="#999999" stroke="#999999" points="306.68,-719.79 304.29,-730.11 312.59,-723.53 306.68,-719.79"/>
</g>
<!-- read_a -->
<g id="node4" class="node">
<title>read_a</title>
<polygon fill="#dae8fc" stroke="#6c8ebf" points="198,-617.18 108.5,-617.18 108.5,-573.18 198,-573.18 198,-617.18"/>
<text text-anchor="middle" x="153.25" y="-602.73" font-family="Helvetica,sans-Serif" font-size="11.00">Read (A)</text>
<text text-anchor="middle" x="153.25" y="-590.73" font-family="Helvetica,sans-Serif" font-size="11.00">(users, [id]</text>
<text text-anchor="middle" x="153.25" y="-578.73" font-family="Helvetica,sans-Serif" font-size="11.00">where=[id = 1])</text>
</g>
<!-- read_a&#45;&gt;cs_users_0 -->
<g id="edge3" class="edge">
<title>read_a&#45;&gt;cs_users_0</title>
<path fill="none" stroke="#999999" d="M181.33,-617.67C193.23,-626.78 207.16,-637.44 219.43,-646.83"/>
<polygon fill="#999999" stroke="#999999" points="217.17,-649.51 227.24,-652.8 221.42,-643.95 217.17,-649.51"/>
</g>
<!-- update_users -->
<g id="node5" class="node">
<title>update_users</title>
<polygon fill="#ffccbc" stroke="#e64a19" points="286.75,-517.68 159.75,-517.68 159.75,-461.68 286.75,-461.68 286.75,-517.68"/>
<text text-anchor="middle" x="223.25" y="-503.23" font-family="Helvetica,sans-Serif" font-size="11.00">Update</text>
<text text-anchor="middle" x="223.25" y="-491.23" font-family="Helvetica,sans-Serif" font-size="11.00">(users)</text>
<text text-anchor="middle" x="223.25" y="-479.23" font-family="Helvetica,sans-Serif" font-size="11.00">data={name:&#39;Updated&#39;}</text>
<text text-anchor="middle" x="223.25" y="-467.23" font-family="Helvetica,sans-Serif" font-size="11.00">where=[id = 1]</text>
</g>
<!-- update_users&#45;&gt;cs_users_0 -->
<g id="edge5" class="edge">
<title>update_users&#45;&gt;cs_users_0</title>
<path fill="none" stroke="#999999" d="M232.72,-518.06C234.44,-523.83 236.07,-529.91 237.25,-535.68 244.74,-572.21 248.32,-615.14 249.96,-642.73"/>
<polygon fill="#999999" stroke="#999999" points="246.44,-642.6 250.48,-652.39 253.43,-642.22 246.44,-642.6"/>
</g>
<!-- update_users&#45;&gt;read_a -->
<g id="edge4" class="edge">
<title>update_users&#45;&gt;read_a</title>
<path fill="none" stroke="#2196f3" d="M168.59,-518.14C162.79,-523.2 157.67,-529.03 154,-535.68 149.71,-543.47 148.26,-552.79 148.22,-561.66"/>
<polygon fill="#2196f3" stroke="#2196f3" points="144.71,-561.62 148.77,-571.41 151.7,-561.22 144.71,-561.62"/>
<text text-anchor="middle" x="195.62" y="-546.63" font-family="Helvetica,sans-Serif" font-size="9.00" fill="#2196f3">FilterData</text>
<text text-anchor="middle" x="195.62" y="-536.88" font-family="Helvetica,sans-Serif" font-size="9.00" fill="#2196f3">(users.id &#45;&gt; users.id)</text>
</g>
<!-- cs_users_1 -->
<g id="node6" class="node">
<title>cs_users_1</title>
<polygon fill="#e5e5e5" stroke="#999999" points="267.62,-406.18 178.88,-406.18 178.88,-370.18 267.62,-370.18 267.62,-406.18"/>
<text text-anchor="middle" x="223.25" y="-389.73" font-family="Helvetica,sans-Serif" font-size="11.00" fill="#666666">CollectionState</text>
<text text-anchor="middle" x="223.25" y="-377.73" font-family="Helvetica,sans-Serif" font-size="11.00" fill="#666666">(users, 1)</text>
</g>
<!-- cs_users_1&#45;&gt;update_users -->
<g id="edge6" class="edge">
<title>cs_users_1&#45;&gt;update_users</title>
<path fill="none" stroke="#999999" d="M223.25,-406.51C223.25,-418.58 223.25,-435.16 223.25,-450.26"/>
<polygon fill="#999999" stroke="#999999" points="219.75,-449.91 223.25,-459.91 226.75,-449.91 219.75,-449.91"/>
</g>
<!-- read_b -->
<g id="node7" class="node">
<title>read_b</title>
<polygon fill="#dae8fc" stroke="#6c8ebf" points="147.38,-333.18 81.12,-333.18 81.12,-297.18 147.38,-297.18 147.38,-333.18"/>
<text text-anchor="middle" x="114.25" y="-316.73" font-family="Helvetica,sans-Serif" font-size="11.00">Read (B)</text>
<text text-anchor="middle" x="114.25" y="-304.73" font-family="Helvetica,sans-Serif" font-size="11.00">(users, [*])</text>
</g>
<!-- read_b&#45;&gt;read_a -->
<g id="edge7" class="edge">
<title>read_b&#45;&gt;read_a</title>
<path fill="none" stroke="#2196f3" d="M115.83,-333.67C119.54,-373.28 129.62,-472.83 144.25,-555.18 144.63,-557.34 145.06,-559.55 145.51,-561.78"/>
<polygon fill="#2196f3" stroke="#2196f3" points="142.04,-562.3 147.58,-571.33 148.88,-560.81 142.04,-562.3"/>
<text text-anchor="middle" x="169.42" y="-435.13" font-family="Helvetica,sans-Serif" font-size="9.00" fill="#2196f3">FilterData</text>
<text text-anchor="middle" x="169.42" y="-425.38" font-family="Helvetica,sans-Serif" font-size="9.00" fill="#2196f3">(users.id &#45;&gt; users.id)</text>
</g>
<!-- read_b&#45;&gt;cs_users_1 -->
<g id="edge8" class="edge">
<title>read_b&#45;&gt;cs_users_1</title>
<path fill="none" stroke="#999999" d="M140.91,-333.55C154.77,-342.58 171.91,-353.74 186.95,-363.54"/>
<polygon fill="#999999" stroke="#999999" points="184.93,-366.39 195.21,-368.92 188.75,-360.53 184.93,-366.39"/>
</g>
<!-- read_posts -->
<g id="node8" class="node">
<title>read_posts</title>
<polygon fill="#dae8fc" stroke="#6c8ebf" points="192,-241.68 126.5,-241.68 126.5,-205.68 192,-205.68 192,-241.68"/>
<text text-anchor="middle" x="159.25" y="-225.23" font-family="Helvetica,sans-Serif" font-size="11.00">Read</text>
<text text-anchor="middle" x="159.25" y="-213.23" font-family="Helvetica,sans-Serif" font-size="11.00">(posts, [*])</text>
</g>
<!-- read_posts&#45;&gt;cs_posts_0 -->
<g id="edge10" class="edge">
<title>read_posts&#45;&gt;cs_posts_0</title>
<path fill="none" stroke="#999999" d="M191.85,-242.15C218.05,-256.2 255.08,-276.04 283.63,-291.34"/>
<polygon fill="#999999" stroke="#999999" points="281.94,-294.4 292.4,-296.04 285.24,-288.23 281.94,-294.4"/>
</g>
<!-- read_posts&#45;&gt;read_b -->
<g id="edge9" class="edge">
<title>read_posts&#45;&gt;read_b</title>
<path fill="none" stroke="#2196f3" d="M130.28,-242.09C124.46,-247.01 119.11,-252.91 115.75,-259.68 111.85,-267.55 110.58,-276.88 110.54,-285.57"/>
<polygon fill="#2196f3" stroke="#2196f3" points="107.04,-285.52 111.05,-295.33 114.03,-285.16 107.04,-285.52"/>
<text text-anchor="middle" x="166" y="-270.63" font-family="Helvetica,sans-Serif" font-size="9.00" fill="#2196f3">FilterData</text>
<text text-anchor="middle" x="166" y="-260.88" font-family="Helvetica,sans-Serif" font-size="9.00" fill="#2196f3">(users.id &#45;&gt; posts.userId)</text>
</g>
<!-- nest -->
<g id="node9" class="node">
<title>nest</title>
<polygon fill="#d5e8d4" stroke="#82b366" points="211.12,-159.93 107.38,-159.93 107.38,-103.93 211.12,-103.93 211.12,-159.93"/>
<text text-anchor="middle" x="159.25" y="-145.48" font-family="Helvetica,sans-Serif" font-size="11.00">Nest</text>
<text text-anchor="middle" x="159.25" y="-133.48" font-family="Helvetica,sans-Serif" font-size="11.00">leftKeys=[id]</text>
<text text-anchor="middle" x="159.25" y="-121.48" font-family="Helvetica,sans-Serif" font-size="11.00">rightKeys=[userId]</text>
<text text-anchor="middle" x="159.25" y="-109.48" font-family="Helvetica,sans-Serif" font-size="11.00">field=posts</text>
</g>
<!-- nest&#45;&gt;read_b -->
<g id="edge11" class="edge">
<title>nest&#45;&gt;read_b</title>
<path fill="none" stroke="#999999" d="M132.46,-160.21C121.81,-172.94 110.78,-188.95 105.25,-205.68 96.6,-231.85 100.72,-263.4 105.87,-285.72"/>
<polygon fill="#999999" stroke="#999999" points="102.45,-286.48 108.31,-295.31 109.24,-284.75 102.45,-286.48"/>
<text text-anchor="middle" x="111.25" y="-220.01" font-family="Helvetica,sans-Serif" font-size="9.00">left</text>
</g>
<!-- nest&#45;&gt;read_posts -->
<g id="edge12" class="edge">
<title>nest&#45;&gt;read_posts</title>
<path fill="none" stroke="#999999" d="M159.25,-160.35C159.25,-170.98 159.25,-183.17 159.25,-193.93"/>
<polygon fill="#999999" stroke="#999999" points="155.75,-193.8 159.25,-203.8 162.75,-193.8 155.75,-193.8"/>
<text text-anchor="middle" x="168.25" y="-179.13" font-family="Helvetica,sans-Serif" font-size="9.00">right</text>
</g>
<!-- ret -->
<g id="node10" class="node">
<title>ret</title>
<ellipse fill="black" stroke="black" cx="255.25" cy="-33.47" rx="29.47" ry="29.47"/>
<ellipse fill="none" stroke="black" cx="255.25" cy="-33.47" rx="33.47" ry="33.47"/>
<text text-anchor="middle" x="255.25" y="-29.02" font-family="Helvetica,sans-Serif" font-size="11.00" fill="white">Return</text>
</g>
<!-- ret&#45;&gt;cs_posts_0 -->
<g id="edge15" class="edge">
<title>ret&#45;&gt;cs_posts_0</title>
<path fill="none" stroke="#999999" stroke-dasharray="5,2" d="M264.19,-66.2C265.9,-72.4 267.65,-78.86 269.25,-84.93 288.22,-157.08 309.01,-242.44 319.46,-285.81"/>
<polygon fill="#999999" stroke="#999999" points="316.02,-286.51 321.76,-295.41 322.83,-284.87 316.02,-286.51"/>
</g>
<!-- ret&#45;&gt;cs_users_1 -->
<g id="edge14" class="edge">
<title>ret&#45;&gt;cs_users_1</title>
<path fill="none" stroke="#999999" stroke-dasharray="5,2" d="M252.3,-67.02C246.08,-135.59 231.71,-293.91 225.83,-358.73"/>
<polygon fill="#999999" stroke="#999999" points="222.36,-358.27 224.94,-368.54 229.33,-358.9 222.36,-358.27"/>
</g>
<!-- ret&#45;&gt;nest -->
<g id="edge13" class="edge">
<title>ret&#45;&gt;nest</title>
<path fill="none" stroke="#999999" d="M232.01,-57.82C220.72,-69.16 206.92,-83.03 194.38,-95.63"/>
<polygon fill="#999999" stroke="#999999" points="192,-93.06 187.43,-102.62 196.96,-98 192,-93.06"/>
</g>
</g>
</svg>
